G75*
%MOIN*%
%OFA0B0*%
%FSLAX25Y25*%
%IPPOS*%
%LPD*%
%AMOC8*
5,1,8,0,0,1.08239X$1,22.5*
%
%ADD10C,0.00000*%
%ADD11C,0.00600*%
%ADD12C,0.01200*%
%ADD13C,0.01000*%
%ADD14C,0.00300*%
%ADD15C,0.00800*%
%ADD16R,0.03000X0.03400*%
%ADD17C,0.00400*%
%ADD18R,0.04921X0.24409*%
%ADD19C,0.02000*%
%ADD20C,0.00500*%
%ADD21C,0.01000*%
D10*
X0011800Y0016800D02*
X0011800Y0213650D01*
X0208650Y0213650D01*
X0208650Y0016800D01*
X0011800Y0016800D01*
X0022036Y0032548D02*
X0022038Y0032696D01*
X0022044Y0032844D01*
X0022054Y0032992D01*
X0022068Y0033139D01*
X0022086Y0033286D01*
X0022107Y0033432D01*
X0022133Y0033578D01*
X0022163Y0033723D01*
X0022196Y0033867D01*
X0022234Y0034010D01*
X0022275Y0034152D01*
X0022320Y0034293D01*
X0022368Y0034433D01*
X0022421Y0034572D01*
X0022477Y0034709D01*
X0022537Y0034844D01*
X0022600Y0034978D01*
X0022667Y0035110D01*
X0022738Y0035240D01*
X0022812Y0035368D01*
X0022889Y0035494D01*
X0022970Y0035618D01*
X0023054Y0035740D01*
X0023141Y0035859D01*
X0023232Y0035976D01*
X0023326Y0036091D01*
X0023422Y0036203D01*
X0023522Y0036313D01*
X0023624Y0036419D01*
X0023730Y0036523D01*
X0023838Y0036624D01*
X0023949Y0036722D01*
X0024062Y0036818D01*
X0024178Y0036910D01*
X0024296Y0036999D01*
X0024417Y0037084D01*
X0024540Y0037167D01*
X0024665Y0037246D01*
X0024792Y0037322D01*
X0024921Y0037394D01*
X0025052Y0037463D01*
X0025185Y0037528D01*
X0025320Y0037589D01*
X0025456Y0037647D01*
X0025593Y0037702D01*
X0025732Y0037752D01*
X0025873Y0037799D01*
X0026014Y0037842D01*
X0026157Y0037882D01*
X0026301Y0037917D01*
X0026445Y0037949D01*
X0026591Y0037976D01*
X0026737Y0038000D01*
X0026884Y0038020D01*
X0027031Y0038036D01*
X0027178Y0038048D01*
X0027326Y0038056D01*
X0027474Y0038060D01*
X0027622Y0038060D01*
X0027770Y0038056D01*
X0027918Y0038048D01*
X0028065Y0038036D01*
X0028212Y0038020D01*
X0028359Y0038000D01*
X0028505Y0037976D01*
X0028651Y0037949D01*
X0028795Y0037917D01*
X0028939Y0037882D01*
X0029082Y0037842D01*
X0029223Y0037799D01*
X0029364Y0037752D01*
X0029503Y0037702D01*
X0029640Y0037647D01*
X0029776Y0037589D01*
X0029911Y0037528D01*
X0030044Y0037463D01*
X0030175Y0037394D01*
X0030304Y0037322D01*
X0030431Y0037246D01*
X0030556Y0037167D01*
X0030679Y0037084D01*
X0030800Y0036999D01*
X0030918Y0036910D01*
X0031034Y0036818D01*
X0031147Y0036722D01*
X0031258Y0036624D01*
X0031366Y0036523D01*
X0031472Y0036419D01*
X0031574Y0036313D01*
X0031674Y0036203D01*
X0031770Y0036091D01*
X0031864Y0035976D01*
X0031955Y0035859D01*
X0032042Y0035740D01*
X0032126Y0035618D01*
X0032207Y0035494D01*
X0032284Y0035368D01*
X0032358Y0035240D01*
X0032429Y0035110D01*
X0032496Y0034978D01*
X0032559Y0034844D01*
X0032619Y0034709D01*
X0032675Y0034572D01*
X0032728Y0034433D01*
X0032776Y0034293D01*
X0032821Y0034152D01*
X0032862Y0034010D01*
X0032900Y0033867D01*
X0032933Y0033723D01*
X0032963Y0033578D01*
X0032989Y0033432D01*
X0033010Y0033286D01*
X0033028Y0033139D01*
X0033042Y0032992D01*
X0033052Y0032844D01*
X0033058Y0032696D01*
X0033060Y0032548D01*
X0033058Y0032400D01*
X0033052Y0032252D01*
X0033042Y0032104D01*
X0033028Y0031957D01*
X0033010Y0031810D01*
X0032989Y0031664D01*
X0032963Y0031518D01*
X0032933Y0031373D01*
X0032900Y0031229D01*
X0032862Y0031086D01*
X0032821Y0030944D01*
X0032776Y0030803D01*
X0032728Y0030663D01*
X0032675Y0030524D01*
X0032619Y0030387D01*
X0032559Y0030252D01*
X0032496Y0030118D01*
X0032429Y0029986D01*
X0032358Y0029856D01*
X0032284Y0029728D01*
X0032207Y0029602D01*
X0032126Y0029478D01*
X0032042Y0029356D01*
X0031955Y0029237D01*
X0031864Y0029120D01*
X0031770Y0029005D01*
X0031674Y0028893D01*
X0031574Y0028783D01*
X0031472Y0028677D01*
X0031366Y0028573D01*
X0031258Y0028472D01*
X0031147Y0028374D01*
X0031034Y0028278D01*
X0030918Y0028186D01*
X0030800Y0028097D01*
X0030679Y0028012D01*
X0030556Y0027929D01*
X0030431Y0027850D01*
X0030304Y0027774D01*
X0030175Y0027702D01*
X0030044Y0027633D01*
X0029911Y0027568D01*
X0029776Y0027507D01*
X0029640Y0027449D01*
X0029503Y0027394D01*
X0029364Y0027344D01*
X0029223Y0027297D01*
X0029082Y0027254D01*
X0028939Y0027214D01*
X0028795Y0027179D01*
X0028651Y0027147D01*
X0028505Y0027120D01*
X0028359Y0027096D01*
X0028212Y0027076D01*
X0028065Y0027060D01*
X0027918Y0027048D01*
X0027770Y0027040D01*
X0027622Y0027036D01*
X0027474Y0027036D01*
X0027326Y0027040D01*
X0027178Y0027048D01*
X0027031Y0027060D01*
X0026884Y0027076D01*
X0026737Y0027096D01*
X0026591Y0027120D01*
X0026445Y0027147D01*
X0026301Y0027179D01*
X0026157Y0027214D01*
X0026014Y0027254D01*
X0025873Y0027297D01*
X0025732Y0027344D01*
X0025593Y0027394D01*
X0025456Y0027449D01*
X0025320Y0027507D01*
X0025185Y0027568D01*
X0025052Y0027633D01*
X0024921Y0027702D01*
X0024792Y0027774D01*
X0024665Y0027850D01*
X0024540Y0027929D01*
X0024417Y0028012D01*
X0024296Y0028097D01*
X0024178Y0028186D01*
X0024062Y0028278D01*
X0023949Y0028374D01*
X0023838Y0028472D01*
X0023730Y0028573D01*
X0023624Y0028677D01*
X0023522Y0028783D01*
X0023422Y0028893D01*
X0023326Y0029005D01*
X0023232Y0029120D01*
X0023141Y0029237D01*
X0023054Y0029356D01*
X0022970Y0029478D01*
X0022889Y0029602D01*
X0022812Y0029728D01*
X0022738Y0029856D01*
X0022667Y0029986D01*
X0022600Y0030118D01*
X0022537Y0030252D01*
X0022477Y0030387D01*
X0022421Y0030524D01*
X0022368Y0030663D01*
X0022320Y0030803D01*
X0022275Y0030944D01*
X0022234Y0031086D01*
X0022196Y0031229D01*
X0022163Y0031373D01*
X0022133Y0031518D01*
X0022107Y0031664D01*
X0022086Y0031810D01*
X0022068Y0031957D01*
X0022054Y0032104D01*
X0022044Y0032252D01*
X0022038Y0032400D01*
X0022036Y0032548D01*
X0022036Y0197902D02*
X0022038Y0198050D01*
X0022044Y0198198D01*
X0022054Y0198346D01*
X0022068Y0198493D01*
X0022086Y0198640D01*
X0022107Y0198786D01*
X0022133Y0198932D01*
X0022163Y0199077D01*
X0022196Y0199221D01*
X0022234Y0199364D01*
X0022275Y0199506D01*
X0022320Y0199647D01*
X0022368Y0199787D01*
X0022421Y0199926D01*
X0022477Y0200063D01*
X0022537Y0200198D01*
X0022600Y0200332D01*
X0022667Y0200464D01*
X0022738Y0200594D01*
X0022812Y0200722D01*
X0022889Y0200848D01*
X0022970Y0200972D01*
X0023054Y0201094D01*
X0023141Y0201213D01*
X0023232Y0201330D01*
X0023326Y0201445D01*
X0023422Y0201557D01*
X0023522Y0201667D01*
X0023624Y0201773D01*
X0023730Y0201877D01*
X0023838Y0201978D01*
X0023949Y0202076D01*
X0024062Y0202172D01*
X0024178Y0202264D01*
X0024296Y0202353D01*
X0024417Y0202438D01*
X0024540Y0202521D01*
X0024665Y0202600D01*
X0024792Y0202676D01*
X0024921Y0202748D01*
X0025052Y0202817D01*
X0025185Y0202882D01*
X0025320Y0202943D01*
X0025456Y0203001D01*
X0025593Y0203056D01*
X0025732Y0203106D01*
X0025873Y0203153D01*
X0026014Y0203196D01*
X0026157Y0203236D01*
X0026301Y0203271D01*
X0026445Y0203303D01*
X0026591Y0203330D01*
X0026737Y0203354D01*
X0026884Y0203374D01*
X0027031Y0203390D01*
X0027178Y0203402D01*
X0027326Y0203410D01*
X0027474Y0203414D01*
X0027622Y0203414D01*
X0027770Y0203410D01*
X0027918Y0203402D01*
X0028065Y0203390D01*
X0028212Y0203374D01*
X0028359Y0203354D01*
X0028505Y0203330D01*
X0028651Y0203303D01*
X0028795Y0203271D01*
X0028939Y0203236D01*
X0029082Y0203196D01*
X0029223Y0203153D01*
X0029364Y0203106D01*
X0029503Y0203056D01*
X0029640Y0203001D01*
X0029776Y0202943D01*
X0029911Y0202882D01*
X0030044Y0202817D01*
X0030175Y0202748D01*
X0030304Y0202676D01*
X0030431Y0202600D01*
X0030556Y0202521D01*
X0030679Y0202438D01*
X0030800Y0202353D01*
X0030918Y0202264D01*
X0031034Y0202172D01*
X0031147Y0202076D01*
X0031258Y0201978D01*
X0031366Y0201877D01*
X0031472Y0201773D01*
X0031574Y0201667D01*
X0031674Y0201557D01*
X0031770Y0201445D01*
X0031864Y0201330D01*
X0031955Y0201213D01*
X0032042Y0201094D01*
X0032126Y0200972D01*
X0032207Y0200848D01*
X0032284Y0200722D01*
X0032358Y0200594D01*
X0032429Y0200464D01*
X0032496Y0200332D01*
X0032559Y0200198D01*
X0032619Y0200063D01*
X0032675Y0199926D01*
X0032728Y0199787D01*
X0032776Y0199647D01*
X0032821Y0199506D01*
X0032862Y0199364D01*
X0032900Y0199221D01*
X0032933Y0199077D01*
X0032963Y0198932D01*
X0032989Y0198786D01*
X0033010Y0198640D01*
X0033028Y0198493D01*
X0033042Y0198346D01*
X0033052Y0198198D01*
X0033058Y0198050D01*
X0033060Y0197902D01*
X0033058Y0197754D01*
X0033052Y0197606D01*
X0033042Y0197458D01*
X0033028Y0197311D01*
X0033010Y0197164D01*
X0032989Y0197018D01*
X0032963Y0196872D01*
X0032933Y0196727D01*
X0032900Y0196583D01*
X0032862Y0196440D01*
X0032821Y0196298D01*
X0032776Y0196157D01*
X0032728Y0196017D01*
X0032675Y0195878D01*
X0032619Y0195741D01*
X0032559Y0195606D01*
X0032496Y0195472D01*
X0032429Y0195340D01*
X0032358Y0195210D01*
X0032284Y0195082D01*
X0032207Y0194956D01*
X0032126Y0194832D01*
X0032042Y0194710D01*
X0031955Y0194591D01*
X0031864Y0194474D01*
X0031770Y0194359D01*
X0031674Y0194247D01*
X0031574Y0194137D01*
X0031472Y0194031D01*
X0031366Y0193927D01*
X0031258Y0193826D01*
X0031147Y0193728D01*
X0031034Y0193632D01*
X0030918Y0193540D01*
X0030800Y0193451D01*
X0030679Y0193366D01*
X0030556Y0193283D01*
X0030431Y0193204D01*
X0030304Y0193128D01*
X0030175Y0193056D01*
X0030044Y0192987D01*
X0029911Y0192922D01*
X0029776Y0192861D01*
X0029640Y0192803D01*
X0029503Y0192748D01*
X0029364Y0192698D01*
X0029223Y0192651D01*
X0029082Y0192608D01*
X0028939Y0192568D01*
X0028795Y0192533D01*
X0028651Y0192501D01*
X0028505Y0192474D01*
X0028359Y0192450D01*
X0028212Y0192430D01*
X0028065Y0192414D01*
X0027918Y0192402D01*
X0027770Y0192394D01*
X0027622Y0192390D01*
X0027474Y0192390D01*
X0027326Y0192394D01*
X0027178Y0192402D01*
X0027031Y0192414D01*
X0026884Y0192430D01*
X0026737Y0192450D01*
X0026591Y0192474D01*
X0026445Y0192501D01*
X0026301Y0192533D01*
X0026157Y0192568D01*
X0026014Y0192608D01*
X0025873Y0192651D01*
X0025732Y0192698D01*
X0025593Y0192748D01*
X0025456Y0192803D01*
X0025320Y0192861D01*
X0025185Y0192922D01*
X0025052Y0192987D01*
X0024921Y0193056D01*
X0024792Y0193128D01*
X0024665Y0193204D01*
X0024540Y0193283D01*
X0024417Y0193366D01*
X0024296Y0193451D01*
X0024178Y0193540D01*
X0024062Y0193632D01*
X0023949Y0193728D01*
X0023838Y0193826D01*
X0023730Y0193927D01*
X0023624Y0194031D01*
X0023522Y0194137D01*
X0023422Y0194247D01*
X0023326Y0194359D01*
X0023232Y0194474D01*
X0023141Y0194591D01*
X0023054Y0194710D01*
X0022970Y0194832D01*
X0022889Y0194956D01*
X0022812Y0195082D01*
X0022738Y0195210D01*
X0022667Y0195340D01*
X0022600Y0195472D01*
X0022537Y0195606D01*
X0022477Y0195741D01*
X0022421Y0195878D01*
X0022368Y0196017D01*
X0022320Y0196157D01*
X0022275Y0196298D01*
X0022234Y0196440D01*
X0022196Y0196583D01*
X0022163Y0196727D01*
X0022133Y0196872D01*
X0022107Y0197018D01*
X0022086Y0197164D01*
X0022068Y0197311D01*
X0022054Y0197458D01*
X0022044Y0197606D01*
X0022038Y0197754D01*
X0022036Y0197902D01*
X0187390Y0197902D02*
X0187392Y0198050D01*
X0187398Y0198198D01*
X0187408Y0198346D01*
X0187422Y0198493D01*
X0187440Y0198640D01*
X0187461Y0198786D01*
X0187487Y0198932D01*
X0187517Y0199077D01*
X0187550Y0199221D01*
X0187588Y0199364D01*
X0187629Y0199506D01*
X0187674Y0199647D01*
X0187722Y0199787D01*
X0187775Y0199926D01*
X0187831Y0200063D01*
X0187891Y0200198D01*
X0187954Y0200332D01*
X0188021Y0200464D01*
X0188092Y0200594D01*
X0188166Y0200722D01*
X0188243Y0200848D01*
X0188324Y0200972D01*
X0188408Y0201094D01*
X0188495Y0201213D01*
X0188586Y0201330D01*
X0188680Y0201445D01*
X0188776Y0201557D01*
X0188876Y0201667D01*
X0188978Y0201773D01*
X0189084Y0201877D01*
X0189192Y0201978D01*
X0189303Y0202076D01*
X0189416Y0202172D01*
X0189532Y0202264D01*
X0189650Y0202353D01*
X0189771Y0202438D01*
X0189894Y0202521D01*
X0190019Y0202600D01*
X0190146Y0202676D01*
X0190275Y0202748D01*
X0190406Y0202817D01*
X0190539Y0202882D01*
X0190674Y0202943D01*
X0190810Y0203001D01*
X0190947Y0203056D01*
X0191086Y0203106D01*
X0191227Y0203153D01*
X0191368Y0203196D01*
X0191511Y0203236D01*
X0191655Y0203271D01*
X0191799Y0203303D01*
X0191945Y0203330D01*
X0192091Y0203354D01*
X0192238Y0203374D01*
X0192385Y0203390D01*
X0192532Y0203402D01*
X0192680Y0203410D01*
X0192828Y0203414D01*
X0192976Y0203414D01*
X0193124Y0203410D01*
X0193272Y0203402D01*
X0193419Y0203390D01*
X0193566Y0203374D01*
X0193713Y0203354D01*
X0193859Y0203330D01*
X0194005Y0203303D01*
X0194149Y0203271D01*
X0194293Y0203236D01*
X0194436Y0203196D01*
X0194577Y0203153D01*
X0194718Y0203106D01*
X0194857Y0203056D01*
X0194994Y0203001D01*
X0195130Y0202943D01*
X0195265Y0202882D01*
X0195398Y0202817D01*
X0195529Y0202748D01*
X0195658Y0202676D01*
X0195785Y0202600D01*
X0195910Y0202521D01*
X0196033Y0202438D01*
X0196154Y0202353D01*
X0196272Y0202264D01*
X0196388Y0202172D01*
X0196501Y0202076D01*
X0196612Y0201978D01*
X0196720Y0201877D01*
X0196826Y0201773D01*
X0196928Y0201667D01*
X0197028Y0201557D01*
X0197124Y0201445D01*
X0197218Y0201330D01*
X0197309Y0201213D01*
X0197396Y0201094D01*
X0197480Y0200972D01*
X0197561Y0200848D01*
X0197638Y0200722D01*
X0197712Y0200594D01*
X0197783Y0200464D01*
X0197850Y0200332D01*
X0197913Y0200198D01*
X0197973Y0200063D01*
X0198029Y0199926D01*
X0198082Y0199787D01*
X0198130Y0199647D01*
X0198175Y0199506D01*
X0198216Y0199364D01*
X0198254Y0199221D01*
X0198287Y0199077D01*
X0198317Y0198932D01*
X0198343Y0198786D01*
X0198364Y0198640D01*
X0198382Y0198493D01*
X0198396Y0198346D01*
X0198406Y0198198D01*
X0198412Y0198050D01*
X0198414Y0197902D01*
X0198412Y0197754D01*
X0198406Y0197606D01*
X0198396Y0197458D01*
X0198382Y0197311D01*
X0198364Y0197164D01*
X0198343Y0197018D01*
X0198317Y0196872D01*
X0198287Y0196727D01*
X0198254Y0196583D01*
X0198216Y0196440D01*
X0198175Y0196298D01*
X0198130Y0196157D01*
X0198082Y0196017D01*
X0198029Y0195878D01*
X0197973Y0195741D01*
X0197913Y0195606D01*
X0197850Y0195472D01*
X0197783Y0195340D01*
X0197712Y0195210D01*
X0197638Y0195082D01*
X0197561Y0194956D01*
X0197480Y0194832D01*
X0197396Y0194710D01*
X0197309Y0194591D01*
X0197218Y0194474D01*
X0197124Y0194359D01*
X0197028Y0194247D01*
X0196928Y0194137D01*
X0196826Y0194031D01*
X0196720Y0193927D01*
X0196612Y0193826D01*
X0196501Y0193728D01*
X0196388Y0193632D01*
X0196272Y0193540D01*
X0196154Y0193451D01*
X0196033Y0193366D01*
X0195910Y0193283D01*
X0195785Y0193204D01*
X0195658Y0193128D01*
X0195529Y0193056D01*
X0195398Y0192987D01*
X0195265Y0192922D01*
X0195130Y0192861D01*
X0194994Y0192803D01*
X0194857Y0192748D01*
X0194718Y0192698D01*
X0194577Y0192651D01*
X0194436Y0192608D01*
X0194293Y0192568D01*
X0194149Y0192533D01*
X0194005Y0192501D01*
X0193859Y0192474D01*
X0193713Y0192450D01*
X0193566Y0192430D01*
X0193419Y0192414D01*
X0193272Y0192402D01*
X0193124Y0192394D01*
X0192976Y0192390D01*
X0192828Y0192390D01*
X0192680Y0192394D01*
X0192532Y0192402D01*
X0192385Y0192414D01*
X0192238Y0192430D01*
X0192091Y0192450D01*
X0191945Y0192474D01*
X0191799Y0192501D01*
X0191655Y0192533D01*
X0191511Y0192568D01*
X0191368Y0192608D01*
X0191227Y0192651D01*
X0191086Y0192698D01*
X0190947Y0192748D01*
X0190810Y0192803D01*
X0190674Y0192861D01*
X0190539Y0192922D01*
X0190406Y0192987D01*
X0190275Y0193056D01*
X0190146Y0193128D01*
X0190019Y0193204D01*
X0189894Y0193283D01*
X0189771Y0193366D01*
X0189650Y0193451D01*
X0189532Y0193540D01*
X0189416Y0193632D01*
X0189303Y0193728D01*
X0189192Y0193826D01*
X0189084Y0193927D01*
X0188978Y0194031D01*
X0188876Y0194137D01*
X0188776Y0194247D01*
X0188680Y0194359D01*
X0188586Y0194474D01*
X0188495Y0194591D01*
X0188408Y0194710D01*
X0188324Y0194832D01*
X0188243Y0194956D01*
X0188166Y0195082D01*
X0188092Y0195210D01*
X0188021Y0195340D01*
X0187954Y0195472D01*
X0187891Y0195606D01*
X0187831Y0195741D01*
X0187775Y0195878D01*
X0187722Y0196017D01*
X0187674Y0196157D01*
X0187629Y0196298D01*
X0187588Y0196440D01*
X0187550Y0196583D01*
X0187517Y0196727D01*
X0187487Y0196872D01*
X0187461Y0197018D01*
X0187440Y0197164D01*
X0187422Y0197311D01*
X0187408Y0197458D01*
X0187398Y0197606D01*
X0187392Y0197754D01*
X0187390Y0197902D01*
X0187390Y0032548D02*
X0187392Y0032696D01*
X0187398Y0032844D01*
X0187408Y0032992D01*
X0187422Y0033139D01*
X0187440Y0033286D01*
X0187461Y0033432D01*
X0187487Y0033578D01*
X0187517Y0033723D01*
X0187550Y0033867D01*
X0187588Y0034010D01*
X0187629Y0034152D01*
X0187674Y0034293D01*
X0187722Y0034433D01*
X0187775Y0034572D01*
X0187831Y0034709D01*
X0187891Y0034844D01*
X0187954Y0034978D01*
X0188021Y0035110D01*
X0188092Y0035240D01*
X0188166Y0035368D01*
X0188243Y0035494D01*
X0188324Y0035618D01*
X0188408Y0035740D01*
X0188495Y0035859D01*
X0188586Y0035976D01*
X0188680Y0036091D01*
X0188776Y0036203D01*
X0188876Y0036313D01*
X0188978Y0036419D01*
X0189084Y0036523D01*
X0189192Y0036624D01*
X0189303Y0036722D01*
X0189416Y0036818D01*
X0189532Y0036910D01*
X0189650Y0036999D01*
X0189771Y0037084D01*
X0189894Y0037167D01*
X0190019Y0037246D01*
X0190146Y0037322D01*
X0190275Y0037394D01*
X0190406Y0037463D01*
X0190539Y0037528D01*
X0190674Y0037589D01*
X0190810Y0037647D01*
X0190947Y0037702D01*
X0191086Y0037752D01*
X0191227Y0037799D01*
X0191368Y0037842D01*
X0191511Y0037882D01*
X0191655Y0037917D01*
X0191799Y0037949D01*
X0191945Y0037976D01*
X0192091Y0038000D01*
X0192238Y0038020D01*
X0192385Y0038036D01*
X0192532Y0038048D01*
X0192680Y0038056D01*
X0192828Y0038060D01*
X0192976Y0038060D01*
X0193124Y0038056D01*
X0193272Y0038048D01*
X0193419Y0038036D01*
X0193566Y0038020D01*
X0193713Y0038000D01*
X0193859Y0037976D01*
X0194005Y0037949D01*
X0194149Y0037917D01*
X0194293Y0037882D01*
X0194436Y0037842D01*
X0194577Y0037799D01*
X0194718Y0037752D01*
X0194857Y0037702D01*
X0194994Y0037647D01*
X0195130Y0037589D01*
X0195265Y0037528D01*
X0195398Y0037463D01*
X0195529Y0037394D01*
X0195658Y0037322D01*
X0195785Y0037246D01*
X0195910Y0037167D01*
X0196033Y0037084D01*
X0196154Y0036999D01*
X0196272Y0036910D01*
X0196388Y0036818D01*
X0196501Y0036722D01*
X0196612Y0036624D01*
X0196720Y0036523D01*
X0196826Y0036419D01*
X0196928Y0036313D01*
X0197028Y0036203D01*
X0197124Y0036091D01*
X0197218Y0035976D01*
X0197309Y0035859D01*
X0197396Y0035740D01*
X0197480Y0035618D01*
X0197561Y0035494D01*
X0197638Y0035368D01*
X0197712Y0035240D01*
X0197783Y0035110D01*
X0197850Y0034978D01*
X0197913Y0034844D01*
X0197973Y0034709D01*
X0198029Y0034572D01*
X0198082Y0034433D01*
X0198130Y0034293D01*
X0198175Y0034152D01*
X0198216Y0034010D01*
X0198254Y0033867D01*
X0198287Y0033723D01*
X0198317Y0033578D01*
X0198343Y0033432D01*
X0198364Y0033286D01*
X0198382Y0033139D01*
X0198396Y0032992D01*
X0198406Y0032844D01*
X0198412Y0032696D01*
X0198414Y0032548D01*
X0198412Y0032400D01*
X0198406Y0032252D01*
X0198396Y0032104D01*
X0198382Y0031957D01*
X0198364Y0031810D01*
X0198343Y0031664D01*
X0198317Y0031518D01*
X0198287Y0031373D01*
X0198254Y0031229D01*
X0198216Y0031086D01*
X0198175Y0030944D01*
X0198130Y0030803D01*
X0198082Y0030663D01*
X0198029Y0030524D01*
X0197973Y0030387D01*
X0197913Y0030252D01*
X0197850Y0030118D01*
X0197783Y0029986D01*
X0197712Y0029856D01*
X0197638Y0029728D01*
X0197561Y0029602D01*
X0197480Y0029478D01*
X0197396Y0029356D01*
X0197309Y0029237D01*
X0197218Y0029120D01*
X0197124Y0029005D01*
X0197028Y0028893D01*
X0196928Y0028783D01*
X0196826Y0028677D01*
X0196720Y0028573D01*
X0196612Y0028472D01*
X0196501Y0028374D01*
X0196388Y0028278D01*
X0196272Y0028186D01*
X0196154Y0028097D01*
X0196033Y0028012D01*
X0195910Y0027929D01*
X0195785Y0027850D01*
X0195658Y0027774D01*
X0195529Y0027702D01*
X0195398Y0027633D01*
X0195265Y0027568D01*
X0195130Y0027507D01*
X0194994Y0027449D01*
X0194857Y0027394D01*
X0194718Y0027344D01*
X0194577Y0027297D01*
X0194436Y0027254D01*
X0194293Y0027214D01*
X0194149Y0027179D01*
X0194005Y0027147D01*
X0193859Y0027120D01*
X0193713Y0027096D01*
X0193566Y0027076D01*
X0193419Y0027060D01*
X0193272Y0027048D01*
X0193124Y0027040D01*
X0192976Y0027036D01*
X0192828Y0027036D01*
X0192680Y0027040D01*
X0192532Y0027048D01*
X0192385Y0027060D01*
X0192238Y0027076D01*
X0192091Y0027096D01*
X0191945Y0027120D01*
X0191799Y0027147D01*
X0191655Y0027179D01*
X0191511Y0027214D01*
X0191368Y0027254D01*
X0191227Y0027297D01*
X0191086Y0027344D01*
X0190947Y0027394D01*
X0190810Y0027449D01*
X0190674Y0027507D01*
X0190539Y0027568D01*
X0190406Y0027633D01*
X0190275Y0027702D01*
X0190146Y0027774D01*
X0190019Y0027850D01*
X0189894Y0027929D01*
X0189771Y0028012D01*
X0189650Y0028097D01*
X0189532Y0028186D01*
X0189416Y0028278D01*
X0189303Y0028374D01*
X0189192Y0028472D01*
X0189084Y0028573D01*
X0188978Y0028677D01*
X0188876Y0028783D01*
X0188776Y0028893D01*
X0188680Y0029005D01*
X0188586Y0029120D01*
X0188495Y0029237D01*
X0188408Y0029356D01*
X0188324Y0029478D01*
X0188243Y0029602D01*
X0188166Y0029728D01*
X0188092Y0029856D01*
X0188021Y0029986D01*
X0187954Y0030118D01*
X0187891Y0030252D01*
X0187831Y0030387D01*
X0187775Y0030524D01*
X0187722Y0030663D01*
X0187674Y0030803D01*
X0187629Y0030944D01*
X0187588Y0031086D01*
X0187550Y0031229D01*
X0187517Y0031373D01*
X0187487Y0031518D01*
X0187461Y0031664D01*
X0187440Y0031810D01*
X0187422Y0031957D01*
X0187408Y0032104D01*
X0187398Y0032252D01*
X0187392Y0032400D01*
X0187390Y0032548D01*
D11*
X0187295Y0047100D02*
X0187295Y0049369D01*
X0188430Y0050503D01*
X0189564Y0049369D01*
X0189564Y0047100D01*
X0189564Y0048801D02*
X0187295Y0048801D01*
X0182338Y0047667D02*
X0182338Y0047100D01*
X0181771Y0047100D01*
X0181771Y0047667D01*
X0182338Y0047667D01*
X0180356Y0048234D02*
X0180356Y0050503D01*
X0178088Y0050503D02*
X0178088Y0048234D01*
X0179222Y0047100D01*
X0180356Y0048234D01*
X0176673Y0047100D02*
X0174404Y0047100D01*
X0174404Y0050503D01*
X0176673Y0050503D01*
X0175539Y0048801D02*
X0174404Y0048801D01*
X0172990Y0048801D02*
X0172423Y0048234D01*
X0170721Y0048234D01*
X0170721Y0047100D02*
X0170721Y0050503D01*
X0172423Y0050503D01*
X0172990Y0049936D01*
X0172990Y0048801D01*
X0171856Y0048234D02*
X0172990Y0047100D01*
X0172256Y0058100D02*
X0172256Y0061503D01*
X0173957Y0061503D01*
X0174525Y0060936D01*
X0174525Y0059801D01*
X0173957Y0059234D01*
X0172256Y0059234D01*
X0173390Y0059234D02*
X0174525Y0058100D01*
X0175939Y0058667D02*
X0176506Y0058100D01*
X0177641Y0058100D01*
X0178208Y0058667D01*
X0178208Y0059234D01*
X0177641Y0059801D01*
X0176506Y0059801D01*
X0175939Y0060369D01*
X0175939Y0060936D01*
X0176506Y0061503D01*
X0177641Y0061503D01*
X0178208Y0060936D01*
X0179622Y0061503D02*
X0180757Y0061503D01*
X0180189Y0061503D02*
X0180189Y0058100D01*
X0179622Y0058100D02*
X0180757Y0058100D01*
X0182078Y0058667D02*
X0182645Y0058100D01*
X0183779Y0058100D01*
X0184346Y0058667D01*
X0184346Y0060936D01*
X0183779Y0061503D01*
X0182645Y0061503D01*
X0182078Y0060936D01*
X0182078Y0058667D01*
X0185761Y0058100D02*
X0185761Y0061503D01*
X0188029Y0058100D01*
X0188029Y0061503D01*
X0193127Y0060369D02*
X0194261Y0061503D01*
X0194261Y0058100D01*
X0193127Y0058100D02*
X0195396Y0058100D01*
X0195396Y0067100D02*
X0193127Y0067100D01*
X0193127Y0070503D01*
X0195396Y0070503D01*
X0194261Y0068801D02*
X0193127Y0068801D01*
X0191713Y0067667D02*
X0191145Y0067100D01*
X0190011Y0067100D01*
X0189444Y0067667D01*
X0189444Y0069936D01*
X0190011Y0070503D01*
X0191145Y0070503D01*
X0191713Y0069936D01*
X0190839Y0073100D02*
X0189704Y0073100D01*
X0189137Y0073667D01*
X0189704Y0074801D02*
X0191406Y0074801D01*
X0191406Y0073667D02*
X0191406Y0075936D01*
X0190839Y0076503D01*
X0189704Y0076503D01*
X0189137Y0075936D01*
X0189137Y0075369D01*
X0189704Y0074801D01*
X0190839Y0073100D02*
X0191406Y0073667D01*
X0187863Y0073667D02*
X0187863Y0073100D01*
X0187295Y0073100D01*
X0187295Y0073667D01*
X0187863Y0073667D01*
X0185881Y0074801D02*
X0183612Y0074801D01*
X0185314Y0076503D01*
X0185314Y0073100D01*
X0184346Y0070503D02*
X0182078Y0070503D01*
X0182078Y0067100D01*
X0180663Y0067100D02*
X0179529Y0068234D01*
X0180096Y0068234D02*
X0178395Y0068234D01*
X0178395Y0067100D02*
X0178395Y0070503D01*
X0180096Y0070503D01*
X0180663Y0069936D01*
X0180663Y0068801D01*
X0180096Y0068234D01*
X0182078Y0068801D02*
X0183212Y0068801D01*
X0185761Y0068801D02*
X0188029Y0068801D01*
X0188029Y0069369D02*
X0188029Y0067100D01*
X0185761Y0067100D02*
X0185761Y0069369D01*
X0186895Y0070503D01*
X0188029Y0069369D01*
X0178515Y0073667D02*
X0178515Y0076503D01*
X0176246Y0076503D02*
X0176246Y0073667D01*
X0176813Y0073100D01*
X0177948Y0073100D01*
X0178515Y0073667D01*
X0176980Y0070503D02*
X0174711Y0070503D01*
X0174711Y0067100D01*
X0176980Y0067100D01*
X0175846Y0068801D02*
X0174711Y0068801D01*
X0173297Y0070503D02*
X0171028Y0070503D01*
X0172163Y0070503D02*
X0172163Y0067100D01*
X0169614Y0067100D02*
X0169614Y0070503D01*
X0167345Y0070503D02*
X0167345Y0067100D01*
X0166024Y0067100D02*
X0164890Y0067100D01*
X0165457Y0067100D02*
X0165457Y0070503D01*
X0164890Y0070503D02*
X0166024Y0070503D01*
X0167345Y0070503D02*
X0169614Y0067100D01*
X0168880Y0073100D02*
X0171148Y0073100D01*
X0172563Y0073667D02*
X0173130Y0073100D01*
X0174264Y0073100D01*
X0174832Y0073667D01*
X0174832Y0074234D01*
X0174264Y0074801D01*
X0173130Y0074801D01*
X0172563Y0075369D01*
X0172563Y0075936D01*
X0173130Y0076503D01*
X0174264Y0076503D01*
X0174832Y0075936D01*
X0168880Y0076503D02*
X0168880Y0073100D01*
X0168573Y0061503D02*
X0168573Y0058100D01*
X0170841Y0058100D01*
X0169707Y0059801D02*
X0168573Y0059801D01*
X0167158Y0059234D02*
X0166024Y0058100D01*
X0164890Y0059234D01*
X0164890Y0061503D01*
X0167158Y0061503D02*
X0167158Y0059234D01*
X0168573Y0061503D02*
X0170841Y0061503D01*
X0154162Y0057981D02*
X0154162Y0055619D01*
X0149438Y0055619D02*
X0149438Y0057981D01*
X0144162Y0057981D02*
X0144162Y0055619D01*
X0139438Y0055619D02*
X0139438Y0057981D01*
X0134162Y0057981D02*
X0134162Y0055619D01*
X0129438Y0055619D02*
X0129438Y0057981D01*
X0124162Y0057981D02*
X0124162Y0055619D01*
X0119438Y0055619D02*
X0119438Y0057981D01*
X0114162Y0057981D02*
X0114162Y0055619D01*
X0109438Y0055619D02*
X0109438Y0057981D01*
X0104162Y0057981D02*
X0104162Y0055619D01*
X0099438Y0055619D02*
X0099438Y0057981D01*
X0091662Y0063119D02*
X0091662Y0065481D01*
X0086938Y0065481D02*
X0086938Y0063119D01*
X0086938Y0075619D02*
X0086938Y0077981D01*
X0091662Y0077981D02*
X0091662Y0075619D01*
X0091662Y0090619D02*
X0091662Y0092981D01*
X0086938Y0092981D02*
X0086938Y0090619D01*
X0086938Y0103119D02*
X0086938Y0105481D01*
X0091662Y0105481D02*
X0091662Y0103119D01*
X0092078Y0113100D02*
X0094346Y0113100D01*
X0093212Y0113100D02*
X0093212Y0116503D01*
X0092078Y0115369D01*
X0090663Y0115936D02*
X0090096Y0116503D01*
X0088962Y0116503D01*
X0088395Y0115936D01*
X0088395Y0113667D01*
X0088962Y0113100D01*
X0090096Y0113100D01*
X0090663Y0113667D01*
X0087073Y0113100D02*
X0085939Y0113100D01*
X0086506Y0113100D02*
X0086506Y0116503D01*
X0085939Y0116503D02*
X0087073Y0116503D01*
X0094438Y0125619D02*
X0094438Y0127981D01*
X0099162Y0127981D02*
X0099162Y0125619D01*
X0104438Y0125619D02*
X0104438Y0127981D01*
X0109162Y0127981D02*
X0109162Y0125619D01*
X0114438Y0125619D02*
X0114438Y0127981D01*
X0119162Y0127981D02*
X0119162Y0125619D01*
X0124438Y0125619D02*
X0124438Y0127981D01*
X0129162Y0127981D02*
X0129162Y0125619D01*
X0131938Y0125619D02*
X0131938Y0127981D01*
X0136662Y0127981D02*
X0136662Y0125619D01*
X0148001Y0143001D02*
X0148001Y0169202D01*
X0149398Y0170599D01*
X0175599Y0170599D01*
X0175599Y0143001D01*
X0148001Y0143001D01*
X0157189Y0135503D02*
X0158323Y0135503D01*
X0157756Y0135503D02*
X0157756Y0132100D01*
X0157189Y0132100D02*
X0158323Y0132100D01*
X0159645Y0132667D02*
X0159645Y0134936D01*
X0160212Y0135503D01*
X0161346Y0135503D01*
X0161913Y0134936D01*
X0163328Y0134936D02*
X0163895Y0135503D01*
X0165029Y0135503D01*
X0165596Y0134936D01*
X0165596Y0134369D01*
X0163328Y0132100D01*
X0165596Y0132100D01*
X0161913Y0132667D02*
X0161346Y0132100D01*
X0160212Y0132100D01*
X0159645Y0132667D01*
X0183119Y0134438D02*
X0185481Y0134438D01*
X0185481Y0139162D02*
X0183119Y0139162D01*
X0186938Y0145619D02*
X0186938Y0147981D01*
X0191662Y0147981D02*
X0191662Y0145619D01*
X0191662Y0158119D02*
X0191662Y0160481D01*
X0186938Y0160481D02*
X0186938Y0158119D01*
X0175643Y0184350D02*
X0173942Y0184350D01*
X0173942Y0187753D01*
X0175643Y0187753D01*
X0176210Y0187186D01*
X0176210Y0184917D01*
X0175643Y0184350D01*
X0172527Y0184350D02*
X0172527Y0187753D01*
X0170258Y0187753D02*
X0170258Y0184350D01*
X0168844Y0184917D02*
X0168844Y0186051D01*
X0167710Y0186051D01*
X0168844Y0184917D02*
X0168277Y0184350D01*
X0167142Y0184350D01*
X0166575Y0184917D01*
X0166575Y0187186D01*
X0167142Y0187753D01*
X0168277Y0187753D01*
X0168844Y0187186D01*
X0170258Y0187753D02*
X0172527Y0184350D01*
X0161210Y0184917D02*
X0161210Y0187186D01*
X0160643Y0187753D01*
X0158942Y0187753D01*
X0158942Y0184350D01*
X0160643Y0184350D01*
X0161210Y0184917D01*
X0157527Y0184350D02*
X0155258Y0187753D01*
X0153844Y0187186D02*
X0153844Y0186051D01*
X0153277Y0185484D01*
X0151575Y0185484D01*
X0151575Y0184350D02*
X0151575Y0187753D01*
X0153277Y0187753D01*
X0153844Y0187186D01*
X0152710Y0185484D02*
X0153844Y0184350D01*
X0155258Y0184350D02*
X0157527Y0187753D01*
X0146210Y0187186D02*
X0146210Y0184917D01*
X0145643Y0184350D01*
X0143942Y0184350D01*
X0143942Y0187753D01*
X0145643Y0187753D01*
X0146210Y0187186D01*
X0142527Y0187753D02*
X0140258Y0184350D01*
X0142527Y0184350D02*
X0140258Y0187753D01*
X0138844Y0187753D02*
X0136575Y0187753D01*
X0137710Y0187753D02*
X0137710Y0184350D01*
X0131210Y0184917D02*
X0131210Y0187186D01*
X0130643Y0187753D01*
X0128942Y0187753D01*
X0128942Y0184350D01*
X0130643Y0184350D01*
X0131210Y0184917D01*
X0127527Y0184350D02*
X0127527Y0187753D01*
X0125258Y0187753D02*
X0125258Y0184350D01*
X0123844Y0184917D02*
X0123844Y0186051D01*
X0122710Y0186051D01*
X0123844Y0184917D02*
X0123277Y0184350D01*
X0122142Y0184350D01*
X0121575Y0184917D01*
X0121575Y0187186D01*
X0122142Y0187753D01*
X0123277Y0187753D01*
X0123844Y0187186D01*
X0125258Y0187753D02*
X0127527Y0184350D01*
X0127912Y0172981D02*
X0127912Y0170619D01*
X0123188Y0170619D02*
X0123188Y0172981D01*
X0116662Y0172981D02*
X0116662Y0170619D01*
X0111938Y0170619D02*
X0111938Y0172981D01*
X0111938Y0161731D02*
X0111938Y0159369D01*
X0116662Y0159369D02*
X0116662Y0161731D01*
X0133188Y0156731D02*
X0133188Y0154369D01*
X0137912Y0154369D02*
X0137912Y0156731D01*
X0137912Y0170619D02*
X0137912Y0172981D01*
X0133188Y0172981D02*
X0133188Y0170619D01*
X0149586Y0167600D02*
X0149588Y0167675D01*
X0149594Y0167749D01*
X0149604Y0167823D01*
X0149617Y0167896D01*
X0149635Y0167969D01*
X0149656Y0168040D01*
X0149681Y0168111D01*
X0149710Y0168180D01*
X0149743Y0168247D01*
X0149779Y0168312D01*
X0149818Y0168376D01*
X0149860Y0168437D01*
X0149906Y0168496D01*
X0149955Y0168553D01*
X0150007Y0168606D01*
X0150061Y0168657D01*
X0150118Y0168706D01*
X0150178Y0168750D01*
X0150240Y0168792D01*
X0150304Y0168831D01*
X0150370Y0168866D01*
X0150437Y0168897D01*
X0150507Y0168925D01*
X0150577Y0168949D01*
X0150649Y0168970D01*
X0150722Y0168986D01*
X0150795Y0168999D01*
X0150870Y0169008D01*
X0150944Y0169013D01*
X0151019Y0169014D01*
X0151093Y0169011D01*
X0151168Y0169004D01*
X0151241Y0168993D01*
X0151315Y0168979D01*
X0151387Y0168960D01*
X0151458Y0168938D01*
X0151528Y0168912D01*
X0151597Y0168882D01*
X0151663Y0168849D01*
X0151728Y0168812D01*
X0151791Y0168772D01*
X0151852Y0168728D01*
X0151910Y0168682D01*
X0151966Y0168632D01*
X0152019Y0168580D01*
X0152070Y0168525D01*
X0152117Y0168467D01*
X0152161Y0168407D01*
X0152202Y0168344D01*
X0152240Y0168280D01*
X0152274Y0168214D01*
X0152305Y0168145D01*
X0152332Y0168076D01*
X0152355Y0168005D01*
X0152374Y0167933D01*
X0152390Y0167860D01*
X0152402Y0167786D01*
X0152410Y0167712D01*
X0152414Y0167637D01*
X0152414Y0167563D01*
X0152410Y0167488D01*
X0152402Y0167414D01*
X0152390Y0167340D01*
X0152374Y0167267D01*
X0152355Y0167195D01*
X0152332Y0167124D01*
X0152305Y0167055D01*
X0152274Y0166986D01*
X0152240Y0166920D01*
X0152202Y0166856D01*
X0152161Y0166793D01*
X0152117Y0166733D01*
X0152070Y0166675D01*
X0152019Y0166620D01*
X0151966Y0166568D01*
X0151910Y0166518D01*
X0151852Y0166472D01*
X0151791Y0166428D01*
X0151728Y0166388D01*
X0151663Y0166351D01*
X0151597Y0166318D01*
X0151528Y0166288D01*
X0151458Y0166262D01*
X0151387Y0166240D01*
X0151315Y0166221D01*
X0151241Y0166207D01*
X0151168Y0166196D01*
X0151093Y0166189D01*
X0151019Y0166186D01*
X0150944Y0166187D01*
X0150870Y0166192D01*
X0150795Y0166201D01*
X0150722Y0166214D01*
X0150649Y0166230D01*
X0150577Y0166251D01*
X0150507Y0166275D01*
X0150437Y0166303D01*
X0150370Y0166334D01*
X0150304Y0166369D01*
X0150240Y0166408D01*
X0150178Y0166450D01*
X0150118Y0166494D01*
X0150061Y0166543D01*
X0150007Y0166594D01*
X0149955Y0166647D01*
X0149906Y0166704D01*
X0149860Y0166763D01*
X0149818Y0166824D01*
X0149779Y0166888D01*
X0149743Y0166953D01*
X0149710Y0167020D01*
X0149681Y0167089D01*
X0149656Y0167160D01*
X0149635Y0167231D01*
X0149617Y0167304D01*
X0149604Y0167377D01*
X0149594Y0167451D01*
X0149588Y0167525D01*
X0149586Y0167600D01*
X0115076Y0184350D02*
X0115076Y0187753D01*
X0113942Y0187753D02*
X0116210Y0187753D01*
X0112527Y0187753D02*
X0112527Y0184917D01*
X0111960Y0184350D01*
X0110826Y0184350D01*
X0110258Y0184917D01*
X0110258Y0187753D01*
X0108844Y0187186D02*
X0108844Y0184917D01*
X0108277Y0184350D01*
X0107142Y0184350D01*
X0106575Y0184917D01*
X0106575Y0187186D01*
X0107142Y0187753D01*
X0108277Y0187753D01*
X0108844Y0187186D01*
X0101210Y0187186D02*
X0101210Y0184917D01*
X0100643Y0184350D01*
X0098942Y0184350D01*
X0098942Y0187753D01*
X0100643Y0187753D01*
X0101210Y0187186D01*
X0097527Y0187753D02*
X0097527Y0184350D01*
X0095258Y0187753D01*
X0095258Y0184350D01*
X0093844Y0184917D02*
X0093844Y0186051D01*
X0092710Y0186051D01*
X0093844Y0184917D02*
X0093277Y0184350D01*
X0092142Y0184350D01*
X0091575Y0184917D01*
X0091575Y0187186D01*
X0092142Y0187753D01*
X0093277Y0187753D01*
X0093844Y0187186D01*
X0084369Y0186619D02*
X0084369Y0184350D01*
X0084369Y0186051D02*
X0082100Y0186051D01*
X0082100Y0186619D02*
X0083234Y0187753D01*
X0084369Y0186619D01*
X0082100Y0186619D02*
X0082100Y0184350D01*
X0080685Y0184917D02*
X0080685Y0187753D01*
X0078417Y0187753D02*
X0078417Y0184917D01*
X0078984Y0184350D01*
X0080118Y0184350D01*
X0080685Y0184917D01*
X0076646Y0177753D02*
X0074377Y0177753D01*
X0074377Y0174350D01*
X0076646Y0174350D01*
X0075511Y0176051D02*
X0074377Y0176051D01*
X0072963Y0174917D02*
X0072395Y0174350D01*
X0071261Y0174350D01*
X0070694Y0174917D01*
X0070694Y0177186D01*
X0071261Y0177753D01*
X0072395Y0177753D01*
X0072963Y0177186D01*
X0069279Y0176619D02*
X0069279Y0174350D01*
X0069279Y0176051D02*
X0067011Y0176051D01*
X0067011Y0176619D02*
X0068145Y0177753D01*
X0069279Y0176619D01*
X0067011Y0176619D02*
X0067011Y0174350D01*
X0064462Y0176051D02*
X0063328Y0176051D01*
X0061913Y0176051D02*
X0061913Y0177186D01*
X0061346Y0177753D01*
X0059645Y0177753D01*
X0059645Y0174350D01*
X0059645Y0175484D02*
X0061346Y0175484D01*
X0061913Y0176051D01*
X0060779Y0175484D02*
X0061913Y0174350D01*
X0063328Y0174350D02*
X0063328Y0177753D01*
X0065596Y0177753D01*
X0065258Y0184350D02*
X0065258Y0187753D01*
X0067527Y0184350D01*
X0067527Y0187753D01*
X0068942Y0187753D02*
X0070643Y0187753D01*
X0071210Y0187186D01*
X0071210Y0184917D01*
X0070643Y0184350D01*
X0068942Y0184350D01*
X0068942Y0187753D01*
X0063844Y0187186D02*
X0063277Y0187753D01*
X0062142Y0187753D01*
X0061575Y0187186D01*
X0061575Y0184917D01*
X0062142Y0184350D01*
X0063277Y0184350D01*
X0063844Y0184917D01*
X0063844Y0186051D01*
X0062710Y0186051D01*
X0056210Y0185484D02*
X0056210Y0187753D01*
X0053942Y0187753D02*
X0053942Y0185484D01*
X0055076Y0184350D01*
X0056210Y0185484D01*
X0052527Y0184350D02*
X0050258Y0184350D01*
X0052527Y0186619D01*
X0052527Y0187186D01*
X0051960Y0187753D01*
X0050826Y0187753D01*
X0050258Y0187186D01*
X0047710Y0187753D02*
X0047710Y0184350D01*
X0048844Y0184350D02*
X0046575Y0184350D01*
X0046575Y0186619D02*
X0047710Y0187753D01*
X0047274Y0177753D02*
X0046140Y0177753D01*
X0046707Y0177753D02*
X0046707Y0174350D01*
X0046140Y0174350D02*
X0047274Y0174350D01*
X0048595Y0174350D02*
X0048595Y0177753D01*
X0050864Y0174350D01*
X0050864Y0177753D01*
X0052278Y0177753D02*
X0054547Y0177753D01*
X0053413Y0177753D02*
X0053413Y0174350D01*
X0055961Y0174350D02*
X0055961Y0177753D01*
X0058230Y0177753D01*
X0057096Y0176051D02*
X0055961Y0176051D01*
X0055961Y0174350D02*
X0058230Y0174350D01*
X0073347Y0166279D02*
X0075049Y0164578D01*
X0075049Y0166846D01*
X0076750Y0166279D02*
X0073347Y0166279D01*
X0073914Y0163163D02*
X0073347Y0162596D01*
X0073347Y0161462D01*
X0073914Y0160895D01*
X0076183Y0160895D01*
X0076750Y0161462D01*
X0076750Y0162596D01*
X0076183Y0163163D01*
X0076750Y0159573D02*
X0076750Y0158439D01*
X0076750Y0159006D02*
X0073347Y0159006D01*
X0073347Y0158439D02*
X0073347Y0159573D01*
X0096869Y0150412D02*
X0099231Y0150412D01*
X0099231Y0145688D02*
X0096869Y0145688D01*
X0096869Y0142912D02*
X0099231Y0142912D01*
X0099231Y0138188D02*
X0096869Y0138188D01*
X0066731Y0122912D02*
X0064369Y0122912D01*
X0064369Y0118188D02*
X0066731Y0118188D01*
X0066938Y0105481D02*
X0066938Y0103119D01*
X0071662Y0103119D02*
X0071662Y0105481D01*
X0069438Y0075481D02*
X0069438Y0073119D01*
X0074162Y0073119D02*
X0074162Y0075481D01*
X0074162Y0060481D02*
X0074162Y0058119D01*
X0069438Y0058119D02*
X0069438Y0060481D01*
X0068417Y0046753D02*
X0068417Y0043350D01*
X0068417Y0045051D02*
X0070685Y0045051D01*
X0072100Y0045051D02*
X0074369Y0045051D01*
X0070685Y0043350D02*
X0070685Y0046753D01*
X0060250Y0044235D02*
X0059116Y0043101D01*
X0059116Y0043668D02*
X0059116Y0041966D01*
X0060250Y0041966D02*
X0056847Y0041966D01*
X0056847Y0043668D01*
X0057414Y0044235D01*
X0058549Y0044235D01*
X0059116Y0043668D01*
X0059683Y0040552D02*
X0057414Y0040552D01*
X0056847Y0039985D01*
X0056847Y0038850D01*
X0057414Y0038283D01*
X0059683Y0038283D01*
X0060250Y0038850D01*
X0060250Y0039985D01*
X0059683Y0040552D01*
X0059683Y0036869D02*
X0060250Y0036301D01*
X0060250Y0035167D01*
X0059683Y0034600D01*
X0058549Y0035167D02*
X0058549Y0036301D01*
X0059116Y0036869D01*
X0059683Y0036869D01*
X0058549Y0035167D02*
X0057981Y0034600D01*
X0057414Y0034600D01*
X0056847Y0035167D01*
X0056847Y0036301D01*
X0057414Y0036869D01*
X0054250Y0037669D02*
X0054250Y0039938D01*
X0054250Y0041352D02*
X0050847Y0041352D01*
X0054250Y0043621D01*
X0050847Y0043621D01*
X0050847Y0039938D02*
X0050847Y0037669D01*
X0054250Y0037669D01*
X0053683Y0036255D02*
X0052549Y0036255D01*
X0052549Y0035120D01*
X0053683Y0033986D02*
X0051414Y0033986D01*
X0050847Y0034553D01*
X0050847Y0035688D01*
X0051414Y0036255D01*
X0052549Y0037669D02*
X0052549Y0038804D01*
X0053683Y0036255D02*
X0054250Y0035688D01*
X0054250Y0034553D01*
X0053683Y0033986D01*
X0054250Y0032665D02*
X0054250Y0031531D01*
X0054250Y0032098D02*
X0050847Y0032098D01*
X0050847Y0031531D02*
X0050847Y0032665D01*
X0050847Y0030116D02*
X0054250Y0027848D01*
X0053683Y0026433D02*
X0051414Y0026433D01*
X0050847Y0025866D01*
X0050847Y0024732D01*
X0051414Y0024164D01*
X0053683Y0024164D01*
X0054250Y0024732D01*
X0054250Y0025866D01*
X0053683Y0026433D01*
X0056847Y0027234D02*
X0060250Y0027234D01*
X0060250Y0029502D01*
X0060250Y0030917D02*
X0056847Y0030917D01*
X0060250Y0033185D01*
X0056847Y0033185D01*
X0056847Y0029502D02*
X0056847Y0027234D01*
X0057414Y0025819D02*
X0056847Y0025252D01*
X0056847Y0024118D01*
X0057414Y0023551D01*
X0057981Y0023551D01*
X0058549Y0024118D01*
X0058549Y0025252D01*
X0059116Y0025819D01*
X0059683Y0025819D01*
X0060250Y0025252D01*
X0060250Y0024118D01*
X0059683Y0023551D01*
X0058549Y0027234D02*
X0058549Y0028368D01*
X0054250Y0030116D02*
X0050847Y0027848D01*
X0043119Y0046850D02*
X0040850Y0046850D01*
X0041984Y0046850D02*
X0041984Y0050253D01*
X0040850Y0049119D01*
X0039435Y0050253D02*
X0037167Y0050253D01*
X0038301Y0050253D02*
X0038301Y0046850D01*
X0083417Y0046753D02*
X0083417Y0043350D01*
X0083417Y0045051D02*
X0085685Y0045051D01*
X0087100Y0045051D02*
X0089369Y0045051D01*
X0088234Y0043917D02*
X0088234Y0046186D01*
X0085685Y0046753D02*
X0085685Y0043350D01*
X0096575Y0043350D02*
X0096575Y0046753D01*
X0098277Y0046753D01*
X0098844Y0046186D01*
X0098844Y0045051D01*
X0098277Y0044484D01*
X0096575Y0044484D01*
X0097710Y0044484D02*
X0098844Y0043350D01*
X0100258Y0043350D02*
X0102527Y0043350D01*
X0101393Y0045051D02*
X0100258Y0045051D01*
X0100258Y0043350D02*
X0100258Y0046753D01*
X0102527Y0046753D01*
X0103942Y0045051D02*
X0106210Y0045051D01*
X0105076Y0043917D02*
X0105076Y0046186D01*
X0111575Y0045619D02*
X0111575Y0043350D01*
X0111575Y0045051D02*
X0113844Y0045051D01*
X0113844Y0045619D02*
X0113844Y0043350D01*
X0115258Y0043350D02*
X0115258Y0046753D01*
X0116960Y0046753D01*
X0117527Y0046186D01*
X0117527Y0045051D01*
X0116960Y0044484D01*
X0115258Y0044484D01*
X0113844Y0045619D02*
X0112710Y0046753D01*
X0111575Y0045619D01*
X0118942Y0045051D02*
X0120076Y0045051D01*
X0118942Y0043350D02*
X0121210Y0043350D01*
X0118942Y0043350D02*
X0118942Y0046753D01*
X0121210Y0046753D01*
X0128417Y0046753D02*
X0128417Y0043350D01*
X0128417Y0044484D02*
X0130118Y0044484D01*
X0130685Y0045051D01*
X0130685Y0046186D01*
X0130118Y0046753D01*
X0128417Y0046753D01*
X0129551Y0044484D02*
X0130685Y0043350D01*
X0133234Y0043350D02*
X0133234Y0046753D01*
X0132100Y0046753D02*
X0134369Y0046753D01*
X0142189Y0046753D02*
X0143323Y0046753D01*
X0142756Y0046753D02*
X0142756Y0043350D01*
X0142189Y0043350D02*
X0143323Y0043350D01*
X0144645Y0043350D02*
X0144645Y0046753D01*
X0146346Y0046753D01*
X0146913Y0046186D01*
X0146913Y0045051D01*
X0146346Y0044484D01*
X0144645Y0044484D01*
X0148328Y0043350D02*
X0148328Y0046753D01*
X0150596Y0043350D01*
X0150596Y0046753D01*
X0161938Y0090619D02*
X0161938Y0092981D01*
X0166662Y0092981D02*
X0166662Y0090619D01*
X0166662Y0103119D02*
X0166662Y0105481D01*
X0161938Y0105481D02*
X0161938Y0103119D01*
X0199597Y0103891D02*
X0199597Y0102189D01*
X0203000Y0102189D01*
X0201866Y0102189D02*
X0201866Y0103891D01*
X0201299Y0104458D01*
X0200164Y0104458D01*
X0199597Y0103891D01*
X0201866Y0103323D02*
X0203000Y0104458D01*
X0201866Y0100775D02*
X0199597Y0100775D01*
X0201866Y0100775D02*
X0203000Y0099640D01*
X0201866Y0098506D01*
X0199597Y0098506D01*
X0200731Y0097091D02*
X0203000Y0097091D01*
X0201299Y0097091D02*
X0201299Y0094823D01*
X0200731Y0094823D02*
X0203000Y0094823D01*
X0200731Y0094823D02*
X0199597Y0095957D01*
X0200731Y0097091D01*
X0199597Y0109555D02*
X0199597Y0110690D01*
X0199597Y0110123D02*
X0203000Y0110123D01*
X0203000Y0110690D02*
X0203000Y0109555D01*
X0202433Y0112011D02*
X0203000Y0112578D01*
X0203000Y0113712D01*
X0202433Y0114279D01*
X0201866Y0114279D01*
X0201299Y0113712D01*
X0201299Y0112578D01*
X0200731Y0112011D01*
X0200164Y0112011D01*
X0199597Y0112578D01*
X0199597Y0113712D01*
X0200164Y0114279D01*
X0199597Y0115694D02*
X0199597Y0117395D01*
X0200164Y0117963D01*
X0201299Y0117963D01*
X0201866Y0117395D01*
X0201866Y0115694D01*
X0203000Y0115694D02*
X0199597Y0115694D01*
X0048119Y0138100D02*
X0045850Y0138100D01*
X0046984Y0138100D02*
X0046984Y0141503D01*
X0045850Y0140369D01*
X0044435Y0140936D02*
X0043868Y0141503D01*
X0042167Y0141503D01*
X0042167Y0138100D01*
X0043868Y0138100D01*
X0044435Y0138667D01*
X0044435Y0140936D01*
X0040029Y0096503D02*
X0040596Y0095936D01*
X0040596Y0095369D01*
X0040029Y0094801D01*
X0040596Y0094234D01*
X0040596Y0093667D01*
X0040029Y0093100D01*
X0038895Y0093100D01*
X0038328Y0093667D01*
X0036913Y0093667D02*
X0036346Y0093100D01*
X0035212Y0093100D01*
X0034645Y0093667D01*
X0034645Y0095936D01*
X0035212Y0096503D01*
X0036346Y0096503D01*
X0036913Y0095936D01*
X0038328Y0095936D02*
X0038895Y0096503D01*
X0040029Y0096503D01*
X0040029Y0094801D02*
X0039462Y0094801D01*
X0033323Y0093100D02*
X0032189Y0093100D01*
X0032756Y0093100D02*
X0032756Y0096503D01*
X0032189Y0096503D02*
X0033323Y0096503D01*
D12*
X0064300Y0049300D02*
X0079300Y0049300D01*
X0094300Y0049300D01*
X0109300Y0049300D01*
X0124300Y0049300D01*
X0139300Y0049300D01*
X0154300Y0049300D01*
X0154300Y0019300D01*
X0139300Y0019300D01*
X0124300Y0019300D01*
X0109300Y0019300D01*
X0094300Y0019300D01*
X0079300Y0019300D01*
X0064300Y0019300D01*
X0064300Y0049300D01*
X0079300Y0049300D02*
X0079300Y0019300D01*
X0094300Y0019300D02*
X0094300Y0049300D01*
X0109300Y0049300D02*
X0109300Y0019300D01*
X0124300Y0019300D02*
X0124300Y0049300D01*
X0139300Y0049300D02*
X0139300Y0019300D01*
X0178050Y0091800D02*
X0195550Y0091800D01*
X0196800Y0093050D01*
X0196800Y0121800D01*
X0196800Y0123050D01*
X0196800Y0124300D01*
X0195550Y0125550D01*
X0178050Y0125550D01*
X0176800Y0124300D01*
X0196800Y0124300D01*
X0196800Y0123050D02*
X0176800Y0123050D01*
X0176800Y0124300D01*
X0176800Y0123050D02*
X0176800Y0121800D01*
X0196800Y0121800D01*
X0176800Y0121800D02*
X0176800Y0093050D01*
X0178050Y0091800D01*
X0179300Y0181800D02*
X0164300Y0181800D01*
X0149300Y0181800D01*
X0134300Y0181800D01*
X0119300Y0181800D01*
X0104300Y0181800D01*
X0089300Y0181800D01*
X0074300Y0181800D01*
X0059300Y0181800D01*
X0044300Y0181800D01*
X0044300Y0210550D01*
X0059300Y0210550D01*
X0074300Y0210550D01*
X0089300Y0210550D01*
X0104300Y0210550D01*
X0119300Y0210550D01*
X0134300Y0210550D01*
X0149300Y0210550D01*
X0164300Y0210550D01*
X0179300Y0210550D01*
X0179300Y0181800D01*
X0164300Y0181800D02*
X0164300Y0210550D01*
X0149300Y0210550D02*
X0149300Y0181800D01*
X0134300Y0181800D02*
X0134300Y0210550D01*
X0119300Y0210550D02*
X0119300Y0181800D01*
X0104300Y0181800D02*
X0104300Y0210550D01*
X0089300Y0210550D02*
X0089300Y0181800D01*
X0074300Y0181800D02*
X0074300Y0210550D01*
X0059300Y0210550D02*
X0059300Y0181800D01*
D13*
X0163050Y0064300D02*
X0198050Y0064300D01*
X0198050Y0054300D02*
X0163050Y0054300D01*
D14*
X0147900Y0055090D02*
X0147900Y0055791D01*
X0147550Y0056141D01*
X0147900Y0056950D02*
X0147900Y0058351D01*
X0147900Y0057651D02*
X0145798Y0057651D01*
X0146499Y0056950D01*
X0146149Y0056141D02*
X0145798Y0055791D01*
X0145798Y0055090D01*
X0146149Y0054740D01*
X0147550Y0054740D01*
X0147900Y0055090D01*
X0137900Y0054740D02*
X0135798Y0054740D01*
X0135798Y0055791D01*
X0136149Y0056141D01*
X0136849Y0056141D01*
X0137199Y0055791D01*
X0137199Y0054740D01*
X0137199Y0055441D02*
X0137900Y0056141D01*
X0137900Y0056950D02*
X0137900Y0058351D01*
X0137900Y0057651D02*
X0135798Y0057651D01*
X0136499Y0056950D01*
X0127900Y0057246D02*
X0127900Y0055845D01*
X0127900Y0056546D02*
X0125798Y0056546D01*
X0126499Y0055845D01*
X0126849Y0055036D02*
X0127199Y0054686D01*
X0127199Y0053635D01*
X0127199Y0054336D02*
X0127900Y0055036D01*
X0126849Y0055036D02*
X0126149Y0055036D01*
X0125798Y0054686D01*
X0125798Y0053635D01*
X0127900Y0053635D01*
X0127900Y0058055D02*
X0126499Y0059456D01*
X0126149Y0059456D01*
X0125798Y0059106D01*
X0125798Y0058405D01*
X0126149Y0058055D01*
X0127900Y0058055D02*
X0127900Y0059456D01*
X0117900Y0058001D02*
X0117900Y0057300D01*
X0117550Y0056950D01*
X0117199Y0056950D01*
X0116849Y0057300D01*
X0116849Y0058001D01*
X0117199Y0058351D01*
X0117550Y0058351D01*
X0117900Y0058001D01*
X0116849Y0058001D02*
X0116499Y0058351D01*
X0116149Y0058351D01*
X0115798Y0058001D01*
X0115798Y0057300D01*
X0116149Y0056950D01*
X0116499Y0056950D01*
X0116849Y0057300D01*
X0116849Y0056141D02*
X0117199Y0055791D01*
X0117199Y0054740D01*
X0117199Y0055441D02*
X0117900Y0056141D01*
X0116849Y0056141D02*
X0116149Y0056141D01*
X0115798Y0055791D01*
X0115798Y0054740D01*
X0117900Y0054740D01*
X0107900Y0054740D02*
X0105798Y0054740D01*
X0105798Y0055791D01*
X0106149Y0056141D01*
X0106849Y0056141D01*
X0107199Y0055791D01*
X0107199Y0054740D01*
X0107199Y0055441D02*
X0107900Y0056141D01*
X0107550Y0056950D02*
X0107900Y0057300D01*
X0107900Y0058001D01*
X0107550Y0058351D01*
X0107199Y0058351D01*
X0106849Y0058001D01*
X0106849Y0056950D01*
X0107550Y0056950D01*
X0106849Y0056950D02*
X0106149Y0057651D01*
X0105798Y0058351D01*
X0097900Y0058351D02*
X0097900Y0056950D01*
X0096499Y0058351D01*
X0096149Y0058351D01*
X0095798Y0058001D01*
X0095798Y0057300D01*
X0096149Y0056950D01*
X0096149Y0056141D02*
X0095798Y0055791D01*
X0095798Y0055090D01*
X0096149Y0054740D01*
X0097550Y0054740D01*
X0097900Y0055090D01*
X0097900Y0055791D01*
X0097550Y0056141D01*
X0085400Y0062240D02*
X0085400Y0063641D01*
X0085400Y0064450D02*
X0085400Y0065851D01*
X0085400Y0065151D02*
X0083298Y0065151D01*
X0083999Y0064450D01*
X0083298Y0062240D02*
X0085400Y0062240D01*
X0077800Y0060851D02*
X0077800Y0059450D01*
X0076399Y0060851D01*
X0076049Y0060851D01*
X0075698Y0060501D01*
X0075698Y0059800D01*
X0076049Y0059450D01*
X0076049Y0058641D02*
X0076749Y0058641D01*
X0077099Y0058291D01*
X0077099Y0057240D01*
X0077099Y0057941D02*
X0077800Y0058641D01*
X0077800Y0057240D02*
X0075698Y0057240D01*
X0075698Y0058291D01*
X0076049Y0058641D01*
X0075698Y0071135D02*
X0075698Y0072186D01*
X0076049Y0072536D01*
X0076749Y0072536D01*
X0077099Y0072186D01*
X0077099Y0071135D01*
X0077099Y0071836D02*
X0077800Y0072536D01*
X0077800Y0073345D02*
X0077800Y0074746D01*
X0077800Y0074046D02*
X0075698Y0074046D01*
X0076399Y0073345D01*
X0076049Y0075555D02*
X0075698Y0075905D01*
X0075698Y0076606D01*
X0076049Y0076956D01*
X0077450Y0075555D01*
X0077800Y0075905D01*
X0077800Y0076606D01*
X0077450Y0076956D01*
X0076049Y0076956D01*
X0076049Y0075555D02*
X0077450Y0075555D01*
X0077800Y0071135D02*
X0075698Y0071135D01*
X0083298Y0073985D02*
X0083649Y0073635D01*
X0085050Y0073635D01*
X0085400Y0073985D01*
X0085400Y0074686D01*
X0085050Y0075036D01*
X0085400Y0075845D02*
X0085400Y0077246D01*
X0085400Y0076546D02*
X0083298Y0076546D01*
X0083999Y0075845D01*
X0083649Y0075036D02*
X0083298Y0074686D01*
X0083298Y0073985D01*
X0083298Y0078055D02*
X0084349Y0078055D01*
X0083999Y0078756D01*
X0083999Y0079106D01*
X0084349Y0079456D01*
X0085050Y0079456D01*
X0085400Y0079106D01*
X0085400Y0078405D01*
X0085050Y0078055D01*
X0083298Y0078055D02*
X0083298Y0079456D01*
X0083298Y0089740D02*
X0083298Y0090791D01*
X0083649Y0091141D01*
X0084349Y0091141D01*
X0084699Y0090791D01*
X0084699Y0089740D01*
X0084699Y0090441D02*
X0085400Y0091141D01*
X0085400Y0091950D02*
X0085050Y0091950D01*
X0083649Y0093351D01*
X0083298Y0093351D01*
X0083298Y0091950D01*
X0083298Y0089740D02*
X0085400Y0089740D01*
X0085400Y0102240D02*
X0083298Y0102240D01*
X0083298Y0103291D01*
X0083649Y0103641D01*
X0084349Y0103641D01*
X0084699Y0103291D01*
X0084699Y0102240D01*
X0084699Y0102941D02*
X0085400Y0103641D01*
X0085050Y0104450D02*
X0085400Y0104800D01*
X0085400Y0105501D01*
X0085050Y0105851D01*
X0084699Y0105851D01*
X0084349Y0105501D01*
X0084349Y0105151D01*
X0084349Y0105501D02*
X0083999Y0105851D01*
X0083649Y0105851D01*
X0083298Y0105501D01*
X0083298Y0104800D01*
X0083649Y0104450D01*
X0075300Y0104800D02*
X0075300Y0105501D01*
X0074950Y0105851D01*
X0073549Y0105851D01*
X0073198Y0105501D01*
X0073198Y0104800D01*
X0073549Y0104450D01*
X0073899Y0104450D01*
X0074249Y0104800D01*
X0074249Y0105851D01*
X0075300Y0104800D02*
X0074950Y0104450D01*
X0074950Y0103641D02*
X0075300Y0103291D01*
X0075300Y0102590D01*
X0074950Y0102240D01*
X0073549Y0102240D01*
X0073198Y0102590D01*
X0073198Y0103291D01*
X0073549Y0103641D01*
X0073649Y0117385D02*
X0075050Y0117385D01*
X0075400Y0117735D01*
X0075400Y0118436D01*
X0075050Y0118786D01*
X0075400Y0119595D02*
X0075400Y0120996D01*
X0075400Y0120296D02*
X0073298Y0120296D01*
X0073999Y0119595D01*
X0073649Y0118786D02*
X0073298Y0118436D01*
X0073298Y0117735D01*
X0073649Y0117385D01*
X0073649Y0121805D02*
X0073298Y0122155D01*
X0073298Y0122856D01*
X0073649Y0123206D01*
X0073999Y0123206D01*
X0075400Y0121805D01*
X0075400Y0123206D01*
X0090698Y0123635D02*
X0090698Y0124686D01*
X0091049Y0125036D01*
X0091749Y0125036D01*
X0092099Y0124686D01*
X0092099Y0123635D01*
X0092099Y0124336D02*
X0092800Y0125036D01*
X0092800Y0125845D02*
X0092800Y0127246D01*
X0092800Y0126546D02*
X0090698Y0126546D01*
X0091399Y0125845D01*
X0091399Y0128055D02*
X0090698Y0128756D01*
X0092800Y0128756D01*
X0092800Y0129456D02*
X0092800Y0128055D01*
X0092800Y0123635D02*
X0090698Y0123635D01*
X0100698Y0125090D02*
X0101049Y0124740D01*
X0102450Y0124740D01*
X0102800Y0125090D01*
X0102800Y0125791D01*
X0102450Y0126141D01*
X0102450Y0126950D02*
X0102800Y0127300D01*
X0102800Y0128001D01*
X0102450Y0128351D01*
X0102099Y0128351D01*
X0101749Y0128001D01*
X0101749Y0127651D01*
X0101749Y0128001D02*
X0101399Y0128351D01*
X0101049Y0128351D01*
X0100698Y0128001D01*
X0100698Y0127300D01*
X0101049Y0126950D01*
X0101049Y0126141D02*
X0100698Y0125791D01*
X0100698Y0125090D01*
X0110698Y0125090D02*
X0111049Y0124740D01*
X0112450Y0124740D01*
X0112800Y0125090D01*
X0112800Y0125791D01*
X0112450Y0126141D01*
X0112450Y0126950D02*
X0112800Y0127300D01*
X0112800Y0128001D01*
X0112450Y0128351D01*
X0112099Y0128351D01*
X0111749Y0128001D01*
X0111749Y0126950D01*
X0112450Y0126950D01*
X0111749Y0126950D02*
X0111049Y0127651D01*
X0110698Y0128351D01*
X0111049Y0126141D02*
X0110698Y0125791D01*
X0110698Y0125090D01*
X0120698Y0124740D02*
X0120698Y0125791D01*
X0121049Y0126141D01*
X0121749Y0126141D01*
X0122099Y0125791D01*
X0122099Y0124740D01*
X0122099Y0125441D02*
X0122800Y0126141D01*
X0121749Y0126950D02*
X0121749Y0128351D01*
X0122800Y0128001D02*
X0120698Y0128001D01*
X0121749Y0126950D01*
X0122800Y0124740D02*
X0120698Y0124740D01*
X0127048Y0139740D02*
X0127399Y0139740D01*
X0128099Y0140441D01*
X0129150Y0140441D01*
X0128099Y0140441D02*
X0127399Y0141141D01*
X0127048Y0141141D01*
X0127749Y0141950D02*
X0127048Y0142651D01*
X0129150Y0142651D01*
X0129150Y0143351D02*
X0129150Y0141950D01*
X0129799Y0153490D02*
X0129448Y0153840D01*
X0129448Y0154541D01*
X0129799Y0154891D01*
X0129448Y0155700D02*
X0129448Y0157101D01*
X0129799Y0157101D01*
X0131200Y0155700D01*
X0131550Y0155700D01*
X0131200Y0154891D02*
X0131550Y0154541D01*
X0131550Y0153840D01*
X0131200Y0153490D01*
X0129799Y0153490D01*
X0120300Y0158490D02*
X0118198Y0158490D01*
X0118198Y0159541D01*
X0118549Y0159891D01*
X0119249Y0159891D01*
X0119599Y0159541D01*
X0119599Y0158490D01*
X0119599Y0159191D02*
X0120300Y0159891D01*
X0119950Y0160700D02*
X0120300Y0161050D01*
X0120300Y0161751D01*
X0119950Y0162101D01*
X0118549Y0162101D01*
X0118198Y0161751D01*
X0118198Y0161050D01*
X0118549Y0160700D01*
X0118899Y0160700D01*
X0119249Y0161050D01*
X0119249Y0162101D01*
X0118549Y0169740D02*
X0119950Y0169740D01*
X0120300Y0170090D01*
X0120300Y0170791D01*
X0119950Y0171141D01*
X0119950Y0171950D02*
X0120300Y0172300D01*
X0120300Y0173001D01*
X0119950Y0173351D01*
X0119249Y0173351D01*
X0118899Y0173001D01*
X0118899Y0172651D01*
X0119249Y0171950D01*
X0118198Y0171950D01*
X0118198Y0173351D01*
X0118549Y0171141D02*
X0118198Y0170791D01*
X0118198Y0170090D01*
X0118549Y0169740D01*
X0129448Y0169686D02*
X0129799Y0170036D01*
X0130499Y0170036D01*
X0130849Y0169686D01*
X0130849Y0168635D01*
X0130849Y0169336D02*
X0131550Y0170036D01*
X0131550Y0170845D02*
X0131550Y0172246D01*
X0131550Y0171546D02*
X0129448Y0171546D01*
X0130149Y0170845D01*
X0129448Y0169686D02*
X0129448Y0168635D01*
X0131550Y0168635D01*
X0130499Y0173055D02*
X0129448Y0174106D01*
X0131550Y0174106D01*
X0130499Y0174456D02*
X0130499Y0173055D01*
X0139448Y0173055D02*
X0140499Y0173055D01*
X0140149Y0173756D01*
X0140149Y0174106D01*
X0140499Y0174456D01*
X0141200Y0174456D01*
X0141550Y0174106D01*
X0141550Y0173405D01*
X0141200Y0173055D01*
X0141550Y0172246D02*
X0141550Y0170845D01*
X0141550Y0171546D02*
X0139448Y0171546D01*
X0140149Y0170845D01*
X0140499Y0170036D02*
X0140849Y0169686D01*
X0140849Y0168635D01*
X0140849Y0169336D02*
X0141550Y0170036D01*
X0140499Y0170036D02*
X0139799Y0170036D01*
X0139448Y0169686D01*
X0139448Y0168635D01*
X0141550Y0168635D01*
X0139448Y0173055D02*
X0139448Y0174456D01*
X0139599Y0128351D02*
X0139950Y0128351D01*
X0140300Y0128001D01*
X0140300Y0127300D01*
X0139950Y0126950D01*
X0139599Y0126950D01*
X0139249Y0127300D01*
X0139249Y0128001D01*
X0139599Y0128351D01*
X0139249Y0128001D02*
X0138899Y0128351D01*
X0138549Y0128351D01*
X0138198Y0128001D01*
X0138198Y0127300D01*
X0138549Y0126950D01*
X0138899Y0126950D01*
X0139249Y0127300D01*
X0138549Y0126141D02*
X0138198Y0125791D01*
X0138198Y0125090D01*
X0138549Y0124740D01*
X0139950Y0124740D01*
X0140300Y0125090D01*
X0140300Y0125791D01*
X0139950Y0126141D01*
X0168198Y0105851D02*
X0168198Y0104450D01*
X0169249Y0104450D01*
X0168899Y0105151D01*
X0168899Y0105501D01*
X0169249Y0105851D01*
X0169950Y0105851D01*
X0170300Y0105501D01*
X0170300Y0104800D01*
X0169950Y0104450D01*
X0170300Y0103641D02*
X0169599Y0102941D01*
X0169599Y0103291D02*
X0169599Y0102240D01*
X0170300Y0102240D02*
X0168198Y0102240D01*
X0168198Y0103291D01*
X0168549Y0103641D01*
X0169249Y0103641D01*
X0169599Y0103291D01*
X0169249Y0094456D02*
X0169249Y0093055D01*
X0168198Y0094106D01*
X0170300Y0094106D01*
X0170300Y0092246D02*
X0170300Y0090845D01*
X0170300Y0091546D02*
X0168198Y0091546D01*
X0168899Y0090845D01*
X0168549Y0090036D02*
X0168198Y0089686D01*
X0168198Y0088985D01*
X0168549Y0088635D01*
X0169950Y0088635D01*
X0170300Y0088985D01*
X0170300Y0089686D01*
X0169950Y0090036D01*
X0190990Y0135800D02*
X0192391Y0135800D01*
X0193200Y0135800D02*
X0194601Y0137201D01*
X0194601Y0137551D01*
X0194251Y0137902D01*
X0193550Y0137902D01*
X0193200Y0137551D01*
X0193200Y0135800D02*
X0194601Y0135800D01*
X0190990Y0135800D02*
X0190990Y0137902D01*
X0193549Y0143635D02*
X0194950Y0143635D01*
X0195300Y0143985D01*
X0195300Y0144686D01*
X0194950Y0145036D01*
X0195300Y0145845D02*
X0195300Y0147246D01*
X0195300Y0146546D02*
X0193198Y0146546D01*
X0193899Y0145845D01*
X0193549Y0145036D02*
X0193198Y0144686D01*
X0193198Y0143985D01*
X0193549Y0143635D01*
X0194249Y0148055D02*
X0194249Y0149106D01*
X0194599Y0149456D01*
X0194950Y0149456D01*
X0195300Y0149106D01*
X0195300Y0148405D01*
X0194950Y0148055D01*
X0194249Y0148055D01*
X0193549Y0148756D01*
X0193198Y0149456D01*
X0193549Y0157240D02*
X0194950Y0157240D01*
X0195300Y0157590D01*
X0195300Y0158291D01*
X0194950Y0158641D01*
X0194249Y0159450D02*
X0194249Y0160851D01*
X0193198Y0160501D02*
X0194249Y0159450D01*
X0193549Y0158641D02*
X0193198Y0158291D01*
X0193198Y0157590D01*
X0193549Y0157240D01*
X0193198Y0160501D02*
X0195300Y0160501D01*
X0091956Y0148801D02*
X0091956Y0147400D01*
X0091606Y0147050D01*
X0090905Y0147050D01*
X0090555Y0147400D01*
X0091956Y0148801D01*
X0091606Y0149152D01*
X0090905Y0149152D01*
X0090555Y0148801D01*
X0090555Y0147400D01*
X0089746Y0147050D02*
X0088345Y0147050D01*
X0089046Y0147050D02*
X0089046Y0149152D01*
X0088345Y0148451D01*
X0087536Y0148801D02*
X0087186Y0149152D01*
X0086485Y0149152D01*
X0086135Y0148801D01*
X0086135Y0147400D01*
X0086485Y0147050D01*
X0087186Y0147050D01*
X0087536Y0147400D01*
X0087186Y0141552D02*
X0086485Y0141552D01*
X0086135Y0141201D01*
X0086135Y0139800D01*
X0086485Y0139450D01*
X0087186Y0139450D01*
X0087536Y0139800D01*
X0088345Y0139450D02*
X0089746Y0139450D01*
X0089046Y0139450D02*
X0089046Y0141552D01*
X0088345Y0140851D01*
X0087536Y0141201D02*
X0087186Y0141552D01*
X0090555Y0140851D02*
X0091256Y0141552D01*
X0091256Y0139450D01*
X0091956Y0139450D02*
X0090555Y0139450D01*
X0057800Y0106606D02*
X0057800Y0105905D01*
X0057450Y0105555D01*
X0057800Y0104746D02*
X0057800Y0103345D01*
X0057800Y0104046D02*
X0055698Y0104046D01*
X0056399Y0103345D01*
X0056049Y0102536D02*
X0055698Y0102186D01*
X0055698Y0101485D01*
X0056049Y0101135D01*
X0057450Y0101135D01*
X0057800Y0101485D01*
X0057800Y0102186D01*
X0057450Y0102536D01*
X0056049Y0105555D02*
X0055698Y0105905D01*
X0055698Y0106606D01*
X0056049Y0106956D01*
X0056399Y0106956D01*
X0056749Y0106606D01*
X0057099Y0106956D01*
X0057450Y0106956D01*
X0057800Y0106606D01*
X0056749Y0106606D02*
X0056749Y0106256D01*
D15*
X0043800Y0098900D02*
X0029800Y0098900D01*
X0029800Y0124700D01*
X0043800Y0124700D01*
X0043800Y0098900D01*
X0052800Y0079702D02*
X0029200Y0079700D01*
X0052800Y0079702D02*
X0052800Y0053898D01*
X0029200Y0053900D01*
X0046938Y0152863D02*
X0046938Y0160737D01*
X0041532Y0156800D01*
X0046938Y0152863D01*
D16*
X0054700Y0066800D03*
D17*
X0058818Y0144576D02*
X0030782Y0144576D01*
X0030782Y0169024D02*
X0058818Y0169024D01*
D18*
X0038993Y0156800D03*
D19*
X0091800Y0174300D03*
X0099300Y0081800D03*
D20*
X0110894Y0137107D02*
X0122706Y0137107D01*
X0124780Y0139182D02*
X0124780Y0149418D01*
X0122706Y0151493D02*
X0110894Y0151493D01*
X0108820Y0149418D02*
X0108820Y0139182D01*
D21*
X0108800Y0137107D03*
M02*
