%
M48
M72
T01C0.0197
T02C0.0394
T03C0.0400
T04C0.0591
T05C0.1102
%
T01
X7180Y8180
X7680Y6680
X8930Y5680
X11930Y8430
X12680Y8430
X11180Y9180
X13430Y11680
X14680Y13180
X15180Y13055
X16430Y11930
X16680Y12680
X16930Y13430
X17180Y14680
X15930Y14680
X16680Y15930
X16680Y16680
X17930Y17430
X15680Y17930
X14930Y17930
X13555Y17930
X12555Y17930
X12555Y16430
X12055Y15680
X12680Y14805
X13680Y14680
X13680Y14055
X11430Y11930
X10680Y14055
X10680Y14805
X9180Y16055
X13555Y16430
X18180Y13180
X14680Y9930
X15680Y8180
X12680Y6555
X6930Y11180
X5180Y8680
X4680Y8680
X4180Y8680
X4180Y15180
X4180Y15680
X4180Y16180
T02
X7180Y2680
X8680Y2680
X10180Y2680
X11680Y2680
X13180Y2680
X14680Y2680
X17180Y20430
X15680Y20430
X14180Y20430
X12680Y20430
X11180Y20430
X9680Y20430
X8180Y20430
X6680Y20430
X5180Y20430
T03
X18180Y11680
X19180Y11680
X19180Y10680
X19180Y9680
X18180Y9680
X18180Y10680
T04
X5180Y19430
X6680Y19430
X8180Y19430
X9680Y19430
X11180Y19430
X12680Y19430
X14180Y19430
X15680Y19430
X17180Y19430
X14680Y3680
X13180Y3680
X11680Y3680
X10180Y3680
X8680Y3680
X7180Y3680
T05
X2755Y3255
X2755Y19790
X19290Y19790
X19290Y3255
M30
