G75*
%MOIN*%
%OFA0B0*%
%FSLAX25Y25*%
%IPPOS*%
%LPD*%
%AMOC8*
5,1,8,0,0,1.08239X$1,22.5*
%
%ADD10C,0.00000*%
%ADD11C,0.05937*%
%ADD12C,0.08858*%
%ADD13C,0.06600*%
%ADD14R,0.07400X0.07400*%
%ADD15OC8,0.07400*%
%ADD16R,0.04724X0.03150*%
%ADD17C,0.01600*%
%ADD18C,0.03569*%
%ADD19C,0.01200*%
%ADD20C,0.02400*%
%ADD21C,0.07000*%
%ADD22C,0.01000*%
D10*
X0011800Y0016800D02*
X0011800Y0213650D01*
X0208650Y0213650D01*
X0208650Y0016800D01*
X0011800Y0016800D01*
X0022036Y0032548D02*
X0022038Y0032696D01*
X0022044Y0032844D01*
X0022054Y0032992D01*
X0022068Y0033139D01*
X0022086Y0033286D01*
X0022107Y0033432D01*
X0022133Y0033578D01*
X0022163Y0033723D01*
X0022196Y0033867D01*
X0022234Y0034010D01*
X0022275Y0034152D01*
X0022320Y0034293D01*
X0022368Y0034433D01*
X0022421Y0034572D01*
X0022477Y0034709D01*
X0022537Y0034844D01*
X0022600Y0034978D01*
X0022667Y0035110D01*
X0022738Y0035240D01*
X0022812Y0035368D01*
X0022889Y0035494D01*
X0022970Y0035618D01*
X0023054Y0035740D01*
X0023141Y0035859D01*
X0023232Y0035976D01*
X0023326Y0036091D01*
X0023422Y0036203D01*
X0023522Y0036313D01*
X0023624Y0036419D01*
X0023730Y0036523D01*
X0023838Y0036624D01*
X0023949Y0036722D01*
X0024062Y0036818D01*
X0024178Y0036910D01*
X0024296Y0036999D01*
X0024417Y0037084D01*
X0024540Y0037167D01*
X0024665Y0037246D01*
X0024792Y0037322D01*
X0024921Y0037394D01*
X0025052Y0037463D01*
X0025185Y0037528D01*
X0025320Y0037589D01*
X0025456Y0037647D01*
X0025593Y0037702D01*
X0025732Y0037752D01*
X0025873Y0037799D01*
X0026014Y0037842D01*
X0026157Y0037882D01*
X0026301Y0037917D01*
X0026445Y0037949D01*
X0026591Y0037976D01*
X0026737Y0038000D01*
X0026884Y0038020D01*
X0027031Y0038036D01*
X0027178Y0038048D01*
X0027326Y0038056D01*
X0027474Y0038060D01*
X0027622Y0038060D01*
X0027770Y0038056D01*
X0027918Y0038048D01*
X0028065Y0038036D01*
X0028212Y0038020D01*
X0028359Y0038000D01*
X0028505Y0037976D01*
X0028651Y0037949D01*
X0028795Y0037917D01*
X0028939Y0037882D01*
X0029082Y0037842D01*
X0029223Y0037799D01*
X0029364Y0037752D01*
X0029503Y0037702D01*
X0029640Y0037647D01*
X0029776Y0037589D01*
X0029911Y0037528D01*
X0030044Y0037463D01*
X0030175Y0037394D01*
X0030304Y0037322D01*
X0030431Y0037246D01*
X0030556Y0037167D01*
X0030679Y0037084D01*
X0030800Y0036999D01*
X0030918Y0036910D01*
X0031034Y0036818D01*
X0031147Y0036722D01*
X0031258Y0036624D01*
X0031366Y0036523D01*
X0031472Y0036419D01*
X0031574Y0036313D01*
X0031674Y0036203D01*
X0031770Y0036091D01*
X0031864Y0035976D01*
X0031955Y0035859D01*
X0032042Y0035740D01*
X0032126Y0035618D01*
X0032207Y0035494D01*
X0032284Y0035368D01*
X0032358Y0035240D01*
X0032429Y0035110D01*
X0032496Y0034978D01*
X0032559Y0034844D01*
X0032619Y0034709D01*
X0032675Y0034572D01*
X0032728Y0034433D01*
X0032776Y0034293D01*
X0032821Y0034152D01*
X0032862Y0034010D01*
X0032900Y0033867D01*
X0032933Y0033723D01*
X0032963Y0033578D01*
X0032989Y0033432D01*
X0033010Y0033286D01*
X0033028Y0033139D01*
X0033042Y0032992D01*
X0033052Y0032844D01*
X0033058Y0032696D01*
X0033060Y0032548D01*
X0033058Y0032400D01*
X0033052Y0032252D01*
X0033042Y0032104D01*
X0033028Y0031957D01*
X0033010Y0031810D01*
X0032989Y0031664D01*
X0032963Y0031518D01*
X0032933Y0031373D01*
X0032900Y0031229D01*
X0032862Y0031086D01*
X0032821Y0030944D01*
X0032776Y0030803D01*
X0032728Y0030663D01*
X0032675Y0030524D01*
X0032619Y0030387D01*
X0032559Y0030252D01*
X0032496Y0030118D01*
X0032429Y0029986D01*
X0032358Y0029856D01*
X0032284Y0029728D01*
X0032207Y0029602D01*
X0032126Y0029478D01*
X0032042Y0029356D01*
X0031955Y0029237D01*
X0031864Y0029120D01*
X0031770Y0029005D01*
X0031674Y0028893D01*
X0031574Y0028783D01*
X0031472Y0028677D01*
X0031366Y0028573D01*
X0031258Y0028472D01*
X0031147Y0028374D01*
X0031034Y0028278D01*
X0030918Y0028186D01*
X0030800Y0028097D01*
X0030679Y0028012D01*
X0030556Y0027929D01*
X0030431Y0027850D01*
X0030304Y0027774D01*
X0030175Y0027702D01*
X0030044Y0027633D01*
X0029911Y0027568D01*
X0029776Y0027507D01*
X0029640Y0027449D01*
X0029503Y0027394D01*
X0029364Y0027344D01*
X0029223Y0027297D01*
X0029082Y0027254D01*
X0028939Y0027214D01*
X0028795Y0027179D01*
X0028651Y0027147D01*
X0028505Y0027120D01*
X0028359Y0027096D01*
X0028212Y0027076D01*
X0028065Y0027060D01*
X0027918Y0027048D01*
X0027770Y0027040D01*
X0027622Y0027036D01*
X0027474Y0027036D01*
X0027326Y0027040D01*
X0027178Y0027048D01*
X0027031Y0027060D01*
X0026884Y0027076D01*
X0026737Y0027096D01*
X0026591Y0027120D01*
X0026445Y0027147D01*
X0026301Y0027179D01*
X0026157Y0027214D01*
X0026014Y0027254D01*
X0025873Y0027297D01*
X0025732Y0027344D01*
X0025593Y0027394D01*
X0025456Y0027449D01*
X0025320Y0027507D01*
X0025185Y0027568D01*
X0025052Y0027633D01*
X0024921Y0027702D01*
X0024792Y0027774D01*
X0024665Y0027850D01*
X0024540Y0027929D01*
X0024417Y0028012D01*
X0024296Y0028097D01*
X0024178Y0028186D01*
X0024062Y0028278D01*
X0023949Y0028374D01*
X0023838Y0028472D01*
X0023730Y0028573D01*
X0023624Y0028677D01*
X0023522Y0028783D01*
X0023422Y0028893D01*
X0023326Y0029005D01*
X0023232Y0029120D01*
X0023141Y0029237D01*
X0023054Y0029356D01*
X0022970Y0029478D01*
X0022889Y0029602D01*
X0022812Y0029728D01*
X0022738Y0029856D01*
X0022667Y0029986D01*
X0022600Y0030118D01*
X0022537Y0030252D01*
X0022477Y0030387D01*
X0022421Y0030524D01*
X0022368Y0030663D01*
X0022320Y0030803D01*
X0022275Y0030944D01*
X0022234Y0031086D01*
X0022196Y0031229D01*
X0022163Y0031373D01*
X0022133Y0031518D01*
X0022107Y0031664D01*
X0022086Y0031810D01*
X0022068Y0031957D01*
X0022054Y0032104D01*
X0022044Y0032252D01*
X0022038Y0032400D01*
X0022036Y0032548D01*
X0022036Y0197902D02*
X0022038Y0198050D01*
X0022044Y0198198D01*
X0022054Y0198346D01*
X0022068Y0198493D01*
X0022086Y0198640D01*
X0022107Y0198786D01*
X0022133Y0198932D01*
X0022163Y0199077D01*
X0022196Y0199221D01*
X0022234Y0199364D01*
X0022275Y0199506D01*
X0022320Y0199647D01*
X0022368Y0199787D01*
X0022421Y0199926D01*
X0022477Y0200063D01*
X0022537Y0200198D01*
X0022600Y0200332D01*
X0022667Y0200464D01*
X0022738Y0200594D01*
X0022812Y0200722D01*
X0022889Y0200848D01*
X0022970Y0200972D01*
X0023054Y0201094D01*
X0023141Y0201213D01*
X0023232Y0201330D01*
X0023326Y0201445D01*
X0023422Y0201557D01*
X0023522Y0201667D01*
X0023624Y0201773D01*
X0023730Y0201877D01*
X0023838Y0201978D01*
X0023949Y0202076D01*
X0024062Y0202172D01*
X0024178Y0202264D01*
X0024296Y0202353D01*
X0024417Y0202438D01*
X0024540Y0202521D01*
X0024665Y0202600D01*
X0024792Y0202676D01*
X0024921Y0202748D01*
X0025052Y0202817D01*
X0025185Y0202882D01*
X0025320Y0202943D01*
X0025456Y0203001D01*
X0025593Y0203056D01*
X0025732Y0203106D01*
X0025873Y0203153D01*
X0026014Y0203196D01*
X0026157Y0203236D01*
X0026301Y0203271D01*
X0026445Y0203303D01*
X0026591Y0203330D01*
X0026737Y0203354D01*
X0026884Y0203374D01*
X0027031Y0203390D01*
X0027178Y0203402D01*
X0027326Y0203410D01*
X0027474Y0203414D01*
X0027622Y0203414D01*
X0027770Y0203410D01*
X0027918Y0203402D01*
X0028065Y0203390D01*
X0028212Y0203374D01*
X0028359Y0203354D01*
X0028505Y0203330D01*
X0028651Y0203303D01*
X0028795Y0203271D01*
X0028939Y0203236D01*
X0029082Y0203196D01*
X0029223Y0203153D01*
X0029364Y0203106D01*
X0029503Y0203056D01*
X0029640Y0203001D01*
X0029776Y0202943D01*
X0029911Y0202882D01*
X0030044Y0202817D01*
X0030175Y0202748D01*
X0030304Y0202676D01*
X0030431Y0202600D01*
X0030556Y0202521D01*
X0030679Y0202438D01*
X0030800Y0202353D01*
X0030918Y0202264D01*
X0031034Y0202172D01*
X0031147Y0202076D01*
X0031258Y0201978D01*
X0031366Y0201877D01*
X0031472Y0201773D01*
X0031574Y0201667D01*
X0031674Y0201557D01*
X0031770Y0201445D01*
X0031864Y0201330D01*
X0031955Y0201213D01*
X0032042Y0201094D01*
X0032126Y0200972D01*
X0032207Y0200848D01*
X0032284Y0200722D01*
X0032358Y0200594D01*
X0032429Y0200464D01*
X0032496Y0200332D01*
X0032559Y0200198D01*
X0032619Y0200063D01*
X0032675Y0199926D01*
X0032728Y0199787D01*
X0032776Y0199647D01*
X0032821Y0199506D01*
X0032862Y0199364D01*
X0032900Y0199221D01*
X0032933Y0199077D01*
X0032963Y0198932D01*
X0032989Y0198786D01*
X0033010Y0198640D01*
X0033028Y0198493D01*
X0033042Y0198346D01*
X0033052Y0198198D01*
X0033058Y0198050D01*
X0033060Y0197902D01*
X0033058Y0197754D01*
X0033052Y0197606D01*
X0033042Y0197458D01*
X0033028Y0197311D01*
X0033010Y0197164D01*
X0032989Y0197018D01*
X0032963Y0196872D01*
X0032933Y0196727D01*
X0032900Y0196583D01*
X0032862Y0196440D01*
X0032821Y0196298D01*
X0032776Y0196157D01*
X0032728Y0196017D01*
X0032675Y0195878D01*
X0032619Y0195741D01*
X0032559Y0195606D01*
X0032496Y0195472D01*
X0032429Y0195340D01*
X0032358Y0195210D01*
X0032284Y0195082D01*
X0032207Y0194956D01*
X0032126Y0194832D01*
X0032042Y0194710D01*
X0031955Y0194591D01*
X0031864Y0194474D01*
X0031770Y0194359D01*
X0031674Y0194247D01*
X0031574Y0194137D01*
X0031472Y0194031D01*
X0031366Y0193927D01*
X0031258Y0193826D01*
X0031147Y0193728D01*
X0031034Y0193632D01*
X0030918Y0193540D01*
X0030800Y0193451D01*
X0030679Y0193366D01*
X0030556Y0193283D01*
X0030431Y0193204D01*
X0030304Y0193128D01*
X0030175Y0193056D01*
X0030044Y0192987D01*
X0029911Y0192922D01*
X0029776Y0192861D01*
X0029640Y0192803D01*
X0029503Y0192748D01*
X0029364Y0192698D01*
X0029223Y0192651D01*
X0029082Y0192608D01*
X0028939Y0192568D01*
X0028795Y0192533D01*
X0028651Y0192501D01*
X0028505Y0192474D01*
X0028359Y0192450D01*
X0028212Y0192430D01*
X0028065Y0192414D01*
X0027918Y0192402D01*
X0027770Y0192394D01*
X0027622Y0192390D01*
X0027474Y0192390D01*
X0027326Y0192394D01*
X0027178Y0192402D01*
X0027031Y0192414D01*
X0026884Y0192430D01*
X0026737Y0192450D01*
X0026591Y0192474D01*
X0026445Y0192501D01*
X0026301Y0192533D01*
X0026157Y0192568D01*
X0026014Y0192608D01*
X0025873Y0192651D01*
X0025732Y0192698D01*
X0025593Y0192748D01*
X0025456Y0192803D01*
X0025320Y0192861D01*
X0025185Y0192922D01*
X0025052Y0192987D01*
X0024921Y0193056D01*
X0024792Y0193128D01*
X0024665Y0193204D01*
X0024540Y0193283D01*
X0024417Y0193366D01*
X0024296Y0193451D01*
X0024178Y0193540D01*
X0024062Y0193632D01*
X0023949Y0193728D01*
X0023838Y0193826D01*
X0023730Y0193927D01*
X0023624Y0194031D01*
X0023522Y0194137D01*
X0023422Y0194247D01*
X0023326Y0194359D01*
X0023232Y0194474D01*
X0023141Y0194591D01*
X0023054Y0194710D01*
X0022970Y0194832D01*
X0022889Y0194956D01*
X0022812Y0195082D01*
X0022738Y0195210D01*
X0022667Y0195340D01*
X0022600Y0195472D01*
X0022537Y0195606D01*
X0022477Y0195741D01*
X0022421Y0195878D01*
X0022368Y0196017D01*
X0022320Y0196157D01*
X0022275Y0196298D01*
X0022234Y0196440D01*
X0022196Y0196583D01*
X0022163Y0196727D01*
X0022133Y0196872D01*
X0022107Y0197018D01*
X0022086Y0197164D01*
X0022068Y0197311D01*
X0022054Y0197458D01*
X0022044Y0197606D01*
X0022038Y0197754D01*
X0022036Y0197902D01*
X0187390Y0197902D02*
X0187392Y0198050D01*
X0187398Y0198198D01*
X0187408Y0198346D01*
X0187422Y0198493D01*
X0187440Y0198640D01*
X0187461Y0198786D01*
X0187487Y0198932D01*
X0187517Y0199077D01*
X0187550Y0199221D01*
X0187588Y0199364D01*
X0187629Y0199506D01*
X0187674Y0199647D01*
X0187722Y0199787D01*
X0187775Y0199926D01*
X0187831Y0200063D01*
X0187891Y0200198D01*
X0187954Y0200332D01*
X0188021Y0200464D01*
X0188092Y0200594D01*
X0188166Y0200722D01*
X0188243Y0200848D01*
X0188324Y0200972D01*
X0188408Y0201094D01*
X0188495Y0201213D01*
X0188586Y0201330D01*
X0188680Y0201445D01*
X0188776Y0201557D01*
X0188876Y0201667D01*
X0188978Y0201773D01*
X0189084Y0201877D01*
X0189192Y0201978D01*
X0189303Y0202076D01*
X0189416Y0202172D01*
X0189532Y0202264D01*
X0189650Y0202353D01*
X0189771Y0202438D01*
X0189894Y0202521D01*
X0190019Y0202600D01*
X0190146Y0202676D01*
X0190275Y0202748D01*
X0190406Y0202817D01*
X0190539Y0202882D01*
X0190674Y0202943D01*
X0190810Y0203001D01*
X0190947Y0203056D01*
X0191086Y0203106D01*
X0191227Y0203153D01*
X0191368Y0203196D01*
X0191511Y0203236D01*
X0191655Y0203271D01*
X0191799Y0203303D01*
X0191945Y0203330D01*
X0192091Y0203354D01*
X0192238Y0203374D01*
X0192385Y0203390D01*
X0192532Y0203402D01*
X0192680Y0203410D01*
X0192828Y0203414D01*
X0192976Y0203414D01*
X0193124Y0203410D01*
X0193272Y0203402D01*
X0193419Y0203390D01*
X0193566Y0203374D01*
X0193713Y0203354D01*
X0193859Y0203330D01*
X0194005Y0203303D01*
X0194149Y0203271D01*
X0194293Y0203236D01*
X0194436Y0203196D01*
X0194577Y0203153D01*
X0194718Y0203106D01*
X0194857Y0203056D01*
X0194994Y0203001D01*
X0195130Y0202943D01*
X0195265Y0202882D01*
X0195398Y0202817D01*
X0195529Y0202748D01*
X0195658Y0202676D01*
X0195785Y0202600D01*
X0195910Y0202521D01*
X0196033Y0202438D01*
X0196154Y0202353D01*
X0196272Y0202264D01*
X0196388Y0202172D01*
X0196501Y0202076D01*
X0196612Y0201978D01*
X0196720Y0201877D01*
X0196826Y0201773D01*
X0196928Y0201667D01*
X0197028Y0201557D01*
X0197124Y0201445D01*
X0197218Y0201330D01*
X0197309Y0201213D01*
X0197396Y0201094D01*
X0197480Y0200972D01*
X0197561Y0200848D01*
X0197638Y0200722D01*
X0197712Y0200594D01*
X0197783Y0200464D01*
X0197850Y0200332D01*
X0197913Y0200198D01*
X0197973Y0200063D01*
X0198029Y0199926D01*
X0198082Y0199787D01*
X0198130Y0199647D01*
X0198175Y0199506D01*
X0198216Y0199364D01*
X0198254Y0199221D01*
X0198287Y0199077D01*
X0198317Y0198932D01*
X0198343Y0198786D01*
X0198364Y0198640D01*
X0198382Y0198493D01*
X0198396Y0198346D01*
X0198406Y0198198D01*
X0198412Y0198050D01*
X0198414Y0197902D01*
X0198412Y0197754D01*
X0198406Y0197606D01*
X0198396Y0197458D01*
X0198382Y0197311D01*
X0198364Y0197164D01*
X0198343Y0197018D01*
X0198317Y0196872D01*
X0198287Y0196727D01*
X0198254Y0196583D01*
X0198216Y0196440D01*
X0198175Y0196298D01*
X0198130Y0196157D01*
X0198082Y0196017D01*
X0198029Y0195878D01*
X0197973Y0195741D01*
X0197913Y0195606D01*
X0197850Y0195472D01*
X0197783Y0195340D01*
X0197712Y0195210D01*
X0197638Y0195082D01*
X0197561Y0194956D01*
X0197480Y0194832D01*
X0197396Y0194710D01*
X0197309Y0194591D01*
X0197218Y0194474D01*
X0197124Y0194359D01*
X0197028Y0194247D01*
X0196928Y0194137D01*
X0196826Y0194031D01*
X0196720Y0193927D01*
X0196612Y0193826D01*
X0196501Y0193728D01*
X0196388Y0193632D01*
X0196272Y0193540D01*
X0196154Y0193451D01*
X0196033Y0193366D01*
X0195910Y0193283D01*
X0195785Y0193204D01*
X0195658Y0193128D01*
X0195529Y0193056D01*
X0195398Y0192987D01*
X0195265Y0192922D01*
X0195130Y0192861D01*
X0194994Y0192803D01*
X0194857Y0192748D01*
X0194718Y0192698D01*
X0194577Y0192651D01*
X0194436Y0192608D01*
X0194293Y0192568D01*
X0194149Y0192533D01*
X0194005Y0192501D01*
X0193859Y0192474D01*
X0193713Y0192450D01*
X0193566Y0192430D01*
X0193419Y0192414D01*
X0193272Y0192402D01*
X0193124Y0192394D01*
X0192976Y0192390D01*
X0192828Y0192390D01*
X0192680Y0192394D01*
X0192532Y0192402D01*
X0192385Y0192414D01*
X0192238Y0192430D01*
X0192091Y0192450D01*
X0191945Y0192474D01*
X0191799Y0192501D01*
X0191655Y0192533D01*
X0191511Y0192568D01*
X0191368Y0192608D01*
X0191227Y0192651D01*
X0191086Y0192698D01*
X0190947Y0192748D01*
X0190810Y0192803D01*
X0190674Y0192861D01*
X0190539Y0192922D01*
X0190406Y0192987D01*
X0190275Y0193056D01*
X0190146Y0193128D01*
X0190019Y0193204D01*
X0189894Y0193283D01*
X0189771Y0193366D01*
X0189650Y0193451D01*
X0189532Y0193540D01*
X0189416Y0193632D01*
X0189303Y0193728D01*
X0189192Y0193826D01*
X0189084Y0193927D01*
X0188978Y0194031D01*
X0188876Y0194137D01*
X0188776Y0194247D01*
X0188680Y0194359D01*
X0188586Y0194474D01*
X0188495Y0194591D01*
X0188408Y0194710D01*
X0188324Y0194832D01*
X0188243Y0194956D01*
X0188166Y0195082D01*
X0188092Y0195210D01*
X0188021Y0195340D01*
X0187954Y0195472D01*
X0187891Y0195606D01*
X0187831Y0195741D01*
X0187775Y0195878D01*
X0187722Y0196017D01*
X0187674Y0196157D01*
X0187629Y0196298D01*
X0187588Y0196440D01*
X0187550Y0196583D01*
X0187517Y0196727D01*
X0187487Y0196872D01*
X0187461Y0197018D01*
X0187440Y0197164D01*
X0187422Y0197311D01*
X0187408Y0197458D01*
X0187398Y0197606D01*
X0187392Y0197754D01*
X0187390Y0197902D01*
X0187390Y0032548D02*
X0187392Y0032696D01*
X0187398Y0032844D01*
X0187408Y0032992D01*
X0187422Y0033139D01*
X0187440Y0033286D01*
X0187461Y0033432D01*
X0187487Y0033578D01*
X0187517Y0033723D01*
X0187550Y0033867D01*
X0187588Y0034010D01*
X0187629Y0034152D01*
X0187674Y0034293D01*
X0187722Y0034433D01*
X0187775Y0034572D01*
X0187831Y0034709D01*
X0187891Y0034844D01*
X0187954Y0034978D01*
X0188021Y0035110D01*
X0188092Y0035240D01*
X0188166Y0035368D01*
X0188243Y0035494D01*
X0188324Y0035618D01*
X0188408Y0035740D01*
X0188495Y0035859D01*
X0188586Y0035976D01*
X0188680Y0036091D01*
X0188776Y0036203D01*
X0188876Y0036313D01*
X0188978Y0036419D01*
X0189084Y0036523D01*
X0189192Y0036624D01*
X0189303Y0036722D01*
X0189416Y0036818D01*
X0189532Y0036910D01*
X0189650Y0036999D01*
X0189771Y0037084D01*
X0189894Y0037167D01*
X0190019Y0037246D01*
X0190146Y0037322D01*
X0190275Y0037394D01*
X0190406Y0037463D01*
X0190539Y0037528D01*
X0190674Y0037589D01*
X0190810Y0037647D01*
X0190947Y0037702D01*
X0191086Y0037752D01*
X0191227Y0037799D01*
X0191368Y0037842D01*
X0191511Y0037882D01*
X0191655Y0037917D01*
X0191799Y0037949D01*
X0191945Y0037976D01*
X0192091Y0038000D01*
X0192238Y0038020D01*
X0192385Y0038036D01*
X0192532Y0038048D01*
X0192680Y0038056D01*
X0192828Y0038060D01*
X0192976Y0038060D01*
X0193124Y0038056D01*
X0193272Y0038048D01*
X0193419Y0038036D01*
X0193566Y0038020D01*
X0193713Y0038000D01*
X0193859Y0037976D01*
X0194005Y0037949D01*
X0194149Y0037917D01*
X0194293Y0037882D01*
X0194436Y0037842D01*
X0194577Y0037799D01*
X0194718Y0037752D01*
X0194857Y0037702D01*
X0194994Y0037647D01*
X0195130Y0037589D01*
X0195265Y0037528D01*
X0195398Y0037463D01*
X0195529Y0037394D01*
X0195658Y0037322D01*
X0195785Y0037246D01*
X0195910Y0037167D01*
X0196033Y0037084D01*
X0196154Y0036999D01*
X0196272Y0036910D01*
X0196388Y0036818D01*
X0196501Y0036722D01*
X0196612Y0036624D01*
X0196720Y0036523D01*
X0196826Y0036419D01*
X0196928Y0036313D01*
X0197028Y0036203D01*
X0197124Y0036091D01*
X0197218Y0035976D01*
X0197309Y0035859D01*
X0197396Y0035740D01*
X0197480Y0035618D01*
X0197561Y0035494D01*
X0197638Y0035368D01*
X0197712Y0035240D01*
X0197783Y0035110D01*
X0197850Y0034978D01*
X0197913Y0034844D01*
X0197973Y0034709D01*
X0198029Y0034572D01*
X0198082Y0034433D01*
X0198130Y0034293D01*
X0198175Y0034152D01*
X0198216Y0034010D01*
X0198254Y0033867D01*
X0198287Y0033723D01*
X0198317Y0033578D01*
X0198343Y0033432D01*
X0198364Y0033286D01*
X0198382Y0033139D01*
X0198396Y0032992D01*
X0198406Y0032844D01*
X0198412Y0032696D01*
X0198414Y0032548D01*
X0198412Y0032400D01*
X0198406Y0032252D01*
X0198396Y0032104D01*
X0198382Y0031957D01*
X0198364Y0031810D01*
X0198343Y0031664D01*
X0198317Y0031518D01*
X0198287Y0031373D01*
X0198254Y0031229D01*
X0198216Y0031086D01*
X0198175Y0030944D01*
X0198130Y0030803D01*
X0198082Y0030663D01*
X0198029Y0030524D01*
X0197973Y0030387D01*
X0197913Y0030252D01*
X0197850Y0030118D01*
X0197783Y0029986D01*
X0197712Y0029856D01*
X0197638Y0029728D01*
X0197561Y0029602D01*
X0197480Y0029478D01*
X0197396Y0029356D01*
X0197309Y0029237D01*
X0197218Y0029120D01*
X0197124Y0029005D01*
X0197028Y0028893D01*
X0196928Y0028783D01*
X0196826Y0028677D01*
X0196720Y0028573D01*
X0196612Y0028472D01*
X0196501Y0028374D01*
X0196388Y0028278D01*
X0196272Y0028186D01*
X0196154Y0028097D01*
X0196033Y0028012D01*
X0195910Y0027929D01*
X0195785Y0027850D01*
X0195658Y0027774D01*
X0195529Y0027702D01*
X0195398Y0027633D01*
X0195265Y0027568D01*
X0195130Y0027507D01*
X0194994Y0027449D01*
X0194857Y0027394D01*
X0194718Y0027344D01*
X0194577Y0027297D01*
X0194436Y0027254D01*
X0194293Y0027214D01*
X0194149Y0027179D01*
X0194005Y0027147D01*
X0193859Y0027120D01*
X0193713Y0027096D01*
X0193566Y0027076D01*
X0193419Y0027060D01*
X0193272Y0027048D01*
X0193124Y0027040D01*
X0192976Y0027036D01*
X0192828Y0027036D01*
X0192680Y0027040D01*
X0192532Y0027048D01*
X0192385Y0027060D01*
X0192238Y0027076D01*
X0192091Y0027096D01*
X0191945Y0027120D01*
X0191799Y0027147D01*
X0191655Y0027179D01*
X0191511Y0027214D01*
X0191368Y0027254D01*
X0191227Y0027297D01*
X0191086Y0027344D01*
X0190947Y0027394D01*
X0190810Y0027449D01*
X0190674Y0027507D01*
X0190539Y0027568D01*
X0190406Y0027633D01*
X0190275Y0027702D01*
X0190146Y0027774D01*
X0190019Y0027850D01*
X0189894Y0027929D01*
X0189771Y0028012D01*
X0189650Y0028097D01*
X0189532Y0028186D01*
X0189416Y0028278D01*
X0189303Y0028374D01*
X0189192Y0028472D01*
X0189084Y0028573D01*
X0188978Y0028677D01*
X0188876Y0028783D01*
X0188776Y0028893D01*
X0188680Y0029005D01*
X0188586Y0029120D01*
X0188495Y0029237D01*
X0188408Y0029356D01*
X0188324Y0029478D01*
X0188243Y0029602D01*
X0188166Y0029728D01*
X0188092Y0029856D01*
X0188021Y0029986D01*
X0187954Y0030118D01*
X0187891Y0030252D01*
X0187831Y0030387D01*
X0187775Y0030524D01*
X0187722Y0030663D01*
X0187674Y0030803D01*
X0187629Y0030944D01*
X0187588Y0031086D01*
X0187550Y0031229D01*
X0187517Y0031373D01*
X0187487Y0031518D01*
X0187461Y0031664D01*
X0187440Y0031810D01*
X0187422Y0031957D01*
X0187408Y0032104D01*
X0187398Y0032252D01*
X0187392Y0032400D01*
X0187390Y0032548D01*
D11*
X0146800Y0026800D03*
X0131800Y0026800D03*
X0116800Y0026800D03*
X0101800Y0026800D03*
X0086800Y0026800D03*
X0071800Y0026800D03*
X0066800Y0204300D03*
X0051800Y0204300D03*
X0081800Y0204300D03*
X0096800Y0204300D03*
X0111800Y0204300D03*
X0126800Y0204300D03*
X0141800Y0204300D03*
X0156800Y0204300D03*
X0171800Y0204300D03*
D12*
X0171800Y0194300D03*
X0156800Y0194300D03*
X0141800Y0194300D03*
X0126800Y0194300D03*
X0111800Y0194300D03*
X0096800Y0194300D03*
X0081800Y0194300D03*
X0066800Y0194300D03*
X0051800Y0194300D03*
X0071800Y0036800D03*
X0086800Y0036800D03*
X0101800Y0036800D03*
X0116800Y0036800D03*
X0131800Y0036800D03*
X0146800Y0036800D03*
D13*
X0146800Y0026800D01*
X0131800Y0026800D02*
X0131800Y0036800D01*
X0116800Y0036800D02*
X0116800Y0026800D01*
X0101800Y0026800D02*
X0101800Y0036800D01*
X0086800Y0036800D02*
X0086800Y0026800D01*
X0071800Y0026800D02*
X0071800Y0036800D01*
X0076800Y0046800D02*
X0056800Y0046800D01*
X0026800Y0076800D01*
X0026800Y0136800D01*
X0041800Y0151800D01*
X0041800Y0156800D01*
X0041800Y0161800D01*
X0051800Y0194300D02*
X0051800Y0204300D01*
X0066800Y0204300D02*
X0066800Y0194300D01*
X0081800Y0194300D02*
X0081800Y0204300D01*
X0096800Y0204300D02*
X0096800Y0194300D01*
X0111800Y0194300D02*
X0111800Y0204300D01*
X0126800Y0204300D02*
X0126800Y0194300D01*
X0141800Y0194300D02*
X0141800Y0204300D01*
X0156800Y0204300D02*
X0156800Y0194300D01*
X0171800Y0194300D02*
X0171800Y0204300D01*
D14*
X0181800Y0116800D03*
D15*
X0191800Y0116800D03*
X0191800Y0106800D03*
X0191800Y0096800D03*
X0181800Y0096800D03*
X0181800Y0106800D03*
D16*
X0101800Y0055343D03*
X0101800Y0048257D03*
D17*
X0106162Y0048770D02*
X0144200Y0048770D01*
X0144200Y0047172D02*
X0106162Y0047172D01*
X0106162Y0045853D02*
X0106162Y0050660D01*
X0105022Y0051800D01*
X0106162Y0052940D01*
X0106162Y0057747D01*
X0104991Y0058918D01*
X0098609Y0058918D01*
X0097859Y0058168D01*
X0094004Y0062023D01*
X0093273Y0062754D01*
X0092317Y0063150D01*
X0086283Y0063150D01*
X0085327Y0062754D01*
X0084473Y0061900D01*
X0071627Y0061900D01*
X0068150Y0065377D01*
X0068150Y0080723D01*
X0068592Y0079656D01*
X0069656Y0078592D01*
X0071047Y0078016D01*
X0072553Y0078016D01*
X0073944Y0078592D01*
X0075008Y0079656D01*
X0075584Y0081047D01*
X0075584Y0081700D01*
X0088023Y0081700D01*
X0076907Y0070584D01*
X0076047Y0070584D01*
X0074656Y0070008D01*
X0073592Y0068944D01*
X0073016Y0067553D01*
X0073016Y0066047D01*
X0073592Y0064656D01*
X0074656Y0063592D01*
X0076047Y0063016D01*
X0077553Y0063016D01*
X0078944Y0063592D01*
X0080008Y0064656D01*
X0080584Y0066047D01*
X0080584Y0066907D01*
X0092877Y0079200D01*
X0113223Y0079200D01*
X0115327Y0077096D01*
X0116283Y0076700D01*
X0122317Y0076700D01*
X0123273Y0077096D01*
X0124004Y0077827D01*
X0126693Y0080516D01*
X0127553Y0080516D01*
X0128944Y0081092D01*
X0130008Y0082156D01*
X0130584Y0083547D01*
X0130584Y0085053D01*
X0130008Y0086444D01*
X0128944Y0087508D01*
X0127553Y0088084D01*
X0126047Y0088084D01*
X0124656Y0087508D01*
X0123592Y0086444D01*
X0123050Y0085135D01*
X0122508Y0086444D01*
X0121958Y0086993D01*
X0134200Y0098678D01*
X0134200Y0082877D01*
X0124596Y0073273D01*
X0124200Y0072317D01*
X0124200Y0068302D01*
X0123592Y0067694D01*
X0123016Y0066303D01*
X0123016Y0064797D01*
X0123592Y0063406D01*
X0124656Y0062342D01*
X0126047Y0061766D01*
X0127553Y0061766D01*
X0128944Y0062342D01*
X0130008Y0063406D01*
X0130584Y0064797D01*
X0130584Y0066303D01*
X0130008Y0067694D01*
X0129400Y0068302D01*
X0129400Y0070723D01*
X0138273Y0079596D01*
X0139004Y0080327D01*
X0139400Y0081283D01*
X0139400Y0099473D01*
X0153273Y0113346D01*
X0154004Y0114077D01*
X0154200Y0114550D01*
X0154200Y0084552D01*
X0153592Y0083944D01*
X0153016Y0082553D01*
X0153016Y0081047D01*
X0153592Y0079656D01*
X0154656Y0078592D01*
X0156047Y0078016D01*
X0157553Y0078016D01*
X0158944Y0078592D01*
X0160008Y0079656D01*
X0160584Y0081047D01*
X0160584Y0082553D01*
X0160008Y0083944D01*
X0159400Y0084552D01*
X0159400Y0135723D01*
X0168516Y0144839D01*
X0168592Y0144656D01*
X0169656Y0143592D01*
X0171047Y0143016D01*
X0171059Y0143016D01*
X0178600Y0135475D01*
X0178600Y0133952D01*
X0178592Y0133944D01*
X0178016Y0132553D01*
X0178016Y0131047D01*
X0178592Y0129656D01*
X0178948Y0129300D01*
X0177836Y0129300D01*
X0173084Y0134051D01*
X0173084Y0135053D01*
X0172508Y0136444D01*
X0171444Y0137508D01*
X0170053Y0138084D01*
X0168547Y0138084D01*
X0167156Y0137508D01*
X0166092Y0136444D01*
X0165516Y0135053D01*
X0165516Y0133547D01*
X0166092Y0132156D01*
X0167156Y0131092D01*
X0168547Y0130516D01*
X0169549Y0130516D01*
X0175384Y0124681D01*
X0176303Y0124300D01*
X0184300Y0124300D01*
X0184300Y0122500D01*
X0177272Y0122500D01*
X0176100Y0121328D01*
X0176100Y0121036D01*
X0170584Y0126551D01*
X0170584Y0127553D01*
X0170008Y0128944D01*
X0168944Y0130008D01*
X0167553Y0130584D01*
X0166047Y0130584D01*
X0164656Y0130008D01*
X0163592Y0128944D01*
X0163016Y0127553D01*
X0163016Y0126047D01*
X0163592Y0124656D01*
X0164656Y0123592D01*
X0166047Y0123016D01*
X0167049Y0123016D01*
X0175384Y0114681D01*
X0176100Y0114384D01*
X0176100Y0114300D01*
X0172836Y0114300D01*
X0168084Y0119051D01*
X0168084Y0120053D01*
X0167508Y0121444D01*
X0166444Y0122508D01*
X0165053Y0123084D01*
X0163547Y0123084D01*
X0162156Y0122508D01*
X0161092Y0121444D01*
X0160516Y0120053D01*
X0160516Y0118547D01*
X0161092Y0117156D01*
X0162156Y0116092D01*
X0163547Y0115516D01*
X0164549Y0115516D01*
X0170384Y0109681D01*
X0171303Y0109300D01*
X0175764Y0109300D01*
X0176100Y0108964D01*
X0176100Y0104439D01*
X0178739Y0101800D01*
X0176100Y0099161D01*
X0176100Y0094439D01*
X0179439Y0091100D01*
X0184161Y0091100D01*
X0186941Y0093880D01*
X0189522Y0091300D01*
X0191600Y0091300D01*
X0191600Y0096600D01*
X0192000Y0096600D01*
X0192000Y0097000D01*
X0197300Y0097000D01*
X0197300Y0099078D01*
X0197178Y0099200D01*
X0197317Y0099200D01*
X0198273Y0099596D01*
X0200773Y0102096D01*
X0201504Y0102827D01*
X0201900Y0103783D01*
X0201900Y0154817D01*
X0201504Y0155773D01*
X0183084Y0174193D01*
X0183084Y0175053D01*
X0182508Y0176444D01*
X0181444Y0177508D01*
X0180053Y0178084D01*
X0178547Y0178084D01*
X0177156Y0177508D01*
X0176092Y0176444D01*
X0175516Y0175053D01*
X0175516Y0173547D01*
X0176092Y0172156D01*
X0177156Y0171092D01*
X0178547Y0170516D01*
X0179407Y0170516D01*
X0196700Y0153223D01*
X0196700Y0119961D01*
X0194161Y0122500D01*
X0189439Y0122500D01*
X0189300Y0122361D01*
X0189300Y0127297D01*
X0188919Y0128216D01*
X0188216Y0128919D01*
X0187297Y0129300D01*
X0184652Y0129300D01*
X0185008Y0129656D01*
X0185584Y0131047D01*
X0185584Y0132553D01*
X0185008Y0133944D01*
X0185000Y0133952D01*
X0185000Y0137437D01*
X0184513Y0138613D01*
X0175584Y0147541D01*
X0175584Y0147553D01*
X0175008Y0148944D01*
X0173944Y0150008D01*
X0172553Y0150584D01*
X0171047Y0150584D01*
X0169656Y0150008D01*
X0169400Y0149752D01*
X0169400Y0156548D01*
X0170008Y0157156D01*
X0170584Y0158547D01*
X0170584Y0160053D01*
X0170008Y0161444D01*
X0168944Y0162508D01*
X0167635Y0163050D01*
X0168944Y0163592D01*
X0170008Y0164656D01*
X0170584Y0166047D01*
X0170584Y0167553D01*
X0170008Y0168944D01*
X0168944Y0170008D01*
X0167553Y0170584D01*
X0166047Y0170584D01*
X0164656Y0170008D01*
X0163592Y0168944D01*
X0163016Y0167553D01*
X0163016Y0166693D01*
X0159473Y0163150D01*
X0144327Y0163150D01*
X0156693Y0175516D01*
X0157553Y0175516D01*
X0158944Y0176092D01*
X0160008Y0177156D01*
X0160584Y0178547D01*
X0160584Y0180053D01*
X0160008Y0181444D01*
X0158944Y0182508D01*
X0157553Y0183084D01*
X0156047Y0183084D01*
X0154656Y0182508D01*
X0153592Y0181444D01*
X0153050Y0180135D01*
X0152508Y0181444D01*
X0151444Y0182508D01*
X0150053Y0183084D01*
X0149261Y0183084D01*
X0154479Y0188302D01*
X0155521Y0187871D01*
X0158079Y0187871D01*
X0160442Y0188850D01*
X0162250Y0190658D01*
X0163229Y0193021D01*
X0163229Y0195579D01*
X0162250Y0197942D01*
X0162100Y0198092D01*
X0162100Y0205354D01*
X0161293Y0207302D01*
X0159802Y0208793D01*
X0157854Y0209600D01*
X0155746Y0209600D01*
X0153798Y0208793D01*
X0152307Y0207302D01*
X0151500Y0205354D01*
X0151500Y0198092D01*
X0151350Y0197942D01*
X0150371Y0195579D01*
X0150371Y0193021D01*
X0150802Y0191979D01*
X0140723Y0181900D01*
X0138302Y0181900D01*
X0137694Y0182508D01*
X0136303Y0183084D01*
X0134797Y0183084D01*
X0133882Y0182705D01*
X0139479Y0188302D01*
X0140521Y0187871D01*
X0143079Y0187871D01*
X0145442Y0188850D01*
X0147250Y0190658D01*
X0148229Y0193021D01*
X0148229Y0195579D01*
X0147250Y0197942D01*
X0147100Y0198092D01*
X0147100Y0205354D01*
X0146293Y0207302D01*
X0144802Y0208793D01*
X0142854Y0209600D01*
X0140746Y0209600D01*
X0138798Y0208793D01*
X0137307Y0207302D01*
X0136500Y0205354D01*
X0136500Y0198092D01*
X0136350Y0197942D01*
X0135371Y0195579D01*
X0135371Y0193021D01*
X0135802Y0191979D01*
X0126730Y0182907D01*
X0126303Y0183084D01*
X0124797Y0183084D01*
X0123406Y0182508D01*
X0122342Y0181444D01*
X0121766Y0180053D01*
X0121766Y0178547D01*
X0122342Y0177156D01*
X0123406Y0176092D01*
X0124797Y0175516D01*
X0126303Y0175516D01*
X0127694Y0176092D01*
X0128758Y0177156D01*
X0129059Y0177882D01*
X0132145Y0180968D01*
X0131766Y0180053D01*
X0131766Y0178547D01*
X0132342Y0177156D01*
X0133406Y0176092D01*
X0134797Y0175516D01*
X0136303Y0175516D01*
X0137694Y0176092D01*
X0138302Y0176700D01*
X0142317Y0176700D01*
X0143273Y0177096D01*
X0145516Y0179339D01*
X0145516Y0178547D01*
X0146092Y0177156D01*
X0146661Y0176588D01*
X0140723Y0170650D01*
X0128783Y0170650D01*
X0127827Y0170254D01*
X0125657Y0168084D01*
X0124797Y0168084D01*
X0123406Y0167508D01*
X0122342Y0166444D01*
X0121766Y0165053D01*
X0121766Y0163547D01*
X0121930Y0163150D01*
X0094552Y0163150D01*
X0093944Y0163758D01*
X0092553Y0164334D01*
X0091047Y0164334D01*
X0089656Y0163758D01*
X0088592Y0162694D01*
X0088016Y0161303D01*
X0088016Y0159797D01*
X0088592Y0158406D01*
X0089200Y0157798D01*
X0089200Y0132533D01*
X0089596Y0131577D01*
X0103346Y0117827D01*
X0104077Y0117096D01*
X0105033Y0116700D01*
X0111548Y0116700D01*
X0112156Y0116092D01*
X0113547Y0115516D01*
X0115053Y0115516D01*
X0116444Y0116092D01*
X0117508Y0117156D01*
X0118084Y0118547D01*
X0118084Y0120053D01*
X0117508Y0121444D01*
X0116444Y0122508D01*
X0115053Y0123084D01*
X0113547Y0123084D01*
X0112156Y0122508D01*
X0111548Y0121900D01*
X0106627Y0121900D01*
X0094400Y0134127D01*
X0094400Y0157798D01*
X0094552Y0157950D01*
X0116930Y0157950D01*
X0116766Y0157553D01*
X0116766Y0156047D01*
X0117342Y0154656D01*
X0118406Y0153592D01*
X0119797Y0153016D01*
X0121303Y0153016D01*
X0122694Y0153592D01*
X0123302Y0154200D01*
X0148223Y0154200D01*
X0155516Y0146907D01*
X0155516Y0146047D01*
X0156092Y0144656D01*
X0157156Y0143592D01*
X0158547Y0143016D01*
X0159339Y0143016D01*
X0155327Y0139004D01*
X0154596Y0138273D01*
X0154200Y0137317D01*
X0154200Y0133502D01*
X0153944Y0133758D01*
X0152553Y0134334D01*
X0151047Y0134334D01*
X0150022Y0133910D01*
X0150008Y0133944D01*
X0148944Y0135008D01*
X0147553Y0135584D01*
X0146047Y0135584D01*
X0144656Y0135008D01*
X0143592Y0133944D01*
X0143016Y0132553D01*
X0143016Y0131047D01*
X0143592Y0129656D01*
X0144200Y0129048D01*
X0144200Y0115413D01*
X0117856Y0090266D01*
X0117827Y0090254D01*
X0117483Y0089910D01*
X0117131Y0089574D01*
X0117118Y0089545D01*
X0117096Y0089523D01*
X0116910Y0089073D01*
X0116713Y0088627D01*
X0116712Y0088596D01*
X0116700Y0088567D01*
X0116700Y0088080D01*
X0116689Y0087593D01*
X0116700Y0087564D01*
X0116700Y0087052D01*
X0116548Y0086900D01*
X0073783Y0086900D01*
X0072827Y0086504D01*
X0071907Y0085584D01*
X0071047Y0085584D01*
X0069656Y0085008D01*
X0068592Y0083944D01*
X0068150Y0082877D01*
X0068150Y0106973D01*
X0069193Y0108016D01*
X0070053Y0108016D01*
X0071444Y0108592D01*
X0071452Y0108600D01*
X0129937Y0108600D01*
X0131113Y0109087D01*
X0132013Y0109987D01*
X0132013Y0109987D01*
X0135041Y0113016D01*
X0135053Y0113016D01*
X0136444Y0113592D01*
X0137508Y0114656D01*
X0138084Y0116047D01*
X0138084Y0117553D01*
X0137508Y0118944D01*
X0136444Y0120008D01*
X0135053Y0120584D01*
X0133547Y0120584D01*
X0132156Y0120008D01*
X0131092Y0118944D01*
X0130516Y0117553D01*
X0130516Y0117541D01*
X0127975Y0115000D01*
X0071452Y0115000D01*
X0071444Y0115008D01*
X0070053Y0115584D01*
X0068547Y0115584D01*
X0067156Y0115008D01*
X0066092Y0113944D01*
X0065516Y0112553D01*
X0065516Y0111693D01*
X0063346Y0109523D01*
X0062950Y0108567D01*
X0062950Y0063783D01*
X0063346Y0062827D01*
X0064077Y0062096D01*
X0066773Y0059400D01*
X0056627Y0059400D01*
X0035650Y0080377D01*
X0035650Y0131973D01*
X0044004Y0140327D01*
X0044400Y0141283D01*
X0044400Y0146905D01*
X0044802Y0147307D01*
X0046293Y0148798D01*
X0047100Y0150746D01*
X0047100Y0162854D01*
X0046293Y0164802D01*
X0044802Y0166293D01*
X0042854Y0167100D01*
X0040746Y0167100D01*
X0038798Y0166293D01*
X0037307Y0164802D01*
X0036500Y0162854D01*
X0036500Y0153995D01*
X0022307Y0139802D01*
X0021500Y0137854D01*
X0021500Y0075746D01*
X0022307Y0073798D01*
X0023798Y0072307D01*
X0053798Y0042307D01*
X0055746Y0041500D01*
X0067408Y0041500D01*
X0066350Y0040442D01*
X0065371Y0038079D01*
X0065371Y0035521D01*
X0066350Y0033158D01*
X0066500Y0033008D01*
X0066500Y0025746D01*
X0067307Y0023798D01*
X0068798Y0022307D01*
X0070746Y0021500D01*
X0072854Y0021500D01*
X0074802Y0022307D01*
X0076293Y0023798D01*
X0077100Y0025746D01*
X0077100Y0033008D01*
X0077250Y0033158D01*
X0078229Y0035521D01*
X0078229Y0037593D01*
X0080421Y0035401D01*
X0081350Y0033158D01*
X0081500Y0033008D01*
X0081500Y0025746D01*
X0082307Y0023798D01*
X0083798Y0022307D01*
X0085746Y0021500D01*
X0087854Y0021500D01*
X0089802Y0022307D01*
X0091293Y0023798D01*
X0092100Y0025746D01*
X0092100Y0033008D01*
X0092250Y0033158D01*
X0093229Y0035521D01*
X0093229Y0038079D01*
X0092250Y0040442D01*
X0090442Y0042250D01*
X0088199Y0043179D01*
X0079915Y0051463D01*
X0077894Y0052300D01*
X0075706Y0052300D01*
X0075223Y0052100D01*
X0058995Y0052100D01*
X0056895Y0054200D01*
X0086548Y0054200D01*
X0087156Y0053592D01*
X0088547Y0053016D01*
X0090053Y0053016D01*
X0091444Y0053592D01*
X0092508Y0054656D01*
X0092950Y0055723D01*
X0095534Y0053139D01*
X0096490Y0052743D01*
X0097635Y0052743D01*
X0098578Y0051800D01*
X0097438Y0050660D01*
X0097438Y0045853D01*
X0098609Y0044682D01*
X0099200Y0044682D01*
X0099200Y0042682D01*
X0098158Y0042250D01*
X0096350Y0040442D01*
X0095371Y0038079D01*
X0095371Y0035521D01*
X0096350Y0033158D01*
X0096500Y0033008D01*
X0096500Y0025746D01*
X0097307Y0023798D01*
X0098798Y0022307D01*
X0100746Y0021500D01*
X0102854Y0021500D01*
X0104802Y0022307D01*
X0106293Y0023798D01*
X0107100Y0025746D01*
X0107100Y0033008D01*
X0107250Y0033158D01*
X0108229Y0035521D01*
X0108229Y0038079D01*
X0107250Y0040442D01*
X0105442Y0042250D01*
X0104400Y0042682D01*
X0104400Y0044682D01*
X0104991Y0044682D01*
X0106162Y0045853D01*
X0105882Y0045573D02*
X0144200Y0045573D01*
X0144200Y0043975D02*
X0104400Y0043975D01*
X0105138Y0042376D02*
X0113462Y0042376D01*
X0113158Y0042250D02*
X0111350Y0040442D01*
X0110371Y0038079D01*
X0110371Y0035521D01*
X0111350Y0033158D01*
X0111500Y0033008D01*
X0111500Y0025746D01*
X0112307Y0023798D01*
X0113798Y0022307D01*
X0115746Y0021500D01*
X0117854Y0021500D01*
X0119802Y0022307D01*
X0121293Y0023798D01*
X0122100Y0025746D01*
X0122100Y0033008D01*
X0122250Y0033158D01*
X0123229Y0035521D01*
X0123229Y0038079D01*
X0122250Y0040442D01*
X0120442Y0042250D01*
X0118079Y0043229D01*
X0115521Y0043229D01*
X0113158Y0042250D01*
X0111686Y0040778D02*
X0106914Y0040778D01*
X0107773Y0039179D02*
X0110827Y0039179D01*
X0110371Y0037581D02*
X0108229Y0037581D01*
X0108229Y0035982D02*
X0110371Y0035982D01*
X0110842Y0034384D02*
X0107758Y0034384D01*
X0107100Y0032785D02*
X0111500Y0032785D01*
X0111500Y0031187D02*
X0107100Y0031187D01*
X0107100Y0029588D02*
X0111500Y0029588D01*
X0111500Y0027990D02*
X0107100Y0027990D01*
X0107100Y0026391D02*
X0111500Y0026391D01*
X0111895Y0024793D02*
X0106705Y0024793D01*
X0105689Y0023194D02*
X0112911Y0023194D01*
X0115515Y0021596D02*
X0103085Y0021596D01*
X0100515Y0021596D02*
X0088085Y0021596D01*
X0085515Y0021596D02*
X0073085Y0021596D01*
X0070515Y0021596D02*
X0014200Y0021596D01*
X0014200Y0023194D02*
X0067911Y0023194D01*
X0066895Y0024793D02*
X0029499Y0024793D01*
X0029122Y0024636D02*
X0032030Y0025841D01*
X0034255Y0028066D01*
X0035460Y0030974D01*
X0035460Y0034122D01*
X0034255Y0037030D01*
X0032030Y0039255D01*
X0029122Y0040460D01*
X0025974Y0040460D01*
X0023066Y0039255D01*
X0020841Y0037030D01*
X0019636Y0034122D01*
X0019636Y0030974D01*
X0020841Y0028066D01*
X0023066Y0025841D01*
X0025974Y0024636D01*
X0029122Y0024636D01*
X0032580Y0026391D02*
X0066500Y0026391D01*
X0066500Y0027990D02*
X0034179Y0027990D01*
X0034886Y0029588D02*
X0066500Y0029588D01*
X0066500Y0031187D02*
X0035460Y0031187D01*
X0035460Y0032785D02*
X0066500Y0032785D01*
X0065842Y0034384D02*
X0035351Y0034384D01*
X0034689Y0035982D02*
X0065371Y0035982D01*
X0065371Y0037581D02*
X0033704Y0037581D01*
X0032106Y0039179D02*
X0065827Y0039179D01*
X0066686Y0040778D02*
X0014200Y0040778D01*
X0014200Y0042376D02*
X0053728Y0042376D01*
X0052130Y0043975D02*
X0014200Y0043975D01*
X0014200Y0045573D02*
X0050531Y0045573D01*
X0048933Y0047172D02*
X0014200Y0047172D01*
X0014200Y0048770D02*
X0047334Y0048770D01*
X0045736Y0050369D02*
X0014200Y0050369D01*
X0014200Y0051967D02*
X0044137Y0051967D01*
X0042539Y0053566D02*
X0014200Y0053566D01*
X0014200Y0055164D02*
X0040940Y0055164D01*
X0039342Y0056763D02*
X0014200Y0056763D01*
X0014200Y0058361D02*
X0037743Y0058361D01*
X0036145Y0059960D02*
X0014200Y0059960D01*
X0014200Y0061558D02*
X0034546Y0061558D01*
X0032948Y0063157D02*
X0014200Y0063157D01*
X0014200Y0064755D02*
X0031349Y0064755D01*
X0029751Y0066354D02*
X0014200Y0066354D01*
X0014200Y0067952D02*
X0028152Y0067952D01*
X0026554Y0069551D02*
X0014200Y0069551D01*
X0014200Y0071149D02*
X0024955Y0071149D01*
X0023357Y0072748D02*
X0014200Y0072748D01*
X0014200Y0074346D02*
X0022080Y0074346D01*
X0021500Y0075945D02*
X0014200Y0075945D01*
X0014200Y0077543D02*
X0021500Y0077543D01*
X0021500Y0079142D02*
X0014200Y0079142D01*
X0014200Y0080740D02*
X0021500Y0080740D01*
X0021500Y0082339D02*
X0014200Y0082339D01*
X0014200Y0083937D02*
X0021500Y0083937D01*
X0021500Y0085536D02*
X0014200Y0085536D01*
X0014200Y0087134D02*
X0021500Y0087134D01*
X0021500Y0088733D02*
X0014200Y0088733D01*
X0014200Y0090332D02*
X0021500Y0090332D01*
X0021500Y0091930D02*
X0014200Y0091930D01*
X0014200Y0093529D02*
X0021500Y0093529D01*
X0021500Y0095127D02*
X0014200Y0095127D01*
X0014200Y0096726D02*
X0021500Y0096726D01*
X0021500Y0098324D02*
X0014200Y0098324D01*
X0014200Y0099923D02*
X0021500Y0099923D01*
X0021500Y0101521D02*
X0014200Y0101521D01*
X0014200Y0103120D02*
X0021500Y0103120D01*
X0021500Y0104718D02*
X0014200Y0104718D01*
X0014200Y0106317D02*
X0021500Y0106317D01*
X0021500Y0107915D02*
X0014200Y0107915D01*
X0014200Y0109514D02*
X0021500Y0109514D01*
X0021500Y0111112D02*
X0014200Y0111112D01*
X0014200Y0112711D02*
X0021500Y0112711D01*
X0021500Y0114309D02*
X0014200Y0114309D01*
X0014200Y0115908D02*
X0021500Y0115908D01*
X0021500Y0117506D02*
X0014200Y0117506D01*
X0014200Y0119105D02*
X0021500Y0119105D01*
X0021500Y0120703D02*
X0014200Y0120703D01*
X0014200Y0122302D02*
X0021500Y0122302D01*
X0021500Y0123900D02*
X0014200Y0123900D01*
X0014200Y0125499D02*
X0021500Y0125499D01*
X0021500Y0127097D02*
X0014200Y0127097D01*
X0014200Y0128696D02*
X0021500Y0128696D01*
X0021500Y0130294D02*
X0014200Y0130294D01*
X0014200Y0131893D02*
X0021500Y0131893D01*
X0021500Y0133491D02*
X0014200Y0133491D01*
X0014200Y0135090D02*
X0021500Y0135090D01*
X0021500Y0136688D02*
X0014200Y0136688D01*
X0014200Y0138287D02*
X0021679Y0138287D01*
X0022390Y0139885D02*
X0014200Y0139885D01*
X0014200Y0141484D02*
X0023989Y0141484D01*
X0025587Y0143082D02*
X0014200Y0143082D01*
X0014200Y0144681D02*
X0027186Y0144681D01*
X0028784Y0146279D02*
X0014200Y0146279D01*
X0014200Y0147878D02*
X0030383Y0147878D01*
X0031981Y0149476D02*
X0014200Y0149476D01*
X0014200Y0151075D02*
X0033580Y0151075D01*
X0035178Y0152673D02*
X0014200Y0152673D01*
X0014200Y0154272D02*
X0036500Y0154272D01*
X0036500Y0155870D02*
X0014200Y0155870D01*
X0014200Y0157469D02*
X0036500Y0157469D01*
X0036500Y0159068D02*
X0014200Y0159068D01*
X0014200Y0160666D02*
X0036500Y0160666D01*
X0036500Y0162265D02*
X0014200Y0162265D01*
X0014200Y0163863D02*
X0036918Y0163863D01*
X0037966Y0165462D02*
X0014200Y0165462D01*
X0014200Y0167060D02*
X0040649Y0167060D01*
X0042951Y0167060D02*
X0122958Y0167060D01*
X0121935Y0165462D02*
X0045634Y0165462D01*
X0046682Y0163863D02*
X0089910Y0163863D01*
X0088414Y0162265D02*
X0047100Y0162265D01*
X0047100Y0160666D02*
X0088016Y0160666D01*
X0088318Y0159068D02*
X0047100Y0159068D01*
X0047100Y0157469D02*
X0089200Y0157469D01*
X0089200Y0155870D02*
X0047100Y0155870D01*
X0047100Y0154272D02*
X0089200Y0154272D01*
X0089200Y0152673D02*
X0047100Y0152673D01*
X0047100Y0151075D02*
X0089200Y0151075D01*
X0089200Y0149476D02*
X0046574Y0149476D01*
X0045373Y0147878D02*
X0089200Y0147878D01*
X0089200Y0146279D02*
X0044400Y0146279D01*
X0044400Y0144681D02*
X0089200Y0144681D01*
X0089200Y0143082D02*
X0044400Y0143082D01*
X0044400Y0141484D02*
X0089200Y0141484D01*
X0089200Y0139885D02*
X0043562Y0139885D01*
X0041964Y0138287D02*
X0089200Y0138287D01*
X0089200Y0136688D02*
X0040365Y0136688D01*
X0038767Y0135090D02*
X0089200Y0135090D01*
X0089200Y0133491D02*
X0037168Y0133491D01*
X0035650Y0131893D02*
X0089465Y0131893D01*
X0090879Y0130294D02*
X0035650Y0130294D01*
X0035650Y0128696D02*
X0092477Y0128696D01*
X0094076Y0127097D02*
X0035650Y0127097D01*
X0035650Y0125499D02*
X0095674Y0125499D01*
X0097273Y0123900D02*
X0035650Y0123900D01*
X0035650Y0122302D02*
X0098871Y0122302D01*
X0100470Y0120703D02*
X0035650Y0120703D01*
X0035650Y0119105D02*
X0102068Y0119105D01*
X0103667Y0117506D02*
X0035650Y0117506D01*
X0035650Y0115908D02*
X0112601Y0115908D01*
X0115999Y0115908D02*
X0128882Y0115908D01*
X0130481Y0117506D02*
X0117653Y0117506D01*
X0118084Y0119105D02*
X0131253Y0119105D01*
X0137347Y0119105D02*
X0144200Y0119105D01*
X0144200Y0120703D02*
X0117815Y0120703D01*
X0116650Y0122302D02*
X0144200Y0122302D01*
X0144200Y0123900D02*
X0104627Y0123900D01*
X0106225Y0122302D02*
X0111950Y0122302D01*
X0103028Y0125499D02*
X0144200Y0125499D01*
X0144200Y0127097D02*
X0101430Y0127097D01*
X0099831Y0128696D02*
X0144200Y0128696D01*
X0143328Y0130294D02*
X0098233Y0130294D01*
X0096634Y0131893D02*
X0143016Y0131893D01*
X0143405Y0133491D02*
X0095036Y0133491D01*
X0094400Y0135090D02*
X0144854Y0135090D01*
X0148746Y0135090D02*
X0154200Y0135090D01*
X0154200Y0136688D02*
X0094400Y0136688D01*
X0094400Y0138287D02*
X0103711Y0138287D01*
X0103592Y0138406D02*
X0104656Y0137342D01*
X0106047Y0136766D01*
X0107553Y0136766D01*
X0108944Y0137342D01*
X0109552Y0137950D01*
X0134048Y0137950D01*
X0134656Y0137342D01*
X0136047Y0136766D01*
X0137553Y0136766D01*
X0138944Y0137342D01*
X0140008Y0138406D01*
X0140584Y0139797D01*
X0140584Y0141303D01*
X0140008Y0142694D01*
X0139027Y0143675D01*
X0140008Y0144656D01*
X0140584Y0146047D01*
X0140584Y0147553D01*
X0140008Y0148944D01*
X0138944Y0150008D01*
X0137553Y0150584D01*
X0136047Y0150584D01*
X0134656Y0150008D01*
X0134048Y0149400D01*
X0130337Y0149400D01*
X0130008Y0150194D01*
X0128944Y0151258D01*
X0127553Y0151834D01*
X0126047Y0151834D01*
X0124656Y0151258D01*
X0124048Y0150650D01*
X0109552Y0150650D01*
X0108944Y0151258D01*
X0107553Y0151834D01*
X0106047Y0151834D01*
X0104656Y0151258D01*
X0103592Y0150194D01*
X0103016Y0148803D01*
X0103016Y0147297D01*
X0103592Y0145906D01*
X0104656Y0144842D01*
X0105965Y0144300D01*
X0104656Y0143758D01*
X0103592Y0142694D01*
X0103016Y0141303D01*
X0103016Y0139797D01*
X0103592Y0138406D01*
X0103016Y0139885D02*
X0094400Y0139885D01*
X0094400Y0141484D02*
X0103091Y0141484D01*
X0103981Y0143082D02*
X0094400Y0143082D01*
X0094400Y0144681D02*
X0105045Y0144681D01*
X0103437Y0146279D02*
X0094400Y0146279D01*
X0094400Y0147878D02*
X0103016Y0147878D01*
X0103295Y0149476D02*
X0094400Y0149476D01*
X0094400Y0151075D02*
X0104473Y0151075D01*
X0109127Y0151075D02*
X0124473Y0151075D01*
X0129127Y0151075D02*
X0151348Y0151075D01*
X0149750Y0152673D02*
X0094400Y0152673D01*
X0094400Y0154272D02*
X0117726Y0154272D01*
X0116839Y0155870D02*
X0094400Y0155870D01*
X0094400Y0157469D02*
X0116766Y0157469D01*
X0121766Y0163863D02*
X0093690Y0163863D01*
X0096124Y0188100D02*
X0096124Y0193624D01*
X0090600Y0193624D01*
X0090724Y0192841D01*
X0091027Y0191909D01*
X0091472Y0191035D01*
X0092049Y0190242D01*
X0092742Y0189549D01*
X0093535Y0188972D01*
X0094409Y0188527D01*
X0095341Y0188224D01*
X0096124Y0188100D01*
X0096124Y0189439D02*
X0097476Y0189439D01*
X0097476Y0188100D02*
X0098259Y0188224D01*
X0099191Y0188527D01*
X0100065Y0188972D01*
X0100858Y0189549D01*
X0101551Y0190242D01*
X0102128Y0191035D01*
X0102573Y0191909D01*
X0102876Y0192841D01*
X0103000Y0193624D01*
X0097476Y0193624D01*
X0097476Y0194976D01*
X0103000Y0194976D01*
X0102876Y0195759D01*
X0102573Y0196691D01*
X0102128Y0197565D01*
X0101551Y0198358D01*
X0100858Y0199051D01*
X0100065Y0199628D01*
X0099191Y0200073D01*
X0099079Y0200109D01*
X0099299Y0200222D01*
X0099906Y0200663D01*
X0100437Y0201194D01*
X0100878Y0201801D01*
X0101219Y0202470D01*
X0101451Y0203183D01*
X0101568Y0203925D01*
X0101568Y0204116D01*
X0096984Y0204116D01*
X0096984Y0199531D01*
X0097175Y0199531D01*
X0097476Y0199579D01*
X0097476Y0194976D01*
X0096124Y0194976D01*
X0096124Y0193624D01*
X0097476Y0193624D01*
X0097476Y0188100D01*
X0097476Y0191038D02*
X0096124Y0191038D01*
X0096124Y0192636D02*
X0097476Y0192636D01*
X0097476Y0194235D02*
X0105371Y0194235D01*
X0105371Y0193021D02*
X0106350Y0190658D01*
X0108158Y0188850D01*
X0110521Y0187871D01*
X0113079Y0187871D01*
X0115442Y0188850D01*
X0117250Y0190658D01*
X0118229Y0193021D01*
X0118229Y0195579D01*
X0117250Y0197942D01*
X0117100Y0198092D01*
X0117100Y0205354D01*
X0116293Y0207302D01*
X0114802Y0208793D01*
X0112854Y0209600D01*
X0110746Y0209600D01*
X0108798Y0208793D01*
X0107307Y0207302D01*
X0106500Y0205354D01*
X0106500Y0198092D01*
X0106350Y0197942D01*
X0105371Y0195579D01*
X0105371Y0193021D01*
X0105530Y0192636D02*
X0102809Y0192636D01*
X0102129Y0191038D02*
X0106192Y0191038D01*
X0107569Y0189439D02*
X0100707Y0189439D01*
X0096124Y0194235D02*
X0088229Y0194235D01*
X0088229Y0193021D02*
X0088229Y0195579D01*
X0087250Y0197942D01*
X0087100Y0198092D01*
X0087100Y0205354D01*
X0086293Y0207302D01*
X0084802Y0208793D01*
X0082854Y0209600D01*
X0080746Y0209600D01*
X0078798Y0208793D01*
X0077307Y0207302D01*
X0076500Y0205354D01*
X0076500Y0198092D01*
X0076350Y0197942D01*
X0075371Y0195579D01*
X0075371Y0193021D01*
X0076350Y0190658D01*
X0078158Y0188850D01*
X0080521Y0187871D01*
X0083079Y0187871D01*
X0085442Y0188850D01*
X0087250Y0190658D01*
X0088229Y0193021D01*
X0088070Y0192636D02*
X0090791Y0192636D01*
X0091471Y0191038D02*
X0087408Y0191038D01*
X0086031Y0189439D02*
X0092893Y0189439D01*
X0090600Y0194976D02*
X0096124Y0194976D01*
X0096124Y0199579D01*
X0096425Y0199531D01*
X0096616Y0199531D01*
X0096616Y0204116D01*
X0092031Y0204116D01*
X0092031Y0203925D01*
X0092149Y0203183D01*
X0092381Y0202470D01*
X0092722Y0201801D01*
X0093163Y0201194D01*
X0093694Y0200663D01*
X0094301Y0200222D01*
X0094521Y0200109D01*
X0094409Y0200073D01*
X0093535Y0199628D01*
X0092742Y0199051D01*
X0092049Y0198358D01*
X0091472Y0197565D01*
X0091027Y0196691D01*
X0090724Y0195759D01*
X0090600Y0194976D01*
X0090748Y0195833D02*
X0088124Y0195833D01*
X0087462Y0197432D02*
X0091405Y0197432D01*
X0092721Y0199030D02*
X0087100Y0199030D01*
X0087100Y0200629D02*
X0093740Y0200629D01*
X0092504Y0202227D02*
X0087100Y0202227D01*
X0087100Y0203826D02*
X0092047Y0203826D01*
X0092031Y0204484D02*
X0096616Y0204484D01*
X0096616Y0204116D01*
X0096984Y0204116D01*
X0096984Y0204484D01*
X0096616Y0204484D01*
X0096616Y0209068D01*
X0096425Y0209068D01*
X0095683Y0208951D01*
X0094970Y0208719D01*
X0094301Y0208378D01*
X0093694Y0207937D01*
X0093163Y0207406D01*
X0092722Y0206799D01*
X0092381Y0206130D01*
X0092149Y0205417D01*
X0092031Y0204675D01*
X0092031Y0204484D01*
X0092151Y0205424D02*
X0087071Y0205424D01*
X0086409Y0207023D02*
X0092884Y0207023D01*
X0094778Y0208621D02*
X0084974Y0208621D01*
X0078626Y0208621D02*
X0068822Y0208621D01*
X0068630Y0208719D02*
X0067917Y0208951D01*
X0067175Y0209068D01*
X0066984Y0209068D01*
X0066984Y0204484D01*
X0066616Y0204484D01*
X0066616Y0204116D01*
X0062031Y0204116D01*
X0062031Y0203925D01*
X0062149Y0203183D01*
X0062381Y0202470D01*
X0062722Y0201801D01*
X0063163Y0201194D01*
X0063694Y0200663D01*
X0064301Y0200222D01*
X0064521Y0200109D01*
X0064409Y0200073D01*
X0063535Y0199628D01*
X0062742Y0199051D01*
X0062049Y0198358D01*
X0061472Y0197565D01*
X0061027Y0196691D01*
X0060724Y0195759D01*
X0060600Y0194976D01*
X0066124Y0194976D01*
X0066124Y0193624D01*
X0060600Y0193624D01*
X0060724Y0192841D01*
X0061027Y0191909D01*
X0061472Y0191035D01*
X0062049Y0190242D01*
X0062742Y0189549D01*
X0063535Y0188972D01*
X0064409Y0188527D01*
X0065341Y0188224D01*
X0066124Y0188100D01*
X0066124Y0193624D01*
X0067476Y0193624D01*
X0067476Y0194976D01*
X0073000Y0194976D01*
X0072876Y0195759D01*
X0072573Y0196691D01*
X0072128Y0197565D01*
X0071551Y0198358D01*
X0070858Y0199051D01*
X0070065Y0199628D01*
X0069191Y0200073D01*
X0069079Y0200109D01*
X0069299Y0200222D01*
X0069906Y0200663D01*
X0070437Y0201194D01*
X0070878Y0201801D01*
X0071219Y0202470D01*
X0071451Y0203183D01*
X0071568Y0203925D01*
X0071568Y0204116D01*
X0066984Y0204116D01*
X0066984Y0199531D01*
X0067175Y0199531D01*
X0067476Y0199579D01*
X0067476Y0194976D01*
X0066124Y0194976D01*
X0066124Y0199579D01*
X0066425Y0199531D01*
X0066616Y0199531D01*
X0066616Y0204116D01*
X0066984Y0204116D01*
X0066984Y0204484D01*
X0071568Y0204484D01*
X0071568Y0204675D01*
X0071451Y0205417D01*
X0071219Y0206130D01*
X0070878Y0206799D01*
X0070437Y0207406D01*
X0069906Y0207937D01*
X0069299Y0208378D01*
X0068630Y0208719D01*
X0066984Y0208621D02*
X0066616Y0208621D01*
X0066616Y0209068D02*
X0066425Y0209068D01*
X0065683Y0208951D01*
X0064970Y0208719D01*
X0064301Y0208378D01*
X0063694Y0207937D01*
X0063163Y0207406D01*
X0062722Y0206799D01*
X0062381Y0206130D01*
X0062149Y0205417D01*
X0062031Y0204675D01*
X0062031Y0204484D01*
X0066616Y0204484D01*
X0066616Y0209068D01*
X0064778Y0208621D02*
X0054974Y0208621D01*
X0054802Y0208793D02*
X0052854Y0209600D01*
X0050746Y0209600D01*
X0048798Y0208793D01*
X0047307Y0207302D01*
X0046500Y0205354D01*
X0046500Y0198092D01*
X0046350Y0197942D01*
X0045371Y0195579D01*
X0045371Y0193021D01*
X0046350Y0190658D01*
X0048158Y0188850D01*
X0050521Y0187871D01*
X0053079Y0187871D01*
X0055442Y0188850D01*
X0057250Y0190658D01*
X0058229Y0193021D01*
X0058229Y0195579D01*
X0057250Y0197942D01*
X0057100Y0198092D01*
X0057100Y0205354D01*
X0056293Y0207302D01*
X0054802Y0208793D01*
X0056409Y0207023D02*
X0062884Y0207023D01*
X0062151Y0205424D02*
X0057071Y0205424D01*
X0057100Y0203826D02*
X0062047Y0203826D01*
X0062504Y0202227D02*
X0057100Y0202227D01*
X0057100Y0200629D02*
X0063740Y0200629D01*
X0062721Y0199030D02*
X0057100Y0199030D01*
X0057462Y0197432D02*
X0061405Y0197432D01*
X0060748Y0195833D02*
X0058124Y0195833D01*
X0058229Y0194235D02*
X0066124Y0194235D01*
X0067476Y0194235D02*
X0075371Y0194235D01*
X0075476Y0195833D02*
X0072852Y0195833D01*
X0072195Y0197432D02*
X0076138Y0197432D01*
X0076500Y0199030D02*
X0070879Y0199030D01*
X0069860Y0200629D02*
X0076500Y0200629D01*
X0076500Y0202227D02*
X0071096Y0202227D01*
X0071553Y0203826D02*
X0076500Y0203826D01*
X0076529Y0205424D02*
X0071449Y0205424D01*
X0070716Y0207023D02*
X0077191Y0207023D01*
X0067476Y0199030D02*
X0066124Y0199030D01*
X0066124Y0197432D02*
X0067476Y0197432D01*
X0067476Y0195833D02*
X0066124Y0195833D01*
X0067476Y0193624D02*
X0073000Y0193624D01*
X0072876Y0192841D01*
X0072573Y0191909D01*
X0072128Y0191035D01*
X0071551Y0190242D01*
X0070858Y0189549D01*
X0070065Y0188972D01*
X0069191Y0188527D01*
X0068259Y0188224D01*
X0067476Y0188100D01*
X0067476Y0193624D01*
X0067476Y0192636D02*
X0066124Y0192636D01*
X0066124Y0191038D02*
X0067476Y0191038D01*
X0067476Y0189439D02*
X0066124Y0189439D01*
X0062893Y0189439D02*
X0056031Y0189439D01*
X0057408Y0191038D02*
X0061471Y0191038D01*
X0060791Y0192636D02*
X0058070Y0192636D01*
X0047569Y0189439D02*
X0014200Y0189439D01*
X0014200Y0187841D02*
X0131664Y0187841D01*
X0130707Y0189439D02*
X0133262Y0189439D01*
X0131551Y0190242D02*
X0132128Y0191035D01*
X0132573Y0191909D01*
X0132876Y0192841D01*
X0133000Y0193624D01*
X0127476Y0193624D01*
X0127476Y0194976D01*
X0133000Y0194976D01*
X0132876Y0195759D01*
X0132573Y0196691D01*
X0132128Y0197565D01*
X0131551Y0198358D01*
X0130858Y0199051D01*
X0130065Y0199628D01*
X0129191Y0200073D01*
X0129079Y0200109D01*
X0129299Y0200222D01*
X0129906Y0200663D01*
X0130437Y0201194D01*
X0130878Y0201801D01*
X0131219Y0202470D01*
X0131451Y0203183D01*
X0131568Y0203925D01*
X0131568Y0204116D01*
X0126984Y0204116D01*
X0126984Y0199531D01*
X0127175Y0199531D01*
X0127476Y0199579D01*
X0127476Y0194976D01*
X0126124Y0194976D01*
X0126124Y0193624D01*
X0120600Y0193624D01*
X0120724Y0192841D01*
X0121027Y0191909D01*
X0121472Y0191035D01*
X0122049Y0190242D01*
X0122742Y0189549D01*
X0123535Y0188972D01*
X0124409Y0188527D01*
X0125341Y0188224D01*
X0126124Y0188100D01*
X0126124Y0193624D01*
X0127476Y0193624D01*
X0127476Y0188100D01*
X0128259Y0188224D01*
X0129191Y0188527D01*
X0130065Y0188972D01*
X0130858Y0189549D01*
X0131551Y0190242D01*
X0132129Y0191038D02*
X0134861Y0191038D01*
X0135530Y0192636D02*
X0132809Y0192636D01*
X0135371Y0194235D02*
X0127476Y0194235D01*
X0126124Y0194235D02*
X0118229Y0194235D01*
X0118124Y0195833D02*
X0120748Y0195833D01*
X0120724Y0195759D02*
X0121027Y0196691D01*
X0121472Y0197565D01*
X0122049Y0198358D01*
X0122742Y0199051D01*
X0123535Y0199628D01*
X0124409Y0200073D01*
X0124521Y0200109D01*
X0124301Y0200222D01*
X0123694Y0200663D01*
X0123163Y0201194D01*
X0122722Y0201801D01*
X0122381Y0202470D01*
X0122149Y0203183D01*
X0122031Y0203925D01*
X0122031Y0204116D01*
X0126616Y0204116D01*
X0126616Y0204484D01*
X0122031Y0204484D01*
X0122031Y0204675D01*
X0122149Y0205417D01*
X0122381Y0206130D01*
X0122722Y0206799D01*
X0123163Y0207406D01*
X0123694Y0207937D01*
X0124301Y0208378D01*
X0124970Y0208719D01*
X0125683Y0208951D01*
X0126425Y0209068D01*
X0126616Y0209068D01*
X0126616Y0204484D01*
X0126984Y0204484D01*
X0126984Y0209068D01*
X0127175Y0209068D01*
X0127917Y0208951D01*
X0128630Y0208719D01*
X0129299Y0208378D01*
X0129906Y0207937D01*
X0130437Y0207406D01*
X0130878Y0206799D01*
X0131219Y0206130D01*
X0131451Y0205417D01*
X0131568Y0204675D01*
X0131568Y0204484D01*
X0126984Y0204484D01*
X0126984Y0204116D01*
X0126616Y0204116D01*
X0126616Y0199531D01*
X0126425Y0199531D01*
X0126124Y0199579D01*
X0126124Y0194976D01*
X0120600Y0194976D01*
X0120724Y0195759D01*
X0121405Y0197432D02*
X0117462Y0197432D01*
X0117100Y0199030D02*
X0122721Y0199030D01*
X0123740Y0200629D02*
X0117100Y0200629D01*
X0117100Y0202227D02*
X0122504Y0202227D01*
X0122047Y0203826D02*
X0117100Y0203826D01*
X0117071Y0205424D02*
X0122151Y0205424D01*
X0122884Y0207023D02*
X0116409Y0207023D01*
X0114974Y0208621D02*
X0124778Y0208621D01*
X0126616Y0208621D02*
X0126984Y0208621D01*
X0126984Y0207023D02*
X0126616Y0207023D01*
X0126616Y0205424D02*
X0126984Y0205424D01*
X0126984Y0203826D02*
X0126616Y0203826D01*
X0126616Y0202227D02*
X0126984Y0202227D01*
X0126984Y0200629D02*
X0126616Y0200629D01*
X0126124Y0199030D02*
X0127476Y0199030D01*
X0127476Y0197432D02*
X0126124Y0197432D01*
X0126124Y0195833D02*
X0127476Y0195833D01*
X0127476Y0192636D02*
X0126124Y0192636D01*
X0126124Y0191038D02*
X0127476Y0191038D01*
X0127476Y0189439D02*
X0126124Y0189439D01*
X0122893Y0189439D02*
X0116031Y0189439D01*
X0117408Y0191038D02*
X0121471Y0191038D01*
X0120791Y0192636D02*
X0118070Y0192636D01*
X0124703Y0183045D02*
X0014200Y0183045D01*
X0014200Y0181447D02*
X0122345Y0181447D01*
X0121766Y0179848D02*
X0014200Y0179848D01*
X0014200Y0178250D02*
X0121889Y0178250D01*
X0122847Y0176651D02*
X0014200Y0176651D01*
X0014200Y0175053D02*
X0145126Y0175053D01*
X0146597Y0176651D02*
X0138253Y0176651D01*
X0132847Y0176651D02*
X0128253Y0176651D01*
X0129427Y0178250D02*
X0131889Y0178250D01*
X0131766Y0179848D02*
X0131025Y0179848D01*
X0134222Y0183045D02*
X0134703Y0183045D01*
X0136397Y0183045D02*
X0141868Y0183045D01*
X0143467Y0184644D02*
X0135821Y0184644D01*
X0137419Y0186242D02*
X0145065Y0186242D01*
X0146664Y0187841D02*
X0139018Y0187841D01*
X0146031Y0189439D02*
X0148262Y0189439D01*
X0147408Y0191038D02*
X0149861Y0191038D01*
X0150530Y0192636D02*
X0148070Y0192636D01*
X0148229Y0194235D02*
X0150371Y0194235D01*
X0150476Y0195833D02*
X0148124Y0195833D01*
X0147462Y0197432D02*
X0151138Y0197432D01*
X0151500Y0199030D02*
X0147100Y0199030D01*
X0147100Y0200629D02*
X0151500Y0200629D01*
X0151500Y0202227D02*
X0147100Y0202227D01*
X0147100Y0203826D02*
X0151500Y0203826D01*
X0151529Y0205424D02*
X0147071Y0205424D01*
X0146409Y0207023D02*
X0152191Y0207023D01*
X0153626Y0208621D02*
X0144974Y0208621D01*
X0138626Y0208621D02*
X0128822Y0208621D01*
X0130716Y0207023D02*
X0137191Y0207023D01*
X0136529Y0205424D02*
X0131449Y0205424D01*
X0131553Y0203826D02*
X0136500Y0203826D01*
X0136500Y0202227D02*
X0131096Y0202227D01*
X0129860Y0200629D02*
X0136500Y0200629D01*
X0136500Y0199030D02*
X0130879Y0199030D01*
X0132195Y0197432D02*
X0136138Y0197432D01*
X0135476Y0195833D02*
X0132852Y0195833D01*
X0130065Y0186242D02*
X0014200Y0186242D01*
X0014200Y0184644D02*
X0128467Y0184644D01*
X0126868Y0183045D02*
X0126397Y0183045D01*
X0127834Y0170257D02*
X0014200Y0170257D01*
X0014200Y0168659D02*
X0126232Y0168659D01*
X0141929Y0171856D02*
X0014200Y0171856D01*
X0014200Y0173454D02*
X0143527Y0173454D01*
X0144427Y0178250D02*
X0145639Y0178250D01*
X0150147Y0183045D02*
X0155953Y0183045D01*
X0157647Y0183045D02*
X0206250Y0183045D01*
X0206250Y0181447D02*
X0160005Y0181447D01*
X0160584Y0179848D02*
X0206250Y0179848D01*
X0206250Y0178250D02*
X0160461Y0178250D01*
X0159503Y0176651D02*
X0176299Y0176651D01*
X0175516Y0175053D02*
X0156230Y0175053D01*
X0154631Y0173454D02*
X0175554Y0173454D01*
X0176393Y0171856D02*
X0153033Y0171856D01*
X0151434Y0170257D02*
X0165257Y0170257D01*
X0163474Y0168659D02*
X0149836Y0168659D01*
X0148237Y0167060D02*
X0163016Y0167060D01*
X0161785Y0165462D02*
X0146638Y0165462D01*
X0145040Y0163863D02*
X0160186Y0163863D01*
X0169215Y0163863D02*
X0186060Y0163863D01*
X0187659Y0162265D02*
X0169187Y0162265D01*
X0170330Y0160666D02*
X0189257Y0160666D01*
X0190856Y0159068D02*
X0170584Y0159068D01*
X0170138Y0157469D02*
X0192454Y0157469D01*
X0194053Y0155870D02*
X0169400Y0155870D01*
X0169400Y0154272D02*
X0195651Y0154272D01*
X0196700Y0152673D02*
X0169400Y0152673D01*
X0169400Y0151075D02*
X0196700Y0151075D01*
X0196700Y0149476D02*
X0174475Y0149476D01*
X0175450Y0147878D02*
X0196700Y0147878D01*
X0196700Y0146279D02*
X0176846Y0146279D01*
X0178445Y0144681D02*
X0196700Y0144681D01*
X0196700Y0143082D02*
X0180043Y0143082D01*
X0181642Y0141484D02*
X0196700Y0141484D01*
X0196700Y0139885D02*
X0183240Y0139885D01*
X0184648Y0138287D02*
X0196700Y0138287D01*
X0196700Y0136688D02*
X0185000Y0136688D01*
X0185000Y0135090D02*
X0196700Y0135090D01*
X0196700Y0133491D02*
X0185195Y0133491D01*
X0185584Y0131893D02*
X0196700Y0131893D01*
X0196700Y0130294D02*
X0185272Y0130294D01*
X0188440Y0128696D02*
X0196700Y0128696D01*
X0196700Y0127097D02*
X0189300Y0127097D01*
X0189300Y0125499D02*
X0196700Y0125499D01*
X0196700Y0123900D02*
X0189300Y0123900D01*
X0184300Y0123900D02*
X0173235Y0123900D01*
X0174566Y0125499D02*
X0171637Y0125499D01*
X0170584Y0127097D02*
X0172967Y0127097D01*
X0171369Y0128696D02*
X0170111Y0128696D01*
X0169770Y0130294D02*
X0168253Y0130294D01*
X0166355Y0131893D02*
X0159400Y0131893D01*
X0159400Y0133491D02*
X0165539Y0133491D01*
X0165531Y0135090D02*
X0159400Y0135090D01*
X0160365Y0136688D02*
X0166337Y0136688D01*
X0163562Y0139885D02*
X0174189Y0139885D01*
X0175788Y0138287D02*
X0161964Y0138287D01*
X0165161Y0141484D02*
X0172591Y0141484D01*
X0170886Y0143082D02*
X0166759Y0143082D01*
X0168358Y0144681D02*
X0168582Y0144681D01*
X0172263Y0136688D02*
X0177386Y0136688D01*
X0178600Y0135090D02*
X0173069Y0135090D01*
X0173644Y0133491D02*
X0178405Y0133491D01*
X0178016Y0131893D02*
X0175243Y0131893D01*
X0176841Y0130294D02*
X0178328Y0130294D01*
X0177073Y0122302D02*
X0174834Y0122302D01*
X0170960Y0119105D02*
X0168084Y0119105D01*
X0167815Y0120703D02*
X0169361Y0120703D01*
X0167763Y0122302D02*
X0166650Y0122302D01*
X0164348Y0123900D02*
X0159400Y0123900D01*
X0159400Y0122302D02*
X0161950Y0122302D01*
X0160785Y0120703D02*
X0159400Y0120703D01*
X0159400Y0119105D02*
X0160516Y0119105D01*
X0160947Y0117506D02*
X0159400Y0117506D01*
X0159400Y0115908D02*
X0162601Y0115908D01*
X0165755Y0114309D02*
X0159400Y0114309D01*
X0159400Y0112711D02*
X0167354Y0112711D01*
X0168952Y0111112D02*
X0159400Y0111112D01*
X0159400Y0109514D02*
X0170787Y0109514D01*
X0176100Y0107915D02*
X0159400Y0107915D01*
X0159400Y0106317D02*
X0176100Y0106317D01*
X0176100Y0104718D02*
X0159400Y0104718D01*
X0159400Y0103120D02*
X0177419Y0103120D01*
X0178460Y0101521D02*
X0159400Y0101521D01*
X0159400Y0099923D02*
X0176862Y0099923D01*
X0176100Y0098324D02*
X0159400Y0098324D01*
X0159400Y0096726D02*
X0176100Y0096726D01*
X0176100Y0095127D02*
X0159400Y0095127D01*
X0159400Y0093529D02*
X0177010Y0093529D01*
X0178609Y0091930D02*
X0159400Y0091930D01*
X0159400Y0090332D02*
X0206250Y0090332D01*
X0206250Y0091930D02*
X0194708Y0091930D01*
X0194078Y0091300D02*
X0197300Y0094522D01*
X0197300Y0096600D01*
X0192000Y0096600D01*
X0192000Y0091300D01*
X0194078Y0091300D01*
X0192000Y0091930D02*
X0191600Y0091930D01*
X0191600Y0093529D02*
X0192000Y0093529D01*
X0192000Y0095127D02*
X0191600Y0095127D01*
X0192000Y0096726D02*
X0206250Y0096726D01*
X0206250Y0098324D02*
X0197300Y0098324D01*
X0198600Y0099923D02*
X0206250Y0099923D01*
X0206250Y0101521D02*
X0200198Y0101521D01*
X0201625Y0103120D02*
X0206250Y0103120D01*
X0206250Y0104718D02*
X0201900Y0104718D01*
X0201900Y0106317D02*
X0206250Y0106317D01*
X0206250Y0107915D02*
X0201900Y0107915D01*
X0201900Y0109514D02*
X0206250Y0109514D01*
X0206250Y0111112D02*
X0201900Y0111112D01*
X0201900Y0112711D02*
X0206250Y0112711D01*
X0206250Y0114309D02*
X0201900Y0114309D01*
X0201900Y0115908D02*
X0206250Y0115908D01*
X0206250Y0117506D02*
X0201900Y0117506D01*
X0201900Y0119105D02*
X0206250Y0119105D01*
X0206250Y0120703D02*
X0201900Y0120703D01*
X0201900Y0122302D02*
X0206250Y0122302D01*
X0206250Y0123900D02*
X0201900Y0123900D01*
X0201900Y0125499D02*
X0206250Y0125499D01*
X0206250Y0127097D02*
X0201900Y0127097D01*
X0201900Y0128696D02*
X0206250Y0128696D01*
X0206250Y0130294D02*
X0201900Y0130294D01*
X0201900Y0131893D02*
X0206250Y0131893D01*
X0206250Y0133491D02*
X0201900Y0133491D01*
X0201900Y0135090D02*
X0206250Y0135090D01*
X0206250Y0136688D02*
X0201900Y0136688D01*
X0201900Y0138287D02*
X0206250Y0138287D01*
X0206250Y0139885D02*
X0201900Y0139885D01*
X0201900Y0141484D02*
X0206250Y0141484D01*
X0206250Y0143082D02*
X0201900Y0143082D01*
X0201900Y0144681D02*
X0206250Y0144681D01*
X0206250Y0146279D02*
X0201900Y0146279D01*
X0201900Y0147878D02*
X0206250Y0147878D01*
X0206250Y0149476D02*
X0201900Y0149476D01*
X0201900Y0151075D02*
X0206250Y0151075D01*
X0206250Y0152673D02*
X0201900Y0152673D01*
X0201900Y0154272D02*
X0206250Y0154272D01*
X0206250Y0155870D02*
X0201406Y0155870D01*
X0199808Y0157469D02*
X0206250Y0157469D01*
X0206250Y0159068D02*
X0198209Y0159068D01*
X0196611Y0160666D02*
X0206250Y0160666D01*
X0206250Y0162265D02*
X0195012Y0162265D01*
X0193414Y0163863D02*
X0206250Y0163863D01*
X0206250Y0165462D02*
X0191815Y0165462D01*
X0190217Y0167060D02*
X0206250Y0167060D01*
X0206250Y0168659D02*
X0188618Y0168659D01*
X0187020Y0170257D02*
X0206250Y0170257D01*
X0206250Y0171856D02*
X0185421Y0171856D01*
X0183823Y0173454D02*
X0206250Y0173454D01*
X0206250Y0175053D02*
X0183084Y0175053D01*
X0182301Y0176651D02*
X0206250Y0176651D01*
X0206250Y0184644D02*
X0150821Y0184644D01*
X0152419Y0186242D02*
X0206250Y0186242D01*
X0206250Y0187841D02*
X0154018Y0187841D01*
X0153595Y0181447D02*
X0152505Y0181447D01*
X0161031Y0189439D02*
X0167893Y0189439D01*
X0167742Y0189549D02*
X0168535Y0188972D01*
X0169409Y0188527D01*
X0170341Y0188224D01*
X0171124Y0188100D01*
X0171124Y0193624D01*
X0165600Y0193624D01*
X0165724Y0192841D01*
X0166027Y0191909D01*
X0166472Y0191035D01*
X0167049Y0190242D01*
X0167742Y0189549D01*
X0166471Y0191038D02*
X0162408Y0191038D01*
X0163070Y0192636D02*
X0165791Y0192636D01*
X0165600Y0194976D02*
X0171124Y0194976D01*
X0171124Y0193624D01*
X0172476Y0193624D01*
X0172476Y0194976D01*
X0178000Y0194976D01*
X0177876Y0195759D01*
X0177573Y0196691D01*
X0177128Y0197565D01*
X0176551Y0198358D01*
X0175858Y0199051D01*
X0175065Y0199628D01*
X0174191Y0200073D01*
X0174079Y0200109D01*
X0174299Y0200222D01*
X0174906Y0200663D01*
X0175437Y0201194D01*
X0175878Y0201801D01*
X0176219Y0202470D01*
X0176451Y0203183D01*
X0176568Y0203925D01*
X0176568Y0204116D01*
X0171984Y0204116D01*
X0171984Y0199531D01*
X0172175Y0199531D01*
X0172476Y0199579D01*
X0172476Y0194976D01*
X0171124Y0194976D01*
X0171124Y0199579D01*
X0171425Y0199531D01*
X0171616Y0199531D01*
X0171616Y0204116D01*
X0167031Y0204116D01*
X0167031Y0203925D01*
X0167149Y0203183D01*
X0167381Y0202470D01*
X0167722Y0201801D01*
X0168163Y0201194D01*
X0168694Y0200663D01*
X0169301Y0200222D01*
X0169521Y0200109D01*
X0169409Y0200073D01*
X0168535Y0199628D01*
X0167742Y0199051D01*
X0167049Y0198358D01*
X0166472Y0197565D01*
X0166027Y0196691D01*
X0165724Y0195759D01*
X0165600Y0194976D01*
X0165748Y0195833D02*
X0163124Y0195833D01*
X0163229Y0194235D02*
X0171124Y0194235D01*
X0172476Y0194235D02*
X0185858Y0194235D01*
X0186195Y0193421D02*
X0188421Y0191195D01*
X0191329Y0189991D01*
X0194476Y0189991D01*
X0197384Y0191195D01*
X0199610Y0193421D01*
X0200814Y0196329D01*
X0200814Y0199476D01*
X0199610Y0202384D01*
X0197384Y0204610D01*
X0194476Y0205814D01*
X0191329Y0205814D01*
X0188421Y0204610D01*
X0186195Y0202384D01*
X0184991Y0199476D01*
X0184991Y0196329D01*
X0186195Y0193421D01*
X0186979Y0192636D02*
X0177809Y0192636D01*
X0177876Y0192841D02*
X0178000Y0193624D01*
X0172476Y0193624D01*
X0172476Y0188100D01*
X0173259Y0188224D01*
X0174191Y0188527D01*
X0175065Y0188972D01*
X0175858Y0189549D01*
X0176551Y0190242D01*
X0177128Y0191035D01*
X0177573Y0191909D01*
X0177876Y0192841D01*
X0177129Y0191038D02*
X0188800Y0191038D01*
X0185196Y0195833D02*
X0177852Y0195833D01*
X0177195Y0197432D02*
X0184991Y0197432D01*
X0184991Y0199030D02*
X0175879Y0199030D01*
X0174860Y0200629D02*
X0185468Y0200629D01*
X0186130Y0202227D02*
X0176096Y0202227D01*
X0176553Y0203826D02*
X0187637Y0203826D01*
X0190387Y0205424D02*
X0176449Y0205424D01*
X0176451Y0205417D02*
X0176219Y0206130D01*
X0175878Y0206799D01*
X0175437Y0207406D01*
X0174906Y0207937D01*
X0174299Y0208378D01*
X0173630Y0208719D01*
X0172917Y0208951D01*
X0172175Y0209068D01*
X0171984Y0209068D01*
X0171984Y0204484D01*
X0171616Y0204484D01*
X0171616Y0204116D01*
X0171984Y0204116D01*
X0171984Y0204484D01*
X0176568Y0204484D01*
X0176568Y0204675D01*
X0176451Y0205417D01*
X0175716Y0207023D02*
X0206250Y0207023D01*
X0206250Y0208621D02*
X0173822Y0208621D01*
X0171984Y0208621D02*
X0171616Y0208621D01*
X0171616Y0209068D02*
X0171425Y0209068D01*
X0170683Y0208951D01*
X0169970Y0208719D01*
X0169301Y0208378D01*
X0168694Y0207937D01*
X0168163Y0207406D01*
X0167722Y0206799D01*
X0167381Y0206130D01*
X0167149Y0205417D01*
X0167031Y0204675D01*
X0167031Y0204484D01*
X0171616Y0204484D01*
X0171616Y0209068D01*
X0169778Y0208621D02*
X0159974Y0208621D01*
X0161409Y0207023D02*
X0167884Y0207023D01*
X0167151Y0205424D02*
X0162071Y0205424D01*
X0162100Y0203826D02*
X0167047Y0203826D01*
X0167504Y0202227D02*
X0162100Y0202227D01*
X0162100Y0200629D02*
X0168740Y0200629D01*
X0167721Y0199030D02*
X0162100Y0199030D01*
X0162462Y0197432D02*
X0166405Y0197432D01*
X0171124Y0197432D02*
X0172476Y0197432D01*
X0172476Y0199030D02*
X0171124Y0199030D01*
X0171616Y0200629D02*
X0171984Y0200629D01*
X0171984Y0202227D02*
X0171616Y0202227D01*
X0171616Y0203826D02*
X0171984Y0203826D01*
X0171984Y0205424D02*
X0171616Y0205424D01*
X0171616Y0207023D02*
X0171984Y0207023D01*
X0172476Y0195833D02*
X0171124Y0195833D01*
X0171124Y0192636D02*
X0172476Y0192636D01*
X0172476Y0191038D02*
X0171124Y0191038D01*
X0171124Y0189439D02*
X0172476Y0189439D01*
X0175707Y0189439D02*
X0206250Y0189439D01*
X0206250Y0191038D02*
X0197004Y0191038D01*
X0198825Y0192636D02*
X0206250Y0192636D01*
X0206250Y0194235D02*
X0199947Y0194235D01*
X0200609Y0195833D02*
X0206250Y0195833D01*
X0206250Y0197432D02*
X0200814Y0197432D01*
X0200814Y0199030D02*
X0206250Y0199030D01*
X0206250Y0200629D02*
X0200337Y0200629D01*
X0199675Y0202227D02*
X0206250Y0202227D01*
X0206250Y0203826D02*
X0198168Y0203826D01*
X0195417Y0205424D02*
X0206250Y0205424D01*
X0206250Y0210220D02*
X0014200Y0210220D01*
X0014200Y0211250D02*
X0206250Y0211250D01*
X0206250Y0019200D01*
X0014200Y0019200D01*
X0014200Y0211250D01*
X0014200Y0208621D02*
X0048626Y0208621D01*
X0047191Y0207023D02*
X0014200Y0207023D01*
X0014200Y0205424D02*
X0025033Y0205424D01*
X0025974Y0205814D02*
X0023066Y0204610D01*
X0020841Y0202384D01*
X0019636Y0199476D01*
X0019636Y0196329D01*
X0020841Y0193421D01*
X0023066Y0191195D01*
X0025974Y0189991D01*
X0029122Y0189991D01*
X0032030Y0191195D01*
X0034255Y0193421D01*
X0035460Y0196329D01*
X0035460Y0199476D01*
X0034255Y0202384D01*
X0032030Y0204610D01*
X0029122Y0205814D01*
X0025974Y0205814D01*
X0030063Y0205424D02*
X0046529Y0205424D01*
X0046500Y0203826D02*
X0032814Y0203826D01*
X0034320Y0202227D02*
X0046500Y0202227D01*
X0046500Y0200629D02*
X0034982Y0200629D01*
X0035460Y0199030D02*
X0046500Y0199030D01*
X0046138Y0197432D02*
X0035460Y0197432D01*
X0035255Y0195833D02*
X0045476Y0195833D01*
X0045371Y0194235D02*
X0034593Y0194235D01*
X0033471Y0192636D02*
X0045530Y0192636D01*
X0046192Y0191038D02*
X0031650Y0191038D01*
X0023446Y0191038D02*
X0014200Y0191038D01*
X0014200Y0192636D02*
X0021625Y0192636D01*
X0020504Y0194235D02*
X0014200Y0194235D01*
X0014200Y0195833D02*
X0019841Y0195833D01*
X0019636Y0197432D02*
X0014200Y0197432D01*
X0014200Y0199030D02*
X0019636Y0199030D01*
X0020114Y0200629D02*
X0014200Y0200629D01*
X0014200Y0202227D02*
X0020776Y0202227D01*
X0022283Y0203826D02*
X0014200Y0203826D01*
X0066616Y0203826D02*
X0066984Y0203826D01*
X0066984Y0205424D02*
X0066616Y0205424D01*
X0066616Y0207023D02*
X0066984Y0207023D01*
X0066984Y0202227D02*
X0066616Y0202227D01*
X0066616Y0200629D02*
X0066984Y0200629D01*
X0072809Y0192636D02*
X0075530Y0192636D01*
X0076192Y0191038D02*
X0072129Y0191038D01*
X0070707Y0189439D02*
X0077569Y0189439D01*
X0096124Y0195833D02*
X0097476Y0195833D01*
X0097476Y0197432D02*
X0096124Y0197432D01*
X0096124Y0199030D02*
X0097476Y0199030D01*
X0096984Y0200629D02*
X0096616Y0200629D01*
X0096616Y0202227D02*
X0096984Y0202227D01*
X0096984Y0203826D02*
X0096616Y0203826D01*
X0096984Y0204484D02*
X0101568Y0204484D01*
X0101568Y0204675D01*
X0101451Y0205417D01*
X0101219Y0206130D01*
X0100878Y0206799D01*
X0100437Y0207406D01*
X0099906Y0207937D01*
X0099299Y0208378D01*
X0098630Y0208719D01*
X0097917Y0208951D01*
X0097175Y0209068D01*
X0096984Y0209068D01*
X0096984Y0204484D01*
X0096984Y0205424D02*
X0096616Y0205424D01*
X0096616Y0207023D02*
X0096984Y0207023D01*
X0096984Y0208621D02*
X0096616Y0208621D01*
X0098822Y0208621D02*
X0108626Y0208621D01*
X0107191Y0207023D02*
X0100716Y0207023D01*
X0101449Y0205424D02*
X0106529Y0205424D01*
X0106500Y0203826D02*
X0101553Y0203826D01*
X0101096Y0202227D02*
X0106500Y0202227D01*
X0106500Y0200629D02*
X0099860Y0200629D01*
X0100879Y0199030D02*
X0106500Y0199030D01*
X0106138Y0197432D02*
X0102195Y0197432D01*
X0102852Y0195833D02*
X0105476Y0195833D01*
X0130305Y0149476D02*
X0134125Y0149476D01*
X0139475Y0149476D02*
X0152947Y0149476D01*
X0154545Y0147878D02*
X0140450Y0147878D01*
X0140584Y0146279D02*
X0155516Y0146279D01*
X0156082Y0144681D02*
X0140018Y0144681D01*
X0139619Y0143082D02*
X0158386Y0143082D01*
X0157807Y0141484D02*
X0140509Y0141484D01*
X0140584Y0139885D02*
X0156208Y0139885D01*
X0154610Y0138287D02*
X0139889Y0138287D01*
X0138084Y0117506D02*
X0144200Y0117506D01*
X0144200Y0115908D02*
X0138026Y0115908D01*
X0137161Y0114309D02*
X0143044Y0114309D01*
X0141369Y0112711D02*
X0134736Y0112711D01*
X0133138Y0111112D02*
X0139695Y0111112D01*
X0138020Y0109514D02*
X0131539Y0109514D01*
X0134671Y0106317D02*
X0068150Y0106317D01*
X0068150Y0104718D02*
X0132996Y0104718D01*
X0131322Y0103120D02*
X0068150Y0103120D01*
X0068150Y0101521D02*
X0129647Y0101521D01*
X0127972Y0099923D02*
X0068150Y0099923D01*
X0068150Y0098324D02*
X0126298Y0098324D01*
X0124623Y0096726D02*
X0068150Y0096726D01*
X0068150Y0095127D02*
X0122949Y0095127D01*
X0121274Y0093529D02*
X0068150Y0093529D01*
X0068150Y0091930D02*
X0119599Y0091930D01*
X0117925Y0090332D02*
X0068150Y0090332D01*
X0068150Y0088733D02*
X0116759Y0088733D01*
X0116700Y0087134D02*
X0068150Y0087134D01*
X0068150Y0085536D02*
X0070931Y0085536D01*
X0068589Y0083937D02*
X0068150Y0083937D01*
X0068150Y0079142D02*
X0069106Y0079142D01*
X0068150Y0077543D02*
X0083866Y0077543D01*
X0082268Y0075945D02*
X0068150Y0075945D01*
X0068150Y0074346D02*
X0080669Y0074346D01*
X0079071Y0072748D02*
X0068150Y0072748D01*
X0068150Y0071149D02*
X0077472Y0071149D01*
X0074199Y0069551D02*
X0068150Y0069551D01*
X0068150Y0067952D02*
X0073181Y0067952D01*
X0073016Y0066354D02*
X0068150Y0066354D01*
X0068772Y0064755D02*
X0073551Y0064755D01*
X0075707Y0063157D02*
X0070370Y0063157D01*
X0066213Y0059960D02*
X0056067Y0059960D01*
X0054469Y0061558D02*
X0064615Y0061558D01*
X0063209Y0063157D02*
X0052870Y0063157D01*
X0051272Y0064755D02*
X0062950Y0064755D01*
X0062950Y0066354D02*
X0049673Y0066354D01*
X0048075Y0067952D02*
X0062950Y0067952D01*
X0062950Y0069551D02*
X0046476Y0069551D01*
X0044878Y0071149D02*
X0062950Y0071149D01*
X0062950Y0072748D02*
X0043279Y0072748D01*
X0041681Y0074346D02*
X0062950Y0074346D01*
X0062950Y0075945D02*
X0040082Y0075945D01*
X0038484Y0077543D02*
X0062950Y0077543D01*
X0062950Y0079142D02*
X0036885Y0079142D01*
X0035650Y0080740D02*
X0062950Y0080740D01*
X0062950Y0082339D02*
X0035650Y0082339D01*
X0035650Y0083937D02*
X0062950Y0083937D01*
X0062950Y0085536D02*
X0035650Y0085536D01*
X0035650Y0087134D02*
X0062950Y0087134D01*
X0062950Y0088733D02*
X0035650Y0088733D01*
X0035650Y0090332D02*
X0062950Y0090332D01*
X0062950Y0091930D02*
X0035650Y0091930D01*
X0035650Y0093529D02*
X0062950Y0093529D01*
X0062950Y0095127D02*
X0035650Y0095127D01*
X0035650Y0096726D02*
X0062950Y0096726D01*
X0062950Y0098324D02*
X0035650Y0098324D01*
X0035650Y0099923D02*
X0062950Y0099923D01*
X0062950Y0101521D02*
X0035650Y0101521D01*
X0035650Y0103120D02*
X0062950Y0103120D01*
X0062950Y0104718D02*
X0035650Y0104718D01*
X0035650Y0106317D02*
X0062950Y0106317D01*
X0062950Y0107915D02*
X0035650Y0107915D01*
X0035650Y0109514D02*
X0063342Y0109514D01*
X0064935Y0111112D02*
X0035650Y0111112D01*
X0035650Y0112711D02*
X0065581Y0112711D01*
X0066457Y0114309D02*
X0035650Y0114309D01*
X0069092Y0107915D02*
X0136346Y0107915D01*
X0141448Y0101521D02*
X0143669Y0101521D01*
X0143592Y0101444D02*
X0143016Y0100053D01*
X0143016Y0098547D01*
X0143592Y0097156D01*
X0144200Y0096548D01*
X0144200Y0042682D01*
X0143158Y0042250D01*
X0141350Y0040442D01*
X0140371Y0038079D01*
X0140371Y0035521D01*
X0141350Y0033158D01*
X0141500Y0033008D01*
X0141500Y0025746D01*
X0142307Y0023798D01*
X0143798Y0022307D01*
X0145746Y0021500D01*
X0147854Y0021500D01*
X0149802Y0022307D01*
X0151293Y0023798D01*
X0152100Y0025746D01*
X0152100Y0033008D01*
X0152250Y0033158D01*
X0153229Y0035521D01*
X0153229Y0038079D01*
X0152250Y0040442D01*
X0150442Y0042250D01*
X0149400Y0042682D01*
X0149400Y0096548D01*
X0150008Y0097156D01*
X0150584Y0098547D01*
X0150584Y0100053D01*
X0150008Y0101444D01*
X0148944Y0102508D01*
X0147553Y0103084D01*
X0146047Y0103084D01*
X0144656Y0102508D01*
X0143592Y0101444D01*
X0143016Y0099923D02*
X0139850Y0099923D01*
X0139400Y0098324D02*
X0143108Y0098324D01*
X0144023Y0096726D02*
X0139400Y0096726D01*
X0139400Y0095127D02*
X0144200Y0095127D01*
X0144200Y0093529D02*
X0139400Y0093529D01*
X0139400Y0091930D02*
X0144200Y0091930D01*
X0144200Y0090332D02*
X0139400Y0090332D01*
X0139400Y0088733D02*
X0144200Y0088733D01*
X0144200Y0087134D02*
X0139400Y0087134D01*
X0139400Y0085536D02*
X0144200Y0085536D01*
X0144200Y0083937D02*
X0139400Y0083937D01*
X0139400Y0082339D02*
X0144200Y0082339D01*
X0144200Y0080740D02*
X0139175Y0080740D01*
X0137819Y0079142D02*
X0144200Y0079142D01*
X0144200Y0077543D02*
X0136220Y0077543D01*
X0134622Y0075945D02*
X0144200Y0075945D01*
X0144200Y0074346D02*
X0133023Y0074346D01*
X0131425Y0072748D02*
X0144200Y0072748D01*
X0144200Y0071149D02*
X0129826Y0071149D01*
X0129400Y0069551D02*
X0144200Y0069551D01*
X0144200Y0067952D02*
X0129749Y0067952D01*
X0130563Y0066354D02*
X0144200Y0066354D01*
X0144200Y0064755D02*
X0130567Y0064755D01*
X0129759Y0063157D02*
X0144200Y0063157D01*
X0144200Y0061558D02*
X0094469Y0061558D01*
X0096067Y0059960D02*
X0144200Y0059960D01*
X0144200Y0058361D02*
X0105547Y0058361D01*
X0106162Y0056763D02*
X0144200Y0056763D01*
X0144200Y0055164D02*
X0106162Y0055164D01*
X0106162Y0053566D02*
X0144200Y0053566D01*
X0144200Y0051967D02*
X0105189Y0051967D01*
X0106162Y0050369D02*
X0144200Y0050369D01*
X0149400Y0050369D02*
X0206250Y0050369D01*
X0206250Y0051967D02*
X0149400Y0051967D01*
X0149400Y0053566D02*
X0206250Y0053566D01*
X0206250Y0055164D02*
X0149400Y0055164D01*
X0149400Y0056763D02*
X0206250Y0056763D01*
X0206250Y0058361D02*
X0149400Y0058361D01*
X0149400Y0059960D02*
X0206250Y0059960D01*
X0206250Y0061558D02*
X0149400Y0061558D01*
X0149400Y0063157D02*
X0206250Y0063157D01*
X0206250Y0064755D02*
X0149400Y0064755D01*
X0149400Y0066354D02*
X0206250Y0066354D01*
X0206250Y0067952D02*
X0149400Y0067952D01*
X0149400Y0069551D02*
X0206250Y0069551D01*
X0206250Y0071149D02*
X0149400Y0071149D01*
X0149400Y0072748D02*
X0206250Y0072748D01*
X0206250Y0074346D02*
X0149400Y0074346D01*
X0149400Y0075945D02*
X0206250Y0075945D01*
X0206250Y0077543D02*
X0149400Y0077543D01*
X0149400Y0079142D02*
X0154106Y0079142D01*
X0153143Y0080740D02*
X0149400Y0080740D01*
X0149400Y0082339D02*
X0153016Y0082339D01*
X0153589Y0083937D02*
X0149400Y0083937D01*
X0149400Y0085536D02*
X0154200Y0085536D01*
X0154200Y0087134D02*
X0149400Y0087134D01*
X0149400Y0088733D02*
X0154200Y0088733D01*
X0154200Y0090332D02*
X0149400Y0090332D01*
X0149400Y0091930D02*
X0154200Y0091930D01*
X0154200Y0093529D02*
X0149400Y0093529D01*
X0149400Y0095127D02*
X0154200Y0095127D01*
X0154200Y0096726D02*
X0149577Y0096726D01*
X0150492Y0098324D02*
X0154200Y0098324D01*
X0154200Y0099923D02*
X0150584Y0099923D01*
X0149931Y0101521D02*
X0154200Y0101521D01*
X0154200Y0103120D02*
X0143047Y0103120D01*
X0144645Y0104718D02*
X0154200Y0104718D01*
X0154200Y0106317D02*
X0146244Y0106317D01*
X0147842Y0107915D02*
X0154200Y0107915D01*
X0154200Y0109514D02*
X0149441Y0109514D01*
X0151039Y0111112D02*
X0154200Y0111112D01*
X0154200Y0112711D02*
X0152638Y0112711D01*
X0154100Y0114309D02*
X0154200Y0114309D01*
X0159400Y0125499D02*
X0163243Y0125499D01*
X0163016Y0127097D02*
X0159400Y0127097D01*
X0159400Y0128696D02*
X0163489Y0128696D01*
X0165347Y0130294D02*
X0159400Y0130294D01*
X0169629Y0117506D02*
X0172558Y0117506D01*
X0171228Y0115908D02*
X0174157Y0115908D01*
X0172826Y0114309D02*
X0176100Y0114309D01*
X0194359Y0122302D02*
X0196700Y0122302D01*
X0196700Y0120703D02*
X0195958Y0120703D01*
X0197300Y0095127D02*
X0206250Y0095127D01*
X0206250Y0093529D02*
X0196307Y0093529D01*
X0188892Y0091930D02*
X0184991Y0091930D01*
X0186590Y0093529D02*
X0187293Y0093529D01*
X0206250Y0088733D02*
X0159400Y0088733D01*
X0159400Y0087134D02*
X0206250Y0087134D01*
X0206250Y0085536D02*
X0159400Y0085536D01*
X0160011Y0083937D02*
X0206250Y0083937D01*
X0206250Y0082339D02*
X0160584Y0082339D01*
X0160457Y0080740D02*
X0206250Y0080740D01*
X0206250Y0079142D02*
X0159494Y0079142D01*
X0134200Y0083937D02*
X0130584Y0083937D01*
X0130384Y0085536D02*
X0134200Y0085536D01*
X0134200Y0087134D02*
X0129317Y0087134D01*
X0130084Y0082339D02*
X0133662Y0082339D01*
X0132064Y0080740D02*
X0128095Y0080740D01*
X0130465Y0079142D02*
X0125319Y0079142D01*
X0123720Y0077543D02*
X0128866Y0077543D01*
X0127268Y0075945D02*
X0089622Y0075945D01*
X0091220Y0077543D02*
X0114880Y0077543D01*
X0113281Y0079142D02*
X0092819Y0079142D01*
X0088023Y0074346D02*
X0125669Y0074346D01*
X0124378Y0072748D02*
X0086425Y0072748D01*
X0084826Y0071149D02*
X0124200Y0071149D01*
X0124200Y0069551D02*
X0083228Y0069551D01*
X0081629Y0067952D02*
X0123851Y0067952D01*
X0123037Y0066354D02*
X0080584Y0066354D01*
X0080049Y0064755D02*
X0123033Y0064755D01*
X0123841Y0063157D02*
X0077893Y0063157D01*
X0078697Y0051967D02*
X0098411Y0051967D01*
X0097438Y0050369D02*
X0081009Y0050369D01*
X0082608Y0048770D02*
X0097438Y0048770D01*
X0097438Y0047172D02*
X0084206Y0047172D01*
X0085805Y0045573D02*
X0097718Y0045573D01*
X0099200Y0043975D02*
X0087403Y0043975D01*
X0090138Y0042376D02*
X0098462Y0042376D01*
X0096686Y0040778D02*
X0091914Y0040778D01*
X0092773Y0039179D02*
X0095827Y0039179D01*
X0095371Y0037581D02*
X0093229Y0037581D01*
X0093229Y0035982D02*
X0095371Y0035982D01*
X0095842Y0034384D02*
X0092758Y0034384D01*
X0092100Y0032785D02*
X0096500Y0032785D01*
X0096500Y0031187D02*
X0092100Y0031187D01*
X0092100Y0029588D02*
X0096500Y0029588D01*
X0096500Y0027990D02*
X0092100Y0027990D01*
X0092100Y0026391D02*
X0096500Y0026391D01*
X0096895Y0024793D02*
X0091705Y0024793D01*
X0090689Y0023194D02*
X0097911Y0023194D01*
X0082911Y0023194D02*
X0075689Y0023194D01*
X0076705Y0024793D02*
X0081895Y0024793D01*
X0081500Y0026391D02*
X0077100Y0026391D01*
X0077100Y0027990D02*
X0081500Y0027990D01*
X0081500Y0029588D02*
X0077100Y0029588D01*
X0077100Y0031187D02*
X0081500Y0031187D01*
X0081500Y0032785D02*
X0077100Y0032785D01*
X0077758Y0034384D02*
X0080842Y0034384D01*
X0079840Y0035982D02*
X0078229Y0035982D01*
X0078229Y0037581D02*
X0078241Y0037581D01*
X0087219Y0053566D02*
X0057530Y0053566D01*
X0074494Y0079142D02*
X0085465Y0079142D01*
X0087064Y0080740D02*
X0075457Y0080740D01*
X0097666Y0058361D02*
X0098053Y0058361D01*
X0093509Y0055164D02*
X0092718Y0055164D01*
X0091381Y0053566D02*
X0095107Y0053566D01*
X0120138Y0042376D02*
X0128462Y0042376D01*
X0128158Y0042250D02*
X0126350Y0040442D01*
X0125371Y0038079D01*
X0125371Y0035521D01*
X0126350Y0033158D01*
X0126500Y0033008D01*
X0126500Y0025746D01*
X0127307Y0023798D01*
X0128798Y0022307D01*
X0130746Y0021500D01*
X0132854Y0021500D01*
X0134802Y0022307D01*
X0136293Y0023798D01*
X0137100Y0025746D01*
X0137100Y0033008D01*
X0137250Y0033158D01*
X0138229Y0035521D01*
X0138229Y0038079D01*
X0137250Y0040442D01*
X0135442Y0042250D01*
X0133079Y0043229D01*
X0130521Y0043229D01*
X0128158Y0042250D01*
X0126686Y0040778D02*
X0121914Y0040778D01*
X0122773Y0039179D02*
X0125827Y0039179D01*
X0125371Y0037581D02*
X0123229Y0037581D01*
X0123229Y0035982D02*
X0125371Y0035982D01*
X0125842Y0034384D02*
X0122758Y0034384D01*
X0122100Y0032785D02*
X0126500Y0032785D01*
X0126500Y0031187D02*
X0122100Y0031187D01*
X0122100Y0029588D02*
X0126500Y0029588D01*
X0126500Y0027990D02*
X0122100Y0027990D01*
X0122100Y0026391D02*
X0126500Y0026391D01*
X0126895Y0024793D02*
X0121705Y0024793D01*
X0120689Y0023194D02*
X0127911Y0023194D01*
X0130515Y0021596D02*
X0118085Y0021596D01*
X0133085Y0021596D02*
X0145515Y0021596D01*
X0148085Y0021596D02*
X0206250Y0021596D01*
X0206250Y0023194D02*
X0150689Y0023194D01*
X0151705Y0024793D02*
X0190951Y0024793D01*
X0191329Y0024636D02*
X0194476Y0024636D01*
X0197384Y0025841D01*
X0199610Y0028066D01*
X0200814Y0030974D01*
X0200814Y0034122D01*
X0199610Y0037030D01*
X0197384Y0039255D01*
X0194476Y0040460D01*
X0191329Y0040460D01*
X0188421Y0039255D01*
X0186195Y0037030D01*
X0184991Y0034122D01*
X0184991Y0030974D01*
X0186195Y0028066D01*
X0188421Y0025841D01*
X0191329Y0024636D01*
X0187870Y0026391D02*
X0152100Y0026391D01*
X0152100Y0027990D02*
X0186272Y0027990D01*
X0185565Y0029588D02*
X0152100Y0029588D01*
X0152100Y0031187D02*
X0184991Y0031187D01*
X0184991Y0032785D02*
X0152100Y0032785D01*
X0152758Y0034384D02*
X0185099Y0034384D01*
X0185761Y0035982D02*
X0153229Y0035982D01*
X0153229Y0037581D02*
X0186746Y0037581D01*
X0188345Y0039179D02*
X0152773Y0039179D01*
X0151914Y0040778D02*
X0206250Y0040778D01*
X0206250Y0042376D02*
X0150138Y0042376D01*
X0149400Y0043975D02*
X0206250Y0043975D01*
X0206250Y0045573D02*
X0149400Y0045573D01*
X0149400Y0047172D02*
X0206250Y0047172D01*
X0206250Y0048770D02*
X0149400Y0048770D01*
X0143462Y0042376D02*
X0135138Y0042376D01*
X0136914Y0040778D02*
X0141686Y0040778D01*
X0140827Y0039179D02*
X0137773Y0039179D01*
X0138229Y0037581D02*
X0140371Y0037581D01*
X0140371Y0035982D02*
X0138229Y0035982D01*
X0137758Y0034384D02*
X0140842Y0034384D01*
X0141500Y0032785D02*
X0137100Y0032785D01*
X0137100Y0031187D02*
X0141500Y0031187D01*
X0141500Y0029588D02*
X0137100Y0029588D01*
X0137100Y0027990D02*
X0141500Y0027990D01*
X0141500Y0026391D02*
X0137100Y0026391D01*
X0136705Y0024793D02*
X0141895Y0024793D01*
X0142911Y0023194D02*
X0135689Y0023194D01*
X0194854Y0024793D02*
X0206250Y0024793D01*
X0206250Y0026391D02*
X0197934Y0026391D01*
X0199533Y0027990D02*
X0206250Y0027990D01*
X0206250Y0029588D02*
X0200240Y0029588D01*
X0200814Y0031187D02*
X0206250Y0031187D01*
X0206250Y0032785D02*
X0200814Y0032785D01*
X0200706Y0034384D02*
X0206250Y0034384D01*
X0206250Y0035982D02*
X0200044Y0035982D01*
X0199059Y0037581D02*
X0206250Y0037581D01*
X0206250Y0039179D02*
X0197460Y0039179D01*
X0206250Y0019997D02*
X0014200Y0019997D01*
X0014200Y0024793D02*
X0025597Y0024793D01*
X0022516Y0026391D02*
X0014200Y0026391D01*
X0014200Y0027990D02*
X0020917Y0027990D01*
X0020210Y0029588D02*
X0014200Y0029588D01*
X0014200Y0031187D02*
X0019636Y0031187D01*
X0019636Y0032785D02*
X0014200Y0032785D01*
X0014200Y0034384D02*
X0019745Y0034384D01*
X0020407Y0035982D02*
X0014200Y0035982D01*
X0014200Y0037581D02*
X0021392Y0037581D01*
X0022990Y0039179D02*
X0014200Y0039179D01*
X0122106Y0087134D02*
X0124283Y0087134D01*
X0123781Y0088733D02*
X0134200Y0088733D01*
X0134200Y0090332D02*
X0125456Y0090332D01*
X0127130Y0091930D02*
X0134200Y0091930D01*
X0134200Y0093529D02*
X0128805Y0093529D01*
X0130480Y0095127D02*
X0134200Y0095127D01*
X0134200Y0096726D02*
X0132154Y0096726D01*
X0133829Y0098324D02*
X0134200Y0098324D01*
X0123216Y0085536D02*
X0122884Y0085536D01*
X0170342Y0165462D02*
X0184461Y0165462D01*
X0182863Y0167060D02*
X0170584Y0167060D01*
X0170126Y0168659D02*
X0181264Y0168659D01*
X0179666Y0170257D02*
X0168343Y0170257D01*
D18*
X0166800Y0166800D03*
X0166800Y0159300D03*
X0171800Y0146800D03*
X0159300Y0146800D03*
X0169300Y0134300D03*
X0166800Y0126800D03*
X0164300Y0119300D03*
X0151800Y0130550D03*
X0146800Y0131800D03*
X0136800Y0140550D03*
X0136800Y0146800D03*
X0126800Y0148050D03*
X0120550Y0156800D03*
X0125550Y0164300D03*
X0135550Y0164300D03*
X0135550Y0179300D03*
X0125550Y0179300D03*
X0149300Y0179300D03*
X0156800Y0179300D03*
X0179300Y0174300D03*
X0181800Y0131800D03*
X0146800Y0099300D03*
X0156800Y0081800D03*
X0126800Y0084300D03*
X0119300Y0084300D03*
X0111800Y0091800D03*
X0134300Y0116800D03*
X0114300Y0119300D03*
X0106800Y0140550D03*
X0106800Y0148050D03*
X0091800Y0160550D03*
X0069300Y0111800D03*
X0051800Y0086800D03*
X0046800Y0086800D03*
X0041800Y0086800D03*
X0071800Y0081800D03*
X0076800Y0066800D03*
X0089300Y0056800D03*
X0126800Y0065550D03*
X0041800Y0151800D03*
X0041800Y0156800D03*
X0041800Y0161800D03*
D19*
X0041800Y0156800D02*
X0041800Y0141800D01*
X0033050Y0133050D01*
X0033050Y0079300D01*
X0055550Y0056800D01*
X0089300Y0056800D01*
X0085550Y0059300D02*
X0070550Y0059300D01*
X0065550Y0064300D01*
X0065550Y0108050D01*
X0069300Y0111800D01*
X0091800Y0133050D02*
X0105550Y0119300D01*
X0114300Y0119300D01*
X0106800Y0140550D02*
X0136800Y0140550D01*
X0136800Y0146800D02*
X0128050Y0146800D01*
X0126800Y0148050D01*
X0106800Y0148050D01*
X0120550Y0156800D02*
X0149300Y0156800D01*
X0159300Y0146800D01*
X0166800Y0146800D02*
X0156800Y0136800D01*
X0156800Y0081800D01*
X0146800Y0099300D02*
X0146800Y0026800D01*
X0126800Y0065550D02*
X0126800Y0071800D01*
X0136800Y0081800D01*
X0136800Y0100550D01*
X0151800Y0115550D01*
X0151800Y0130550D01*
X0146800Y0131800D02*
X0146800Y0114300D01*
X0119300Y0088050D01*
X0119300Y0084300D01*
X0074300Y0084300D01*
X0071800Y0081800D01*
X0076800Y0066800D02*
X0091800Y0081800D01*
X0114300Y0081800D01*
X0116800Y0079300D01*
X0121800Y0079300D01*
X0126800Y0084300D01*
X0101800Y0055343D02*
X0097007Y0055343D01*
X0091800Y0060550D01*
X0086800Y0060550D01*
X0085550Y0059300D01*
X0101800Y0048257D02*
X0101800Y0036800D01*
X0181800Y0096800D02*
X0186800Y0101800D01*
X0196800Y0101800D01*
X0199300Y0104300D01*
X0199300Y0154300D01*
X0179300Y0174300D01*
X0166800Y0166800D02*
X0160550Y0160550D01*
X0091800Y0160550D01*
X0091800Y0133050D01*
X0125550Y0164300D02*
X0129300Y0168050D01*
X0141800Y0168050D01*
X0149300Y0175550D01*
X0149300Y0179300D01*
X0141800Y0179300D02*
X0156800Y0194300D01*
X0156800Y0179300D02*
X0141800Y0164300D01*
X0135550Y0164300D01*
X0135550Y0179300D02*
X0141800Y0179300D01*
X0126800Y0179300D02*
X0141800Y0194300D01*
X0126800Y0179300D02*
X0125550Y0179300D01*
X0166800Y0159300D02*
X0166800Y0146800D01*
D20*
X0171800Y0146800D02*
X0181800Y0136800D01*
X0181800Y0131800D01*
X0134300Y0116800D02*
X0129300Y0111800D01*
X0069300Y0111800D01*
D21*
X0076800Y0046800D02*
X0086800Y0036800D01*
D22*
X0164300Y0119300D02*
X0171800Y0111800D01*
X0176800Y0111800D01*
X0181800Y0106800D01*
X0186800Y0111800D02*
X0186800Y0126800D01*
X0176800Y0126800D01*
X0169300Y0134300D01*
X0166800Y0126800D02*
X0176800Y0116800D01*
X0181800Y0116800D01*
X0186800Y0111800D02*
X0191800Y0106800D01*
M02*
