G75*
%MOIN*%
%OFA0B0*%
%FSLAX25Y25*%
%IPPOS*%
%LPD*%
%AMOC8*
5,1,8,0,0,1.08239X$1,22.5*
%
%ADD10C,0.00000*%
D10*
X0011800Y0016800D02*
X0011800Y0213650D01*
X0208650Y0213650D01*
X0208650Y0016800D01*
X0011800Y0016800D01*
X0022036Y0032548D02*
X0022038Y0032696D01*
X0022044Y0032844D01*
X0022054Y0032992D01*
X0022068Y0033139D01*
X0022086Y0033286D01*
X0022107Y0033432D01*
X0022133Y0033578D01*
X0022163Y0033723D01*
X0022196Y0033867D01*
X0022234Y0034010D01*
X0022275Y0034152D01*
X0022320Y0034293D01*
X0022368Y0034433D01*
X0022421Y0034572D01*
X0022477Y0034709D01*
X0022537Y0034844D01*
X0022600Y0034978D01*
X0022667Y0035110D01*
X0022738Y0035240D01*
X0022812Y0035368D01*
X0022889Y0035494D01*
X0022970Y0035618D01*
X0023054Y0035740D01*
X0023141Y0035859D01*
X0023232Y0035976D01*
X0023326Y0036091D01*
X0023422Y0036203D01*
X0023522Y0036313D01*
X0023624Y0036419D01*
X0023730Y0036523D01*
X0023838Y0036624D01*
X0023949Y0036722D01*
X0024062Y0036818D01*
X0024178Y0036910D01*
X0024296Y0036999D01*
X0024417Y0037084D01*
X0024540Y0037167D01*
X0024665Y0037246D01*
X0024792Y0037322D01*
X0024921Y0037394D01*
X0025052Y0037463D01*
X0025185Y0037528D01*
X0025320Y0037589D01*
X0025456Y0037647D01*
X0025593Y0037702D01*
X0025732Y0037752D01*
X0025873Y0037799D01*
X0026014Y0037842D01*
X0026157Y0037882D01*
X0026301Y0037917D01*
X0026445Y0037949D01*
X0026591Y0037976D01*
X0026737Y0038000D01*
X0026884Y0038020D01*
X0027031Y0038036D01*
X0027178Y0038048D01*
X0027326Y0038056D01*
X0027474Y0038060D01*
X0027622Y0038060D01*
X0027770Y0038056D01*
X0027918Y0038048D01*
X0028065Y0038036D01*
X0028212Y0038020D01*
X0028359Y0038000D01*
X0028505Y0037976D01*
X0028651Y0037949D01*
X0028795Y0037917D01*
X0028939Y0037882D01*
X0029082Y0037842D01*
X0029223Y0037799D01*
X0029364Y0037752D01*
X0029503Y0037702D01*
X0029640Y0037647D01*
X0029776Y0037589D01*
X0029911Y0037528D01*
X0030044Y0037463D01*
X0030175Y0037394D01*
X0030304Y0037322D01*
X0030431Y0037246D01*
X0030556Y0037167D01*
X0030679Y0037084D01*
X0030800Y0036999D01*
X0030918Y0036910D01*
X0031034Y0036818D01*
X0031147Y0036722D01*
X0031258Y0036624D01*
X0031366Y0036523D01*
X0031472Y0036419D01*
X0031574Y0036313D01*
X0031674Y0036203D01*
X0031770Y0036091D01*
X0031864Y0035976D01*
X0031955Y0035859D01*
X0032042Y0035740D01*
X0032126Y0035618D01*
X0032207Y0035494D01*
X0032284Y0035368D01*
X0032358Y0035240D01*
X0032429Y0035110D01*
X0032496Y0034978D01*
X0032559Y0034844D01*
X0032619Y0034709D01*
X0032675Y0034572D01*
X0032728Y0034433D01*
X0032776Y0034293D01*
X0032821Y0034152D01*
X0032862Y0034010D01*
X0032900Y0033867D01*
X0032933Y0033723D01*
X0032963Y0033578D01*
X0032989Y0033432D01*
X0033010Y0033286D01*
X0033028Y0033139D01*
X0033042Y0032992D01*
X0033052Y0032844D01*
X0033058Y0032696D01*
X0033060Y0032548D01*
X0033058Y0032400D01*
X0033052Y0032252D01*
X0033042Y0032104D01*
X0033028Y0031957D01*
X0033010Y0031810D01*
X0032989Y0031664D01*
X0032963Y0031518D01*
X0032933Y0031373D01*
X0032900Y0031229D01*
X0032862Y0031086D01*
X0032821Y0030944D01*
X0032776Y0030803D01*
X0032728Y0030663D01*
X0032675Y0030524D01*
X0032619Y0030387D01*
X0032559Y0030252D01*
X0032496Y0030118D01*
X0032429Y0029986D01*
X0032358Y0029856D01*
X0032284Y0029728D01*
X0032207Y0029602D01*
X0032126Y0029478D01*
X0032042Y0029356D01*
X0031955Y0029237D01*
X0031864Y0029120D01*
X0031770Y0029005D01*
X0031674Y0028893D01*
X0031574Y0028783D01*
X0031472Y0028677D01*
X0031366Y0028573D01*
X0031258Y0028472D01*
X0031147Y0028374D01*
X0031034Y0028278D01*
X0030918Y0028186D01*
X0030800Y0028097D01*
X0030679Y0028012D01*
X0030556Y0027929D01*
X0030431Y0027850D01*
X0030304Y0027774D01*
X0030175Y0027702D01*
X0030044Y0027633D01*
X0029911Y0027568D01*
X0029776Y0027507D01*
X0029640Y0027449D01*
X0029503Y0027394D01*
X0029364Y0027344D01*
X0029223Y0027297D01*
X0029082Y0027254D01*
X0028939Y0027214D01*
X0028795Y0027179D01*
X0028651Y0027147D01*
X0028505Y0027120D01*
X0028359Y0027096D01*
X0028212Y0027076D01*
X0028065Y0027060D01*
X0027918Y0027048D01*
X0027770Y0027040D01*
X0027622Y0027036D01*
X0027474Y0027036D01*
X0027326Y0027040D01*
X0027178Y0027048D01*
X0027031Y0027060D01*
X0026884Y0027076D01*
X0026737Y0027096D01*
X0026591Y0027120D01*
X0026445Y0027147D01*
X0026301Y0027179D01*
X0026157Y0027214D01*
X0026014Y0027254D01*
X0025873Y0027297D01*
X0025732Y0027344D01*
X0025593Y0027394D01*
X0025456Y0027449D01*
X0025320Y0027507D01*
X0025185Y0027568D01*
X0025052Y0027633D01*
X0024921Y0027702D01*
X0024792Y0027774D01*
X0024665Y0027850D01*
X0024540Y0027929D01*
X0024417Y0028012D01*
X0024296Y0028097D01*
X0024178Y0028186D01*
X0024062Y0028278D01*
X0023949Y0028374D01*
X0023838Y0028472D01*
X0023730Y0028573D01*
X0023624Y0028677D01*
X0023522Y0028783D01*
X0023422Y0028893D01*
X0023326Y0029005D01*
X0023232Y0029120D01*
X0023141Y0029237D01*
X0023054Y0029356D01*
X0022970Y0029478D01*
X0022889Y0029602D01*
X0022812Y0029728D01*
X0022738Y0029856D01*
X0022667Y0029986D01*
X0022600Y0030118D01*
X0022537Y0030252D01*
X0022477Y0030387D01*
X0022421Y0030524D01*
X0022368Y0030663D01*
X0022320Y0030803D01*
X0022275Y0030944D01*
X0022234Y0031086D01*
X0022196Y0031229D01*
X0022163Y0031373D01*
X0022133Y0031518D01*
X0022107Y0031664D01*
X0022086Y0031810D01*
X0022068Y0031957D01*
X0022054Y0032104D01*
X0022044Y0032252D01*
X0022038Y0032400D01*
X0022036Y0032548D01*
X0022036Y0197902D02*
X0022038Y0198050D01*
X0022044Y0198198D01*
X0022054Y0198346D01*
X0022068Y0198493D01*
X0022086Y0198640D01*
X0022107Y0198786D01*
X0022133Y0198932D01*
X0022163Y0199077D01*
X0022196Y0199221D01*
X0022234Y0199364D01*
X0022275Y0199506D01*
X0022320Y0199647D01*
X0022368Y0199787D01*
X0022421Y0199926D01*
X0022477Y0200063D01*
X0022537Y0200198D01*
X0022600Y0200332D01*
X0022667Y0200464D01*
X0022738Y0200594D01*
X0022812Y0200722D01*
X0022889Y0200848D01*
X0022970Y0200972D01*
X0023054Y0201094D01*
X0023141Y0201213D01*
X0023232Y0201330D01*
X0023326Y0201445D01*
X0023422Y0201557D01*
X0023522Y0201667D01*
X0023624Y0201773D01*
X0023730Y0201877D01*
X0023838Y0201978D01*
X0023949Y0202076D01*
X0024062Y0202172D01*
X0024178Y0202264D01*
X0024296Y0202353D01*
X0024417Y0202438D01*
X0024540Y0202521D01*
X0024665Y0202600D01*
X0024792Y0202676D01*
X0024921Y0202748D01*
X0025052Y0202817D01*
X0025185Y0202882D01*
X0025320Y0202943D01*
X0025456Y0203001D01*
X0025593Y0203056D01*
X0025732Y0203106D01*
X0025873Y0203153D01*
X0026014Y0203196D01*
X0026157Y0203236D01*
X0026301Y0203271D01*
X0026445Y0203303D01*
X0026591Y0203330D01*
X0026737Y0203354D01*
X0026884Y0203374D01*
X0027031Y0203390D01*
X0027178Y0203402D01*
X0027326Y0203410D01*
X0027474Y0203414D01*
X0027622Y0203414D01*
X0027770Y0203410D01*
X0027918Y0203402D01*
X0028065Y0203390D01*
X0028212Y0203374D01*
X0028359Y0203354D01*
X0028505Y0203330D01*
X0028651Y0203303D01*
X0028795Y0203271D01*
X0028939Y0203236D01*
X0029082Y0203196D01*
X0029223Y0203153D01*
X0029364Y0203106D01*
X0029503Y0203056D01*
X0029640Y0203001D01*
X0029776Y0202943D01*
X0029911Y0202882D01*
X0030044Y0202817D01*
X0030175Y0202748D01*
X0030304Y0202676D01*
X0030431Y0202600D01*
X0030556Y0202521D01*
X0030679Y0202438D01*
X0030800Y0202353D01*
X0030918Y0202264D01*
X0031034Y0202172D01*
X0031147Y0202076D01*
X0031258Y0201978D01*
X0031366Y0201877D01*
X0031472Y0201773D01*
X0031574Y0201667D01*
X0031674Y0201557D01*
X0031770Y0201445D01*
X0031864Y0201330D01*
X0031955Y0201213D01*
X0032042Y0201094D01*
X0032126Y0200972D01*
X0032207Y0200848D01*
X0032284Y0200722D01*
X0032358Y0200594D01*
X0032429Y0200464D01*
X0032496Y0200332D01*
X0032559Y0200198D01*
X0032619Y0200063D01*
X0032675Y0199926D01*
X0032728Y0199787D01*
X0032776Y0199647D01*
X0032821Y0199506D01*
X0032862Y0199364D01*
X0032900Y0199221D01*
X0032933Y0199077D01*
X0032963Y0198932D01*
X0032989Y0198786D01*
X0033010Y0198640D01*
X0033028Y0198493D01*
X0033042Y0198346D01*
X0033052Y0198198D01*
X0033058Y0198050D01*
X0033060Y0197902D01*
X0033058Y0197754D01*
X0033052Y0197606D01*
X0033042Y0197458D01*
X0033028Y0197311D01*
X0033010Y0197164D01*
X0032989Y0197018D01*
X0032963Y0196872D01*
X0032933Y0196727D01*
X0032900Y0196583D01*
X0032862Y0196440D01*
X0032821Y0196298D01*
X0032776Y0196157D01*
X0032728Y0196017D01*
X0032675Y0195878D01*
X0032619Y0195741D01*
X0032559Y0195606D01*
X0032496Y0195472D01*
X0032429Y0195340D01*
X0032358Y0195210D01*
X0032284Y0195082D01*
X0032207Y0194956D01*
X0032126Y0194832D01*
X0032042Y0194710D01*
X0031955Y0194591D01*
X0031864Y0194474D01*
X0031770Y0194359D01*
X0031674Y0194247D01*
X0031574Y0194137D01*
X0031472Y0194031D01*
X0031366Y0193927D01*
X0031258Y0193826D01*
X0031147Y0193728D01*
X0031034Y0193632D01*
X0030918Y0193540D01*
X0030800Y0193451D01*
X0030679Y0193366D01*
X0030556Y0193283D01*
X0030431Y0193204D01*
X0030304Y0193128D01*
X0030175Y0193056D01*
X0030044Y0192987D01*
X0029911Y0192922D01*
X0029776Y0192861D01*
X0029640Y0192803D01*
X0029503Y0192748D01*
X0029364Y0192698D01*
X0029223Y0192651D01*
X0029082Y0192608D01*
X0028939Y0192568D01*
X0028795Y0192533D01*
X0028651Y0192501D01*
X0028505Y0192474D01*
X0028359Y0192450D01*
X0028212Y0192430D01*
X0028065Y0192414D01*
X0027918Y0192402D01*
X0027770Y0192394D01*
X0027622Y0192390D01*
X0027474Y0192390D01*
X0027326Y0192394D01*
X0027178Y0192402D01*
X0027031Y0192414D01*
X0026884Y0192430D01*
X0026737Y0192450D01*
X0026591Y0192474D01*
X0026445Y0192501D01*
X0026301Y0192533D01*
X0026157Y0192568D01*
X0026014Y0192608D01*
X0025873Y0192651D01*
X0025732Y0192698D01*
X0025593Y0192748D01*
X0025456Y0192803D01*
X0025320Y0192861D01*
X0025185Y0192922D01*
X0025052Y0192987D01*
X0024921Y0193056D01*
X0024792Y0193128D01*
X0024665Y0193204D01*
X0024540Y0193283D01*
X0024417Y0193366D01*
X0024296Y0193451D01*
X0024178Y0193540D01*
X0024062Y0193632D01*
X0023949Y0193728D01*
X0023838Y0193826D01*
X0023730Y0193927D01*
X0023624Y0194031D01*
X0023522Y0194137D01*
X0023422Y0194247D01*
X0023326Y0194359D01*
X0023232Y0194474D01*
X0023141Y0194591D01*
X0023054Y0194710D01*
X0022970Y0194832D01*
X0022889Y0194956D01*
X0022812Y0195082D01*
X0022738Y0195210D01*
X0022667Y0195340D01*
X0022600Y0195472D01*
X0022537Y0195606D01*
X0022477Y0195741D01*
X0022421Y0195878D01*
X0022368Y0196017D01*
X0022320Y0196157D01*
X0022275Y0196298D01*
X0022234Y0196440D01*
X0022196Y0196583D01*
X0022163Y0196727D01*
X0022133Y0196872D01*
X0022107Y0197018D01*
X0022086Y0197164D01*
X0022068Y0197311D01*
X0022054Y0197458D01*
X0022044Y0197606D01*
X0022038Y0197754D01*
X0022036Y0197902D01*
X0187390Y0197902D02*
X0187392Y0198050D01*
X0187398Y0198198D01*
X0187408Y0198346D01*
X0187422Y0198493D01*
X0187440Y0198640D01*
X0187461Y0198786D01*
X0187487Y0198932D01*
X0187517Y0199077D01*
X0187550Y0199221D01*
X0187588Y0199364D01*
X0187629Y0199506D01*
X0187674Y0199647D01*
X0187722Y0199787D01*
X0187775Y0199926D01*
X0187831Y0200063D01*
X0187891Y0200198D01*
X0187954Y0200332D01*
X0188021Y0200464D01*
X0188092Y0200594D01*
X0188166Y0200722D01*
X0188243Y0200848D01*
X0188324Y0200972D01*
X0188408Y0201094D01*
X0188495Y0201213D01*
X0188586Y0201330D01*
X0188680Y0201445D01*
X0188776Y0201557D01*
X0188876Y0201667D01*
X0188978Y0201773D01*
X0189084Y0201877D01*
X0189192Y0201978D01*
X0189303Y0202076D01*
X0189416Y0202172D01*
X0189532Y0202264D01*
X0189650Y0202353D01*
X0189771Y0202438D01*
X0189894Y0202521D01*
X0190019Y0202600D01*
X0190146Y0202676D01*
X0190275Y0202748D01*
X0190406Y0202817D01*
X0190539Y0202882D01*
X0190674Y0202943D01*
X0190810Y0203001D01*
X0190947Y0203056D01*
X0191086Y0203106D01*
X0191227Y0203153D01*
X0191368Y0203196D01*
X0191511Y0203236D01*
X0191655Y0203271D01*
X0191799Y0203303D01*
X0191945Y0203330D01*
X0192091Y0203354D01*
X0192238Y0203374D01*
X0192385Y0203390D01*
X0192532Y0203402D01*
X0192680Y0203410D01*
X0192828Y0203414D01*
X0192976Y0203414D01*
X0193124Y0203410D01*
X0193272Y0203402D01*
X0193419Y0203390D01*
X0193566Y0203374D01*
X0193713Y0203354D01*
X0193859Y0203330D01*
X0194005Y0203303D01*
X0194149Y0203271D01*
X0194293Y0203236D01*
X0194436Y0203196D01*
X0194577Y0203153D01*
X0194718Y0203106D01*
X0194857Y0203056D01*
X0194994Y0203001D01*
X0195130Y0202943D01*
X0195265Y0202882D01*
X0195398Y0202817D01*
X0195529Y0202748D01*
X0195658Y0202676D01*
X0195785Y0202600D01*
X0195910Y0202521D01*
X0196033Y0202438D01*
X0196154Y0202353D01*
X0196272Y0202264D01*
X0196388Y0202172D01*
X0196501Y0202076D01*
X0196612Y0201978D01*
X0196720Y0201877D01*
X0196826Y0201773D01*
X0196928Y0201667D01*
X0197028Y0201557D01*
X0197124Y0201445D01*
X0197218Y0201330D01*
X0197309Y0201213D01*
X0197396Y0201094D01*
X0197480Y0200972D01*
X0197561Y0200848D01*
X0197638Y0200722D01*
X0197712Y0200594D01*
X0197783Y0200464D01*
X0197850Y0200332D01*
X0197913Y0200198D01*
X0197973Y0200063D01*
X0198029Y0199926D01*
X0198082Y0199787D01*
X0198130Y0199647D01*
X0198175Y0199506D01*
X0198216Y0199364D01*
X0198254Y0199221D01*
X0198287Y0199077D01*
X0198317Y0198932D01*
X0198343Y0198786D01*
X0198364Y0198640D01*
X0198382Y0198493D01*
X0198396Y0198346D01*
X0198406Y0198198D01*
X0198412Y0198050D01*
X0198414Y0197902D01*
X0198412Y0197754D01*
X0198406Y0197606D01*
X0198396Y0197458D01*
X0198382Y0197311D01*
X0198364Y0197164D01*
X0198343Y0197018D01*
X0198317Y0196872D01*
X0198287Y0196727D01*
X0198254Y0196583D01*
X0198216Y0196440D01*
X0198175Y0196298D01*
X0198130Y0196157D01*
X0198082Y0196017D01*
X0198029Y0195878D01*
X0197973Y0195741D01*
X0197913Y0195606D01*
X0197850Y0195472D01*
X0197783Y0195340D01*
X0197712Y0195210D01*
X0197638Y0195082D01*
X0197561Y0194956D01*
X0197480Y0194832D01*
X0197396Y0194710D01*
X0197309Y0194591D01*
X0197218Y0194474D01*
X0197124Y0194359D01*
X0197028Y0194247D01*
X0196928Y0194137D01*
X0196826Y0194031D01*
X0196720Y0193927D01*
X0196612Y0193826D01*
X0196501Y0193728D01*
X0196388Y0193632D01*
X0196272Y0193540D01*
X0196154Y0193451D01*
X0196033Y0193366D01*
X0195910Y0193283D01*
X0195785Y0193204D01*
X0195658Y0193128D01*
X0195529Y0193056D01*
X0195398Y0192987D01*
X0195265Y0192922D01*
X0195130Y0192861D01*
X0194994Y0192803D01*
X0194857Y0192748D01*
X0194718Y0192698D01*
X0194577Y0192651D01*
X0194436Y0192608D01*
X0194293Y0192568D01*
X0194149Y0192533D01*
X0194005Y0192501D01*
X0193859Y0192474D01*
X0193713Y0192450D01*
X0193566Y0192430D01*
X0193419Y0192414D01*
X0193272Y0192402D01*
X0193124Y0192394D01*
X0192976Y0192390D01*
X0192828Y0192390D01*
X0192680Y0192394D01*
X0192532Y0192402D01*
X0192385Y0192414D01*
X0192238Y0192430D01*
X0192091Y0192450D01*
X0191945Y0192474D01*
X0191799Y0192501D01*
X0191655Y0192533D01*
X0191511Y0192568D01*
X0191368Y0192608D01*
X0191227Y0192651D01*
X0191086Y0192698D01*
X0190947Y0192748D01*
X0190810Y0192803D01*
X0190674Y0192861D01*
X0190539Y0192922D01*
X0190406Y0192987D01*
X0190275Y0193056D01*
X0190146Y0193128D01*
X0190019Y0193204D01*
X0189894Y0193283D01*
X0189771Y0193366D01*
X0189650Y0193451D01*
X0189532Y0193540D01*
X0189416Y0193632D01*
X0189303Y0193728D01*
X0189192Y0193826D01*
X0189084Y0193927D01*
X0188978Y0194031D01*
X0188876Y0194137D01*
X0188776Y0194247D01*
X0188680Y0194359D01*
X0188586Y0194474D01*
X0188495Y0194591D01*
X0188408Y0194710D01*
X0188324Y0194832D01*
X0188243Y0194956D01*
X0188166Y0195082D01*
X0188092Y0195210D01*
X0188021Y0195340D01*
X0187954Y0195472D01*
X0187891Y0195606D01*
X0187831Y0195741D01*
X0187775Y0195878D01*
X0187722Y0196017D01*
X0187674Y0196157D01*
X0187629Y0196298D01*
X0187588Y0196440D01*
X0187550Y0196583D01*
X0187517Y0196727D01*
X0187487Y0196872D01*
X0187461Y0197018D01*
X0187440Y0197164D01*
X0187422Y0197311D01*
X0187408Y0197458D01*
X0187398Y0197606D01*
X0187392Y0197754D01*
X0187390Y0197902D01*
X0187390Y0032548D02*
X0187392Y0032696D01*
X0187398Y0032844D01*
X0187408Y0032992D01*
X0187422Y0033139D01*
X0187440Y0033286D01*
X0187461Y0033432D01*
X0187487Y0033578D01*
X0187517Y0033723D01*
X0187550Y0033867D01*
X0187588Y0034010D01*
X0187629Y0034152D01*
X0187674Y0034293D01*
X0187722Y0034433D01*
X0187775Y0034572D01*
X0187831Y0034709D01*
X0187891Y0034844D01*
X0187954Y0034978D01*
X0188021Y0035110D01*
X0188092Y0035240D01*
X0188166Y0035368D01*
X0188243Y0035494D01*
X0188324Y0035618D01*
X0188408Y0035740D01*
X0188495Y0035859D01*
X0188586Y0035976D01*
X0188680Y0036091D01*
X0188776Y0036203D01*
X0188876Y0036313D01*
X0188978Y0036419D01*
X0189084Y0036523D01*
X0189192Y0036624D01*
X0189303Y0036722D01*
X0189416Y0036818D01*
X0189532Y0036910D01*
X0189650Y0036999D01*
X0189771Y0037084D01*
X0189894Y0037167D01*
X0190019Y0037246D01*
X0190146Y0037322D01*
X0190275Y0037394D01*
X0190406Y0037463D01*
X0190539Y0037528D01*
X0190674Y0037589D01*
X0190810Y0037647D01*
X0190947Y0037702D01*
X0191086Y0037752D01*
X0191227Y0037799D01*
X0191368Y0037842D01*
X0191511Y0037882D01*
X0191655Y0037917D01*
X0191799Y0037949D01*
X0191945Y0037976D01*
X0192091Y0038000D01*
X0192238Y0038020D01*
X0192385Y0038036D01*
X0192532Y0038048D01*
X0192680Y0038056D01*
X0192828Y0038060D01*
X0192976Y0038060D01*
X0193124Y0038056D01*
X0193272Y0038048D01*
X0193419Y0038036D01*
X0193566Y0038020D01*
X0193713Y0038000D01*
X0193859Y0037976D01*
X0194005Y0037949D01*
X0194149Y0037917D01*
X0194293Y0037882D01*
X0194436Y0037842D01*
X0194577Y0037799D01*
X0194718Y0037752D01*
X0194857Y0037702D01*
X0194994Y0037647D01*
X0195130Y0037589D01*
X0195265Y0037528D01*
X0195398Y0037463D01*
X0195529Y0037394D01*
X0195658Y0037322D01*
X0195785Y0037246D01*
X0195910Y0037167D01*
X0196033Y0037084D01*
X0196154Y0036999D01*
X0196272Y0036910D01*
X0196388Y0036818D01*
X0196501Y0036722D01*
X0196612Y0036624D01*
X0196720Y0036523D01*
X0196826Y0036419D01*
X0196928Y0036313D01*
X0197028Y0036203D01*
X0197124Y0036091D01*
X0197218Y0035976D01*
X0197309Y0035859D01*
X0197396Y0035740D01*
X0197480Y0035618D01*
X0197561Y0035494D01*
X0197638Y0035368D01*
X0197712Y0035240D01*
X0197783Y0035110D01*
X0197850Y0034978D01*
X0197913Y0034844D01*
X0197973Y0034709D01*
X0198029Y0034572D01*
X0198082Y0034433D01*
X0198130Y0034293D01*
X0198175Y0034152D01*
X0198216Y0034010D01*
X0198254Y0033867D01*
X0198287Y0033723D01*
X0198317Y0033578D01*
X0198343Y0033432D01*
X0198364Y0033286D01*
X0198382Y0033139D01*
X0198396Y0032992D01*
X0198406Y0032844D01*
X0198412Y0032696D01*
X0198414Y0032548D01*
X0198412Y0032400D01*
X0198406Y0032252D01*
X0198396Y0032104D01*
X0198382Y0031957D01*
X0198364Y0031810D01*
X0198343Y0031664D01*
X0198317Y0031518D01*
X0198287Y0031373D01*
X0198254Y0031229D01*
X0198216Y0031086D01*
X0198175Y0030944D01*
X0198130Y0030803D01*
X0198082Y0030663D01*
X0198029Y0030524D01*
X0197973Y0030387D01*
X0197913Y0030252D01*
X0197850Y0030118D01*
X0197783Y0029986D01*
X0197712Y0029856D01*
X0197638Y0029728D01*
X0197561Y0029602D01*
X0197480Y0029478D01*
X0197396Y0029356D01*
X0197309Y0029237D01*
X0197218Y0029120D01*
X0197124Y0029005D01*
X0197028Y0028893D01*
X0196928Y0028783D01*
X0196826Y0028677D01*
X0196720Y0028573D01*
X0196612Y0028472D01*
X0196501Y0028374D01*
X0196388Y0028278D01*
X0196272Y0028186D01*
X0196154Y0028097D01*
X0196033Y0028012D01*
X0195910Y0027929D01*
X0195785Y0027850D01*
X0195658Y0027774D01*
X0195529Y0027702D01*
X0195398Y0027633D01*
X0195265Y0027568D01*
X0195130Y0027507D01*
X0194994Y0027449D01*
X0194857Y0027394D01*
X0194718Y0027344D01*
X0194577Y0027297D01*
X0194436Y0027254D01*
X0194293Y0027214D01*
X0194149Y0027179D01*
X0194005Y0027147D01*
X0193859Y0027120D01*
X0193713Y0027096D01*
X0193566Y0027076D01*
X0193419Y0027060D01*
X0193272Y0027048D01*
X0193124Y0027040D01*
X0192976Y0027036D01*
X0192828Y0027036D01*
X0192680Y0027040D01*
X0192532Y0027048D01*
X0192385Y0027060D01*
X0192238Y0027076D01*
X0192091Y0027096D01*
X0191945Y0027120D01*
X0191799Y0027147D01*
X0191655Y0027179D01*
X0191511Y0027214D01*
X0191368Y0027254D01*
X0191227Y0027297D01*
X0191086Y0027344D01*
X0190947Y0027394D01*
X0190810Y0027449D01*
X0190674Y0027507D01*
X0190539Y0027568D01*
X0190406Y0027633D01*
X0190275Y0027702D01*
X0190146Y0027774D01*
X0190019Y0027850D01*
X0189894Y0027929D01*
X0189771Y0028012D01*
X0189650Y0028097D01*
X0189532Y0028186D01*
X0189416Y0028278D01*
X0189303Y0028374D01*
X0189192Y0028472D01*
X0189084Y0028573D01*
X0188978Y0028677D01*
X0188876Y0028783D01*
X0188776Y0028893D01*
X0188680Y0029005D01*
X0188586Y0029120D01*
X0188495Y0029237D01*
X0188408Y0029356D01*
X0188324Y0029478D01*
X0188243Y0029602D01*
X0188166Y0029728D01*
X0188092Y0029856D01*
X0188021Y0029986D01*
X0187954Y0030118D01*
X0187891Y0030252D01*
X0187831Y0030387D01*
X0187775Y0030524D01*
X0187722Y0030663D01*
X0187674Y0030803D01*
X0187629Y0030944D01*
X0187588Y0031086D01*
X0187550Y0031229D01*
X0187517Y0031373D01*
X0187487Y0031518D01*
X0187461Y0031664D01*
X0187440Y0031810D01*
X0187422Y0031957D01*
X0187408Y0032104D01*
X0187398Y0032252D01*
X0187392Y0032400D01*
X0187390Y0032548D01*
M02*
